<svg width="55" height="45" viewBox="0 0 55 45" fill="none" xmlns="http://www.w3.org/2000/svg">
<path d="M45.7765 24.2885L45.9631 24.1009C47.5305 22.5253 47.5305 19.9369 45.9631 18.3613C45.4033 17.7986 44.6943 17.4234 43.9479 17.2734C44.0598 16.8982 44.0972 16.5231 44.0972 16.148C44.0972 15.0601 43.6867 14.0472 42.903 13.2594C42.3432 12.6967 41.6341 12.3216 40.8878 12.1715C40.9997 11.7964 41.037 11.4212 41.037 11.0461C41.037 9.95818 40.6265 8.94532 39.8428 8.15753C39.2831 7.59482 38.574 7.21967 37.8276 7.06962C38.2381 5.68161 37.9023 4.14355 36.82 3.05565C35.9244 2.15532 34.6929 1.78018 33.536 1.89272L25.8484 0.429686C24.6915 0.204603 23.1988 0.0545432 22.2658 0.91736C22.1912 0.954874 22.1538 1.0299 22.0792 1.10493C20.6611 0.579736 18.9817 0.879847 17.8249 2.04277C17.0785 2.79305 16.6307 3.84344 16.6307 4.93134C16.6307 5.30648 16.668 5.71913 16.78 6.05675C16.0336 6.20681 15.3245 6.58194 14.7648 7.14465C14.0184 7.89493 13.5706 8.94532 13.5706 10.0332C13.5706 10.4084 13.6079 10.821 13.7198 11.1961C12.9361 11.3462 12.2644 11.7213 11.7046 12.284C10.9583 13.0343 10.5104 14.0847 10.5104 15.1726C10.5104 15.9979 10.7717 16.7857 11.2195 17.4609C10.6224 17.6485 10.0999 17.9861 9.6521 18.4363C8.08472 20.0119 8.08472 22.6003 9.6521 24.1759L9.8387 24.3635L0.919556 33.1792L9.91334 42.07C12.7869 44.921 17.377 44.8835 20.2506 42.07L24.5049 37.8309C24.99 37.3057 26.4081 37.4183 27.7516 37.4933C28.7219 37.5683 29.7668 37.6434 30.8117 37.5308L35.2527 41.9574C38.2755 44.9961 43.2015 45.0336 46.2616 41.995L54.9196 33.4418L45.7765 24.2885ZM25.3632 2.643L30.4386 3.61836L27.4158 6.65698C26.9306 6.43189 26.2962 6.01924 25.5871 5.34399C24.6169 4.40615 23.9451 3.35576 23.8705 2.68051C23.8705 2.643 23.8705 2.60548 23.8705 2.56796C24.0198 2.53045 24.4303 2.49294 25.3632 2.643ZM19.4669 3.61836C20.064 3.01814 20.9596 2.94311 21.6314 3.39327C22.0046 5.00637 23.348 6.43189 23.9824 7.03211C24.4303 7.48228 25.8857 8.75774 27.3411 9.13288C27.5277 9.43299 27.6397 9.77061 27.6397 10.1082C27.6397 10.5584 27.4531 11.0086 27.1545 11.3087C26.8187 11.6463 26.4082 11.7964 25.9603 11.7964C25.5125 11.7964 25.0647 11.6088 24.7288 11.3087L19.4669 6.01924C19.131 5.68161 18.9818 5.26896 18.9818 4.81879C18.9444 4.36863 19.131 3.95598 19.4669 3.61836ZM16.4068 8.72023C16.7426 8.38261 17.1531 8.23255 17.601 8.23255C18.0488 8.23255 18.4966 8.42013 18.8325 8.72023L23.0868 12.9593C24.8781 14.6849 25.6991 15.9604 24.6169 17.0108C23.4227 18.1362 22.4524 17.1983 20.6611 15.3977L17.4517 12.1715L16.4441 11.1586C16.1082 10.821 15.9589 10.4084 15.9589 9.95819C15.8843 9.50802 16.0709 9.05786 16.4068 8.72023ZM13.3466 13.8596C13.6825 13.522 14.093 13.3719 14.5782 13.3719C15.026 13.3719 15.4738 13.5595 15.7723 13.8596L18.9818 17.0858C20.6611 18.5864 21.5194 19.8243 20.4745 20.8747C19.1683 22.1502 17.5637 20.5371 15.3619 18.3613C14.8394 17.8361 13.3093 16.298 13.3093 16.298C12.9735 15.9604 12.8242 15.5477 12.8242 15.0976C12.8615 14.6099 13.0108 14.1972 13.3466 13.8596ZM11.2941 20.0119C11.63 19.6743 12.0405 19.5242 12.5256 19.5242C12.9735 19.5242 13.4213 19.7118 13.7571 20.0119L14.914 21.1748C15.2499 21.5124 15.3992 21.9251 15.3992 22.3753C15.3992 22.8254 15.2126 23.2756 14.914 23.5757C14.5782 23.9133 14.1676 24.0634 13.7198 24.0634C13.272 24.0634 12.8242 23.8758 12.4883 23.5757L12.339 23.4256L11.3314 22.4128C10.6597 21.775 10.6597 20.6871 11.2941 20.0119ZM27.9009 35.1299C26.035 35.0174 24.0944 34.8673 22.8256 36.1428L18.31 40.6445C16.4814 42.4826 13.5332 42.4826 11.7046 40.7195L4.017 33.4043L11.5927 25.864C12.2271 26.2392 12.9361 26.4643 13.7198 26.4643C14.8021 26.4643 15.8097 26.0516 16.5934 25.2638C17.3397 24.5135 17.7876 23.4632 17.7876 22.3753C17.7876 22.3753 19.952 24.3635 22.0792 22.3753C22.8629 21.625 23.2734 20.5746 23.2734 19.4867C23.2734 19.4867 24.8408 19.6743 26.1096 18.3238C27.2665 17.0858 27.1918 15.6228 25.923 14.1597H25.9603C27.0426 14.1597 28.0502 13.7471 28.8339 12.9593C29.5802 12.209 30.0281 11.1586 30.0281 10.0707C30.0281 9.32045 29.8041 8.57018 29.431 7.93244L32.7523 4.59372C33.0135 4.33112 33.3121 4.18106 33.6106 4.10603C33.648 4.10603 33.6853 4.10603 33.7226 4.10603C34.2451 4.031 34.7675 4.18107 35.178 4.59372C35.8498 5.26897 35.8498 6.35687 35.178 7.03211L33.3494 8.83277L32.2298 9.95819C31.782 10.4084 31.7074 11.1586 32.1552 11.6088C32.603 12.0965 33.3867 12.134 33.8346 11.6463L34.8421 10.6334L35.8124 9.69558C36.4842 9.02034 37.5664 9.02034 38.2381 9.69558C38.574 10.0332 38.7233 10.4459 38.7233 10.896C38.7233 11.3462 38.5367 11.7964 38.2381 12.0965L36.4095 13.8971L35.29 15.0225C34.8422 15.4727 34.7675 16.223 35.2153 16.6732C35.6632 17.1608 36.4468 17.1983 36.8947 16.7107L38.8726 14.7599C39.2084 14.4223 39.6189 14.2723 40.0667 14.2723C40.5146 14.2723 40.9624 14.4598 41.2983 14.7599C41.6341 15.0976 41.7834 15.5102 41.7834 15.9604C41.7834 16.4106 41.5968 16.8607 41.2983 17.1608L38.4621 19.9744C38.0142 20.4245 38.0142 21.1748 38.4621 21.625C38.686 21.8501 38.9845 21.9626 39.2831 21.9626C39.5816 21.9626 39.8802 21.8501 40.1041 21.625L41.8954 19.8618C42.2312 19.5242 42.6417 19.3741 43.0896 19.3741C43.5374 19.3741 43.9852 19.5617 44.3211 19.8993C44.9928 20.5746 44.9182 21.7 44.2464 22.3753L43.2762 23.3506L41.6715 24.9637C41.5968 25.0387 41.5595 25.0762 41.5222 25.1513L32.4164 34.2671C31.4088 35.3925 29.6175 35.2425 27.9009 35.1299ZM37.1932 40.5694L33.3121 36.668C33.5733 36.4804 33.8345 36.2929 34.0958 36.0303L43.9106 26.2017C43.9852 26.1266 44.0225 26.0891 44.0598 26.0141L44.1345 25.9391L51.5982 33.4043L44.2838 40.5694C42.3059 42.5577 39.1338 42.5202 37.1932 40.5694Z" fill="#D9DB23"/>
</svg>
