<?xml version="1.0" encoding="utf-8"?>
<!-- Generator: Adobe Illustrator 19.0.0, SVG Export Plug-In . SVG Version: 6.00 Build 0)  -->
<svg version="1.1" id="Capa_1" xmlns="http://www.w3.org/2000/svg" xmlns:xlink="http://www.w3.org/1999/xlink" 
	 viewBox="0 0 343.4 343.4" style="enable-background:new 0 0 343.4 343.4;" xml:space="preserve">
<style type="text/css">
	.st0{fill:none;}
	.st1{fill:#181027;}
	.st2{fill:url(#XMLID_60_);}
	.st3{fill:url(#XMLID_61_);}
	.st4{fill:url(#XMLID_62_);}
	.st5{fill:url(#XMLID_63_);}
	.st6{fill:url(#XMLID_64_);}
	.st7{fill:url(#XMLID_65_);}
	.st8{fill:url(#XMLID_66_);}
</style>
<g id="XMLID_1685_">
	<path id="XMLID_1686_" class="st0" d="M300.4,254c15.2-23.8,24.1-52,24.1-82.3c0-14.6-2.1-28.7-5.9-42.1h-0.1
		c3.8,13.4,5.9,27.5,5.9,42.1C324.4,202.1,315.6,230.3,300.4,254z"/>
	<path id="XMLID_1687_" class="st0" d="M267.3,52.6c1.2,1,2.5,2,3.7,3.1C269.8,54.6,268.6,53.6,267.3,52.6z"/>
	<path id="XMLID_1688_" class="st0" d="M311.9,111.1h0.2c-0.3-0.6-0.6-1.2-0.9-1.8c-9.2-20.5-22.8-38.6-39.5-53.1
		C288.9,71.1,302.7,89.9,311.9,111.1z"/>
	<path id="XMLID_1696_" class="st1" d="M271,55.6c0.2,0.2,0.4,0.4,0.6,0.5C271.4,56,271.2,55.8,271,55.6z"/>
	<linearGradient id="XMLID_60_" gradientUnits="userSpaceOnUse" x1="271.3305" y1="-39.2517" x2="271.3305" y2="426.8329">
		<stop  offset="0" style="stop-color:#DBDC10"/>
		<stop  offset="1" style="stop-color:#AAC21F"/>
	</linearGradient>
	<path id="XMLID_1697_" class="st2" d="M271,55.6c0.2,0.2,0.4,0.4,0.6,0.5C271.4,56,271.2,55.8,271,55.6z"/>
	<path id="XMLID_1698_" class="st1" d="M175.1,216.1l17.6-30.6c0.5-0.9-0.1-2.1-1.2-2.1h-59.2l9.4-15l0.1-0.1
		c2.1-3.5,5.9-5.6,9.9-5.6h53.1l10.2-17.6h-68.2c-6.5,0-13,3.1-16.9,8.4l-0.3,0.4c-0.4,0.5-0.8,1.1-1.1,1.7L103,199.9h65
		c0,0-1.8,3.2-5.1,8.9c-3.6,6.3-6.3,7.2-12,7.2H93.7l-9.4,16.4H152C165.2,232.3,168.5,227.6,175.1,216.1z"/>
	<linearGradient id="XMLID_61_" gradientUnits="userSpaceOnUse" x1="31.1249" y1="83.6582" x2="327.1405" y2="269.052">
		<stop  offset="0" style="stop-color:#DBDC10"/>
		<stop  offset="1" style="stop-color:#AAC21F"/>
	</linearGradient>
	<path id="XMLID_1702_" class="st3" d="M171.7,0C76.9,0,0,76.9,0,171.7s76.9,171.7,171.7,171.7s171.7-76.9,171.7-171.7
		S266.5,0,171.7,0z M171.4,324.8c-84.9,0-153.6-69.1-153-154.1C19,87.2,87.2,19.1,170.7,18.8c31.4-0.1,60.7,9.2,85,25.3
		c0,0,0.1,0,0.1,0.1c1.5,1,2.9,2,4.3,3c0.1,0.1,0.3,0.2,0.4,0.3c1.1,0.8,2.1,1.6,3.2,2.4c0.5,0.4,1,0.8,1.5,1.2
		c0.6,0.5,1.2,0.9,1.8,1.4c1.3,1.1,2.7,2.2,4,3.3c0.2,0.2,0.4,0.3,0.5,0.5c16.8,14.5,30.3,32.6,39.5,53.1c0.3,0.6,0.6,1.2,0.9,1.8
		h-0.2H61.8c-8.5,0-15.9,5.6-18.2,13.7c-0.4,1.5-0.8,3-1.3,4.8h60.9c-2,2.3-3.7,4.8-5.2,7.5l-55,95.2l15.5,0c3.6,0,6.8-1.9,8.6-5
		l46.9-80.8c6-10.4,17.2-16.9,29.3-16.9H313c3.3,0,6.2,2.2,7,5.5c2.9,11.7,4.5,24,4.5,36.6c0,30.3-8.8,58.6-24.1,82.3
		C273.2,296.6,225.6,324.8,171.4,324.8z"/>
	<linearGradient id="XMLID_62_" gradientUnits="userSpaceOnUse" x1="26.1642" y1="80.5513" x2="317.2358" y2="262.8488">
		<stop  offset="0" style="stop-color:#DBDC10"/>
		<stop  offset="1" style="stop-color:#AAC21F"/>
	</linearGradient>
	<path id="XMLID_1705_" class="st4" d="M171.7,0C76.9,0,0,76.9,0,171.7s76.9,171.7,171.7,171.7s171.7-76.9,171.7-171.7
		S266.5,0,171.7,0z M171.4,324.8c-84.9,0-153.6-69.1-153-154.1C19,87.2,87.2,19.1,170.7,18.8c31.4-0.1,60.7,9.2,85,25.3
		c0,0,0.1,0,0.1,0.1c1.5,1,2.9,2,4.3,3c0.1,0.1,0.3,0.2,0.4,0.3c1.1,0.8,2.1,1.6,3.2,2.4c0.5,0.4,1,0.8,1.5,1.2
		c0.6,0.5,1.2,0.9,1.8,1.4c1.3,1.1,2.7,2.2,4,3.3c0.2,0.2,0.4,0.3,0.5,0.5c16.8,14.5,30.3,32.6,39.5,53.1c0.3,0.6,0.6,1.2,0.9,1.8
		h-0.2H61.8c-8.5,0-15.9,5.6-18.2,13.7c-0.4,1.5-0.8,3-1.3,4.8h60.9c-2,2.3-3.7,4.8-5.2,7.5l-55,95.2l15.5,0c3.6,0,6.8-1.9,8.6-5
		l46.9-80.8c6-10.4,17.2-16.9,29.3-16.9H313c3.3,0,6.2,2.2,7,5.5c2.9,11.7,4.5,24,4.5,36.6c0,30.3-8.8,58.6-24.1,82.3
		C273.2,296.6,225.6,324.8,171.4,324.8z"/>
	<linearGradient id="XMLID_63_" gradientUnits="userSpaceOnUse" x1="17.2499" y1="105.8122" x2="313.2655" y2="291.206">
		<stop  offset="0" style="stop-color:#DBDC10"/>
		<stop  offset="1" style="stop-color:#AAC21F"/>
	</linearGradient>
	<path id="XMLID_1708_" class="st5" d="M191.6,183.5h-59.2l9.4-15l0.1-0.1c2.1-3.5,5.9-5.6,9.9-5.6h53.1l10.2-17.6h-68.2
		c-6.5,0-13,3.1-16.9,8.4l-0.3,0.4c-0.4,0.5-0.8,1.1-1.1,1.7L103,199.9h65c0,0-1.8,3.2-5.1,8.9c-3.6,6.3-6.3,7.2-12,7.2H93.7
		l-9.4,16.4H152c13.2,0,16.5-4.7,23.1-16.2l17.6-30.6C193.3,184.7,192.6,183.5,191.6,183.5z"/>
	<linearGradient id="XMLID_64_" gradientUnits="userSpaceOnUse" x1="12.2893" y1="102.7053" x2="303.3608" y2="285.0027">
		<stop  offset="0" style="stop-color:#DBDC10"/>
		<stop  offset="1" style="stop-color:#AAC21F"/>
	</linearGradient>
	<path id="XMLID_1709_" class="st6" d="M191.6,183.5h-59.2l9.4-15l0.1-0.1c2.1-3.5,5.9-5.6,9.9-5.6h53.1l10.2-17.6h-68.2
		c-6.5,0-13,3.1-16.9,8.4l-0.3,0.4c-0.4,0.5-0.8,1.1-1.1,1.7L103,199.9h65c0,0-1.8,3.2-5.1,8.9c-3.6,6.3-6.3,7.2-12,7.2H93.7
		l-9.4,16.4H152c13.2,0,16.5-4.7,23.1-16.2l17.6-30.6C193.3,184.7,192.6,183.5,191.6,183.5z"/>
	<linearGradient id="XMLID_65_" gradientUnits="userSpaceOnUse" x1="44.3956" y1="62.469" x2="340.4112" y2="247.8629">
		<stop  offset="0" style="stop-color:#DBDC10"/>
		<stop  offset="1" style="stop-color:#AAC21F"/>
	</linearGradient>
	<path id="XMLID_1710_" class="st7" d="M307.5,145.1h-60c-8.4,0-15.5,3.2-20.2,11.7l-43.8,75.5l17.2,0.1c2.8,0,3.9-1.9,4.9-3.7
		l16.9-28.9h52c4.9,0,9.5-2.7,12-6.9l4.7-7.6l19.7-34.6C312.1,148.2,310.3,145.1,307.5,145.1z M274.3,180.4
		c-0.7,1.3-2.3,2.3-4.2,2.9l-38,0.1c4.8-9,7-11.9,8.3-14.2l1-1.5c3.2-4.7,4-4.8,14.5-4.8h29.1L274.3,180.4z"/>
	<linearGradient id="XMLID_66_" gradientUnits="userSpaceOnUse" x1="39.435" y1="59.3622" x2="330.5065" y2="241.6596">
		<stop  offset="0" style="stop-color:#DBDC10"/>
		<stop  offset="1" style="stop-color:#AAC21F"/>
	</linearGradient>
	<path id="XMLID_1713_" class="st8" d="M307.5,145.1h-60c-8.4,0-15.5,3.2-20.2,11.7l-43.8,75.5l17.2,0.1c2.8,0,3.9-1.9,4.9-3.7
		l16.9-28.9h52c4.9,0,9.5-2.7,12-6.9l4.7-7.6l19.7-34.6C312.1,148.2,310.3,145.1,307.5,145.1z M274.3,180.4
		c-0.7,1.3-2.3,2.3-4.2,2.9l-38,0.1c4.8-9,7-11.9,8.3-14.2l1-1.5c3.2-4.7,4-4.8,14.5-4.8h29.1L274.3,180.4z"/>
</g>
<g id="XMLID_53_">
</g>
<g id="XMLID_54_">
</g>
<g id="XMLID_55_">
</g>
<g id="XMLID_56_">
</g>
<g id="XMLID_57_">
</g>
<g id="XMLID_58_">
</g>
</svg>
