<?xml version="1.0" encoding="utf-8"?>
<!-- Generator: Adobe Illustrator 24.0.0, SVG Export Plug-In . SVG Version: 6.00 Build 0)  -->
<svg version="1.1" id="Capa_3" xmlns="http://www.w3.org/2000/svg" xmlns:xlink="http://www.w3.org/1999/xlink" 
	 viewBox="0 0 612 792" style="enable-background:new 0 0 612 792;" xml:space="preserve">
<style type="text/css">
	.st0{fill:#D7EDF1;}
	.st1{fill:#229EAE;}
	.st2{fill:#75C8D9;}
	.st3{fill:#53BFCD;}
	.st4{fill:none;stroke:#75C8D9;stroke-miterlimit:10;}
</style>
<polygon class="st0" points="73.44,475.27 73.43,483.47 115.79,507.95 115.79,499.75 "/>
<g>
	<polygon class="st1" points="182.88,538.48 182.82,509.91 158.14,495.66 158.14,524.16 	"/>
	<polygon class="st2" points="158.14,532.38 182.93,546.7 218.03,526.46 218,489.6 182.82,509.91 158.14,495.66 242.83,446.76 
		242.83,538.65 182.82,573.29 182.82,611.14 158.14,625.39 	"/>
	<polygon class="st3" points="73.44,446.76 158.14,495.66 158.14,524.16 140.53,514.03 140.53,625.39 115.79,611.11 115.79,499.75 
		73.44,475.27 	"/>
</g>
<polygon class="st0" points="115.79,611.11 115.78,619.32 140.52,633.6 140.53,625.39 "/>
<polygon class="st0" points="158.14,625.39 158.13,633.6 182.81,619.35 182.82,611.14 "/>
<polygon class="st0" points="182.82,573.29 242.83,538.65 242.82,546.85 182.82,581.49 "/>
<polygon class="st0" points="218,489.6 218.01,497.96 182.82,518.14 182.82,509.91 "/>
<polygon class="st0" points="182.88,538.48 140.53,514.03 140.53,522.24 182.93,546.7 "/>
<polygon class="st0" points="242.83,443.39 193.8,443.39 158.01,464.06 122.22,443.39 158.01,422.73 158.14,394.49 73.44,443.39 
	158.14,492.29 "/>
<g>
	<path class="st1" d="M285.6,451.36h-12.92v-4.66h31.44v4.66h-12.98v37.81h-5.55V451.36z"/>
	<path class="st1" d="M343.45,467.49c0,14.62-8.88,22.37-19.72,22.37c-11.22,0-19.09-8.7-19.09-21.55
		c0-13.48,8.38-22.31,19.72-22.31C335.95,446,343.45,454.89,343.45,467.49z M310.49,468.18c0,9.07,4.91,17.2,13.55,17.2
		c8.7,0,13.61-8,13.61-17.64c0-8.44-4.41-17.26-13.54-17.26C315.03,450.48,310.49,458.86,310.49,468.18z"/>
	<path class="st1" d="M350.57,446.7h5.48v20.48h0.19c1.13-1.64,2.27-3.15,3.34-4.54l12.98-15.94h6.81L364,464.72l16.57,24.45h-6.49
		l-13.99-20.86l-4.03,4.66v16.19h-5.48V446.7z"/>
	<path class="st1" d="M406.72,469.26h-16.51v15.31h18.4v4.6h-23.88V446.7h22.94v4.6h-17.45v13.42h16.51V469.26z"/>
	<path class="st1" d="M415.73,489.17V446.7h5.99l13.61,21.49c3.15,4.98,5.61,9.45,7.62,13.8l0.13-0.06
		c-0.5-5.67-0.63-10.84-0.63-17.45V446.7h5.17v42.47h-5.55l-13.49-21.55c-2.96-4.73-5.8-9.58-7.94-14.18l-0.19,0.06
		c0.31,5.35,0.44,10.46,0.44,17.52v18.15H415.73z"/>
</g>
<g>
	<path class="st1" d="M272.68,502.11c2.04-0.35,4.91-0.61,8.95-0.61c4.09,0,7,0.78,8.95,2.35c1.87,1.48,3.13,3.91,3.13,6.78
		c0,2.87-0.96,5.3-2.7,6.95c-2.26,2.13-5.61,3.09-9.52,3.09c-0.87,0-1.65-0.04-2.26-0.13v10.48h-6.56V502.11z M279.25,515.41
		c0.56,0.13,1.26,0.17,2.22,0.17c3.52,0,5.69-1.78,5.69-4.78c0-2.7-1.87-4.3-5.17-4.3c-1.35,0-2.26,0.13-2.74,0.26V515.41z"/>
	<path class="st1" d="M302.15,523.5l-2.09,7.52h-6.87l8.95-29.3h8.69l9.08,29.3h-7.13l-2.26-7.52H302.15z M309.59,518.54l-1.83-6.21
		c-0.52-1.74-1.04-3.91-1.48-5.65h-0.09c-0.43,1.74-0.87,3.96-1.35,5.65l-1.74,6.21H309.59z"/>
	<path class="st1" d="M323.85,502.11c2.13-0.35,5.3-0.61,8.82-0.61c4.35,0,7.39,0.65,9.48,2.3c1.74,1.39,2.69,3.43,2.69,6.13
		c0,3.74-2.65,6.3-5.17,7.22v0.13c2.04,0.83,3.17,2.78,3.91,5.48c0.91,3.3,1.83,7.13,2.39,8.26h-6.78
		c-0.48-0.83-1.17-3.22-2.04-6.82c-0.78-3.65-2.04-4.65-4.74-4.7h-2v11.52h-6.56V502.11z M330.41,514.72h2.61
		c3.3,0,5.26-1.65,5.26-4.22c0-2.7-1.83-4.04-4.87-4.09c-1.61,0-2.52,0.13-3,0.22V514.72z"/>
	<path class="st1" d="M355.27,507.29h-7.87v-5.56h22.51v5.56h-8v23.73h-6.65V507.29z"/>
	<path class="st1" d="M373.44,531.02v-29.3h7.74l6.08,10.74c1.74,3.08,3.48,6.74,4.78,10.04h0.13c-0.44-3.87-0.57-7.82-0.57-12.21
		v-8.56h6.08v29.3h-6.96l-6.26-11.3c-1.74-3.13-3.65-6.91-5.08-10.34l-0.13,0.05c0.17,3.87,0.26,8,0.26,12.78v8.82H373.44z"/>
	<path class="st1" d="M420.87,518.63h-10.78v6.95h12.04v5.43h-18.69v-29.3h18.08v5.43h-11.43v6.08h10.78V518.63z"/>
	<path class="st1" d="M426.65,502.11c2.13-0.35,5.3-0.61,8.82-0.61c4.35,0,7.39,0.65,9.47,2.3c1.74,1.39,2.7,3.43,2.7,6.13
		c0,3.74-2.65,6.3-5.17,7.22v0.13c2.04,0.83,3.17,2.78,3.91,5.48c0.91,3.3,1.83,7.13,2.39,8.26h-6.78
		c-0.48-0.83-1.17-3.22-2.04-6.82c-0.78-3.65-2.04-4.65-4.74-4.7h-2v11.52h-6.56V502.11z M433.21,514.72h2.61
		c3.3,0,5.26-1.65,5.26-4.22c0-2.7-1.82-4.04-4.87-4.09c-1.61,0-2.52,0.13-3,0.22V514.72z"/>
</g>
<g>
	<path class="st2" d="M283.11,573.43c-0.65,0.33-1.96,0.65-3.63,0.65c-3.88,0-6.79-2.45-6.79-6.95c0-4.31,2.92-7.22,7.18-7.22
		c1.71,0,2.79,0.37,3.26,0.61l-0.43,1.45c-0.67-0.33-1.63-0.57-2.77-0.57c-3.22,0-5.36,2.06-5.36,5.67c0,3.37,1.94,5.53,5.28,5.53
		c1.08,0,2.18-0.22,2.9-0.57L283.11,573.43z"/>
	<path class="st2" d="M290.59,573.88l-0.14-1.25h-0.06c-0.55,0.78-1.61,1.47-3.02,1.47c-2,0-3.02-1.41-3.02-2.84
		c0-2.39,2.12-3.69,5.94-3.67v-0.2c0-0.82-0.22-2.28-2.24-2.28c-0.92,0-1.88,0.29-2.57,0.73l-0.41-1.18c0.82-0.53,2-0.88,3.24-0.88
		c3.02,0,3.75,2.06,3.75,4.04v3.69c0,0.86,0.04,1.69,0.16,2.37H290.59z M290.32,568.84c-1.96-0.04-4.18,0.31-4.18,2.22
		c0,1.16,0.78,1.71,1.69,1.71c1.29,0,2.1-0.82,2.39-1.65c0.06-0.18,0.1-0.39,0.1-0.57V568.84z M291.22,559.74l-2.49,2.92h-1.29
		l1.79-2.92H291.22z"/>
	<path class="st2" d="M294.95,566.68c0-1.02-0.02-1.86-0.08-2.67h1.57l0.08,1.59h0.06c0.55-0.94,1.47-1.82,3.1-1.82
		c1.35,0,2.37,0.82,2.8,1.98h0.04c0.31-0.55,0.69-0.98,1.1-1.28c0.59-0.45,1.24-0.69,2.18-0.69c1.31,0,3.24,0.86,3.24,4.28v5.81
		h-1.75v-5.59c0-1.9-0.69-3.04-2.14-3.04c-1.02,0-1.82,0.76-2.12,1.63c-0.08,0.25-0.14,0.57-0.14,0.9v6.1h-1.75v-5.92
		c0-1.57-0.69-2.71-2.06-2.71c-1.12,0-1.94,0.9-2.22,1.8c-0.1,0.27-0.14,0.57-0.14,0.88v5.96h-1.75V566.68z"/>
	<path class="st2" d="M317.42,573.88l-0.14-1.25h-0.06c-0.55,0.78-1.61,1.47-3.02,1.47c-2,0-3.02-1.41-3.02-2.84
		c0-2.39,2.12-3.69,5.93-3.67v-0.2c0-0.82-0.22-2.28-2.24-2.28c-0.92,0-1.88,0.29-2.57,0.73l-0.41-1.18c0.82-0.53,2-0.88,3.24-0.88
		c3.02,0,3.75,2.06,3.75,4.04v3.69c0,0.86,0.04,1.69,0.16,2.37H317.42z M317.16,568.84c-1.96-0.04-4.18,0.31-4.18,2.22
		c0,1.16,0.77,1.71,1.69,1.71c1.29,0,2.1-0.82,2.39-1.65c0.06-0.18,0.1-0.39,0.1-0.57V568.84z"/>
	<path class="st2" d="M321.79,567.09c0-1.16-0.02-2.16-0.08-3.08h1.57l0.06,1.94h0.08c0.45-1.33,1.53-2.16,2.73-2.16
		c0.21,0,0.35,0.02,0.51,0.06v1.69c-0.18-0.04-0.37-0.06-0.61-0.06c-1.27,0-2.16,0.96-2.41,2.31c-0.04,0.24-0.08,0.53-0.08,0.84
		v5.26h-1.78V567.09z"/>
	<path class="st2" d="M333.82,573.88l-0.14-1.25h-0.06c-0.55,0.78-1.61,1.47-3.02,1.47c-2,0-3.02-1.41-3.02-2.84
		c0-2.39,2.12-3.69,5.93-3.67v-0.2c0-0.82-0.22-2.28-2.24-2.28c-0.92,0-1.88,0.29-2.57,0.73l-0.41-1.18c0.82-0.53,2-0.88,3.24-0.88
		c3.02,0,3.75,2.06,3.75,4.04v3.69c0,0.86,0.04,1.69,0.17,2.37H333.82z M333.55,568.84c-1.96-0.04-4.18,0.31-4.18,2.22
		c0,1.16,0.78,1.71,1.69,1.71c1.28,0,2.1-0.82,2.39-1.65c0.06-0.18,0.1-0.39,0.1-0.57V568.84z"/>
	<path class="st2" d="M351.03,559.39v11.93c0,0.88,0.02,1.88,0.08,2.55h-1.61l-0.08-1.71h-0.04c-0.55,1.1-1.75,1.94-3.37,1.94
		c-2.39,0-4.22-2.02-4.22-5.02c-0.02-3.29,2.02-5.3,4.43-5.3c1.51,0,2.53,0.71,2.98,1.51h0.04v-5.89H351.03z M349.23,568.02
		c0-0.22-0.02-0.53-0.08-0.75c-0.27-1.14-1.24-2.08-2.59-2.08c-1.86,0-2.96,1.63-2.96,3.81c0,2,0.98,3.65,2.92,3.65
		c1.2,0,2.3-0.8,2.63-2.14c0.06-0.25,0.08-0.49,0.08-0.78V568.02z"/>
	<path class="st2" d="M355,569.27c0.04,2.42,1.59,3.42,3.39,3.42c1.29,0,2.06-0.22,2.73-0.51l0.31,1.29
		c-0.63,0.29-1.72,0.61-3.29,0.61c-3.04,0-4.85-2-4.85-4.98c0-2.98,1.75-5.32,4.63-5.32c3.22,0,4.08,2.84,4.08,4.65
		c0,0.37-0.04,0.65-0.06,0.84H355z M360.27,567.98c0.02-1.14-0.47-2.92-2.49-2.92c-1.82,0-2.61,1.67-2.75,2.92H360.27z"/>
	<path class="st2" d="M378.21,573.43c-0.65,0.33-1.96,0.65-3.63,0.65c-3.87,0-6.79-2.45-6.79-6.95c0-4.31,2.92-7.22,7.18-7.22
		c1.71,0,2.79,0.37,3.26,0.61l-0.43,1.45c-0.67-0.33-1.63-0.57-2.77-0.57c-3.22,0-5.36,2.06-5.36,5.67c0,3.37,1.94,5.53,5.28,5.53
		c1.08,0,2.18-0.22,2.9-0.57L378.21,573.43z"/>
	<path class="st2" d="M389.08,568.86c0,3.65-2.53,5.24-4.92,5.24c-2.67,0-4.73-1.96-4.73-5.08c0-3.3,2.16-5.24,4.9-5.24
		C387.16,563.78,389.08,565.84,389.08,568.86z M381.25,568.96c0,2.16,1.24,3.79,3,3.79c1.71,0,3-1.61,3-3.83
		c0-1.67-0.84-3.79-2.96-3.79C382.17,565.13,381.25,567.09,381.25,568.96z"/>
	<path class="st2" d="M391.34,566.68c0-1.02-0.02-1.86-0.08-2.67h1.57l0.08,1.59h0.06c0.55-0.94,1.47-1.82,3.1-1.82
		c1.35,0,2.37,0.82,2.79,1.98h0.04c0.31-0.55,0.69-0.98,1.1-1.28c0.59-0.45,1.25-0.69,2.18-0.69c1.3,0,3.24,0.86,3.24,4.28v5.81
		h-1.76v-5.59c0-1.9-0.69-3.04-2.14-3.04c-1.02,0-1.82,0.76-2.12,1.63c-0.08,0.25-0.14,0.57-0.14,0.9v6.1h-1.75v-5.92
		c0-1.57-0.7-2.71-2.06-2.71c-1.12,0-1.94,0.9-2.22,1.8c-0.1,0.27-0.14,0.57-0.14,0.88v5.96h-1.75V566.68z"/>
	<path class="st2" d="M409.35,569.27c0.04,2.42,1.59,3.42,3.39,3.42c1.29,0,2.06-0.22,2.73-0.51l0.31,1.29
		c-0.63,0.29-1.72,0.61-3.29,0.61c-3.04,0-4.86-2-4.86-4.98c0-2.98,1.75-5.32,4.63-5.32c3.22,0,4.08,2.84,4.08,4.65
		c0,0.37-0.04,0.65-0.06,0.84H409.35z M414.61,567.98c0.02-1.14-0.47-2.92-2.49-2.92c-1.82,0-2.61,1.67-2.75,2.92H414.61z"/>
	<path class="st2" d="M418.56,567.09c0-1.16-0.02-2.16-0.08-3.08h1.57l0.06,1.94h0.08c0.45-1.33,1.53-2.16,2.73-2.16
		c0.21,0,0.35,0.02,0.51,0.06v1.69c-0.18-0.04-0.37-0.06-0.61-0.06c-1.26,0-2.16,0.96-2.41,2.31c-0.04,0.24-0.08,0.53-0.08,0.84
		v5.26h-1.77V567.09z"/>
	<path class="st2" d="M432.06,573.51c-0.47,0.25-1.51,0.57-2.84,0.57c-2.98,0-4.92-2.02-4.92-5.04c0-3.04,2.08-5.24,5.3-5.24
		c1.06,0,2,0.26,2.49,0.51l-0.41,1.39c-0.43-0.25-1.1-0.47-2.08-0.47c-2.26,0-3.49,1.67-3.49,3.73c0,2.29,1.47,3.69,3.43,3.69
		c1.02,0,1.69-0.27,2.2-0.49L432.06,573.51z"/>
	<path class="st2" d="M436.16,561.23c0.02,0.61-0.43,1.1-1.14,1.1c-0.63,0-1.08-0.49-1.08-1.1c0-0.63,0.47-1.12,1.12-1.12
		C435.73,560.11,436.16,560.6,436.16,561.23z M434.16,573.88V564h1.79v9.87H434.16z"/>
	<path class="st2" d="M447.87,568.86c0,3.65-2.53,5.24-4.92,5.24c-2.67,0-4.73-1.96-4.73-5.08c0-3.3,2.16-5.24,4.9-5.24
		C445.95,563.78,447.87,565.84,447.87,568.86z M440.04,568.96c0,2.16,1.24,3.79,3,3.79c1.71,0,3-1.61,3-3.83
		c0-1.67-0.84-3.79-2.96-3.79C440.95,565.13,440.04,567.09,440.04,568.96z"/>
</g>
<g>
	<path class="st2" d="M272.68,584.5c0.77-0.16,2-0.29,3.24-0.29c1.77,0,2.92,0.31,3.77,1c0.71,0.53,1.14,1.35,1.14,2.43
		c0,1.33-0.88,2.49-2.33,3.02v0.04c1.3,0.33,2.83,1.41,2.83,3.45c0,1.18-0.47,2.08-1.16,2.75c-0.96,0.88-2.51,1.28-4.75,1.28
		c-1.22,0-2.16-0.08-2.75-0.16V584.5z M274.46,590.13h1.61c1.88,0,2.98-0.98,2.98-2.3c0-1.61-1.22-2.24-3.02-2.24
		c-0.82,0-1.29,0.06-1.57,0.12V590.13z M274.46,596.71c0.35,0.06,0.86,0.08,1.49,0.08c1.84,0,3.53-0.67,3.53-2.67
		c0-1.88-1.61-2.65-3.55-2.65h-1.47V596.71z"/>
	<path class="st2" d="M283.67,583.58h1.79v14.48h-1.79V583.58z"/>
	<path class="st2" d="M297.42,593.04c0,3.65-2.53,5.24-4.91,5.24c-2.67,0-4.73-1.96-4.73-5.08c0-3.3,2.16-5.24,4.89-5.24
		C295.5,587.96,297.42,590.02,297.42,593.04z M289.59,593.14c0,2.16,1.24,3.79,3,3.79c1.71,0,3-1.61,3-3.83
		c0-1.67-0.84-3.79-2.96-3.79C290.5,589.31,289.59,591.27,289.59,593.14z"/>
	<path class="st2" d="M306.72,597.69c-0.47,0.25-1.51,0.57-2.84,0.57c-2.98,0-4.92-2.02-4.92-5.04c0-3.04,2.08-5.24,5.3-5.24
		c1.06,0,2,0.27,2.49,0.51l-0.41,1.39c-0.43-0.24-1.1-0.47-2.08-0.47c-2.26,0-3.49,1.67-3.49,3.73c0,2.29,1.47,3.69,3.43,3.69
		c1.02,0,1.69-0.26,2.2-0.49L306.72,597.69z"/>
	<path class="st2" d="M310.59,592.72h0.04c0.25-0.35,0.59-0.77,0.88-1.12l2.9-3.41h2.16l-3.81,4.06l4.35,5.81h-2.18l-3.41-4.73
		l-0.92,1.02v3.71h-1.77v-14.48h1.77V592.72z"/>
	<path class="st2" d="M325.42,597.69c-0.47,0.25-1.51,0.57-2.83,0.57c-2.98,0-4.92-2.02-4.92-5.04c0-3.04,2.08-5.24,5.3-5.24
		c1.06,0,2,0.27,2.49,0.51l-0.41,1.39c-0.43-0.24-1.1-0.47-2.08-0.47c-2.26,0-3.49,1.67-3.49,3.73c0,2.29,1.47,3.69,3.43,3.69
		c1.02,0,1.69-0.26,2.2-0.49L325.42,597.69z"/>
	<path class="st2" d="M327.52,583.58h1.79v6.16h0.04c0.29-0.51,0.73-0.96,1.29-1.26c0.53-0.31,1.16-0.51,1.84-0.51
		c1.33,0,3.45,0.82,3.45,4.22v5.88h-1.8v-5.67c0-1.59-0.59-2.94-2.28-2.94c-1.16,0-2.08,0.82-2.41,1.79
		c-0.1,0.25-0.12,0.51-0.12,0.86v5.96h-1.79V583.58z"/>
	<path class="st2" d="M344.3,598.06l-0.14-1.25h-0.06c-0.55,0.78-1.61,1.47-3.02,1.47c-2,0-3.02-1.41-3.02-2.83
		c0-2.39,2.12-3.69,5.93-3.67v-0.21c0-0.82-0.22-2.28-2.24-2.28c-0.92,0-1.88,0.28-2.57,0.73l-0.41-1.18c0.81-0.53,2-0.88,3.24-0.88
		c3.02,0,3.75,2.06,3.75,4.04v3.69c0,0.86,0.04,1.69,0.16,2.37H344.3z M344.03,593.02c-1.96-0.04-4.18,0.31-4.18,2.22
		c0,1.16,0.77,1.71,1.69,1.71c1.29,0,2.1-0.82,2.39-1.65c0.06-0.18,0.1-0.39,0.1-0.57V593.02z"/>
	<path class="st2" d="M350.66,585.41c0.02,0.61-0.43,1.1-1.14,1.1c-0.63,0-1.08-0.49-1.08-1.1c0-0.63,0.47-1.12,1.12-1.12
		C350.23,584.29,350.66,584.78,350.66,585.41z M348.66,598.06v-9.87h1.8v9.87H348.66z"/>
	<path class="st2" d="M353.43,590.86c0-1.02-0.02-1.86-0.08-2.67h1.59l0.1,1.63h0.04c0.49-0.94,1.63-1.86,3.26-1.86
		c1.37,0,3.49,0.82,3.49,4.2v5.89h-1.8v-5.69c0-1.59-0.59-2.91-2.28-2.91c-1.18,0-2.1,0.84-2.41,1.84
		c-0.08,0.22-0.12,0.53-0.12,0.84v5.94h-1.8V590.86z"/>
</g>
<line class="st4" x1="272.15" y1="546.7" x2="448.52" y2="546.7"/>
</svg>
