<svg width="55" height="45" viewBox="0 0 55 45" fill="none" xmlns="http://www.w3.org/2000/svg">
<path d="M46.2994 7.18373C44.921 5.67298 42.9838 4.01485 40.3388 3.83062C39.5937 3.75692 37.6565 3.94115 37.3584 2.06193C37.2839 1.54606 36.7623 1.06705 36.2408 1.06705L23.2763 0.882812C22.792 0.882812 22.3077 1.14074 22.0842 1.58291C21.4136 2.76203 20.2215 3.53583 18.843 3.68322C14.3353 4.19908 12.5098 6.07831 10.5726 7.99438C7.81578 10.6843 0.0668945 16.8746 0.0668945 16.8746C0.253166 17.3537 5.05896 23.2124 5.24523 23.4703C6.40012 24.9811 8.22558 24.7232 9.15693 24.0968C10.3118 23.2861 10.7216 22.9913 11.8765 22.1807C11.9883 22.107 12.1 22.0333 12.2863 21.9227C12.249 22.1438 12.249 22.2912 12.2118 22.4755C11.3549 30.324 9.79026 44.3629 9.79026 44.3629C9.79026 44.3629 28.0448 44.326 36.129 44.3997C38.0662 44.3997 38.6251 43.6996 38.8486 42.0415C39.8917 34.2667 40.5995 30.2134 41.6799 22.4755C41.7172 22.3281 41.7172 22.1807 41.7544 21.9596C41.9407 22.107 42.0525 22.1807 42.2015 22.2912C43.1328 23.065 45.2191 24.9074 46.1504 25.6443C46.1504 25.6443 51.515 20.4857 53.5268 18.5328C54.4209 17.6484 54.4581 16.2482 53.6013 15.327C51.6641 13.1162 48.1249 9.1735 46.2994 7.18373ZM34.6016 4.12539C34.1546 5.26766 32.8134 7.73644 29.3488 7.73644C27.5233 7.73644 26.2194 7.11004 25.4371 5.89407C24.9155 5.08342 24.8037 4.23594 24.7665 4.01485L24.8037 3.978L34.6016 4.12539ZM46.3367 21.37C45.2936 20.4857 44.2505 19.6014 43.2073 18.717C42.8348 18.3854 42.4622 18.0906 42.0897 17.759C41.5681 17.28 40.9721 16.9852 40.1525 17.3537C39.3701 17.7221 39.1466 18.3485 39.0349 19.0855C38.5506 22.586 38.0662 26.0865 37.5819 29.587C36.8741 34.5615 36.5761 35.8143 35.9055 40.7887C35.8682 41.0098 35.682 41.194 35.4584 41.194H13.3667C13.4039 40.9729 13.4412 40.7518 13.4412 40.5308C14.3725 32.1664 14.8941 27.5236 15.7882 19.1223C15.8255 18.8276 15.8627 18.4959 15.7882 18.2012C15.5647 17.1694 14.3725 16.8378 13.3294 17.5747C11.6902 18.717 10.4608 19.5645 8.82165 20.7068C8.33734 21.0384 7.62951 20.9647 7.25697 20.4857C6.36287 19.3434 5.43151 18.2012 4.53741 17.0589C4.79819 16.8378 4.98446 16.6536 5.24523 16.4693C7.92754 14.5901 10.3118 12.4161 12.6216 10.1315C14.3353 8.3997 16.0117 6.81526 18.1352 6.52048C21.1901 6.07831 22.0469 5.89407 23.4626 4.82549C23.8351 6.29939 25.1018 9.17351 29.386 9.17351C33.0369 9.17351 35.0114 6.88895 35.8682 5.00973C37.0231 5.96777 37.9172 5.78353 39.0721 6.15201C40.7486 6.70472 42.872 8.32601 45.2191 11.2738C46.4112 12.7846 49.0563 15.3639 50.2484 16.5062C50.5464 16.8009 50.5464 17.3168 50.2484 17.6116C48.9072 18.9013 47.6406 20.1172 46.3367 21.37Z" fill="#D9DB23"/>
</svg>
