<svg width="53" height="61" viewBox="0 0 53 61" fill="none" xmlns="http://www.w3.org/2000/svg">
<path d="M50.3436 15.993C48.3685 14.2799 47.1592 14.3197 45.7886 14.6385C44.9825 14.8377 44.2166 15.2361 43.6119 15.754L36.195 22.5269L33.1717 25.5548L33.0508 25.6743V25.6345C33.0508 21.0129 29.2214 17.2281 24.5455 17.2281C20.192 17.2281 16.6045 20.4552 16.1208 24.6384L15.113 23.3635L8.94564 15.4751C8.42162 14.8377 7.77667 14.3197 7.01078 14.001C5.72088 13.4831 4.55189 13.2042 2.29455 14.5588C0.158141 15.8337 0.0775222 17.5867 0.0775222 17.5867C-0.446503 20.6942 1.77053 23.1245 11.8479 39.8575H11.9286L8.46193 58.4631C8.46193 59.3794 9.1875 60.0965 10.8805 60.0965H27.5284C29.7454 60.0965 31.64 58.5428 32.0834 56.4312C32.0834 56.3914 32.0834 56.3914 32.0834 56.3515L34.8647 41.2121C35.026 41.0129 35.6306 40.3356 36.5174 39.3396H36.5577C49.3762 24.5588 51.9963 22.5269 51.9963 19.3396C51.9963 19.3396 52.2382 17.5867 50.3436 15.993ZM23.8602 20.4552C27.3268 20.0169 30.2291 22.8855 29.7857 26.3117C29.5036 28.6225 27.609 30.495 25.2307 30.8137C21.8044 31.252 18.8618 28.3834 19.3052 24.9572C19.6277 22.6066 21.5222 20.7341 23.8602 20.4552ZM10.5177 31.5707L9.14719 29.3396C8.54255 28.3834 7.89759 27.3874 7.17202 26.2321C5.51933 23.6026 4.10849 21.5707 3.34261 19.7779C2.85889 18.7022 3.18137 17.5867 3.86663 17.1882C4.63251 16.7102 5.76119 16.7899 7.01078 18.5428L13.8231 27.5866L10.5177 31.5707ZM31.7206 39.9771L28.8183 54.8376C28.4958 56.471 27.8106 56.7898 26.8834 56.7898C26.8834 56.7898 13.8634 56.7499 11.8479 56.7898L15.3952 39.2599L12.1301 34.0408L15.637 29.8177C17.2494 31.8496 20.2323 34.001 24.5858 34.001C27.6896 34.001 30.9547 32.5667 32.6074 30.9731L33.6958 29.9372L36.3965 34.5189C31.7206 39.7778 31.6803 39.8974 31.7206 39.9771ZM48.4088 21.0129C47.3607 22.6066 45.6274 24.3994 43.5313 26.7102C42.6445 27.7062 41.798 28.6225 41.0724 29.4193L38.412 32.4073L35.7112 27.8257L36.2756 27.3078L45.0228 19.1404C46.5545 17.6265 47.7235 17.746 48.3685 18.3436C48.9328 18.9014 49.0537 20.0169 48.4088 21.0129Z" fill="#D9DB23"/>
<path d="M26.561 6.94926L25.5129 6.90942L25.7548 0.893491C25.7548 0.455245 26.1579 0.0966797 26.6416 0.0966797L27.8509 0.136523L27.609 5.99309C27.609 6.55086 27.1253 6.9891 26.561 6.94926Z" fill="#D9DB23"/>
<path d="M26.4401 10.2561L25.3921 10.2163L25.4324 9.10077C25.4324 8.66252 25.8355 8.30396 26.3192 8.30396L27.5285 8.3438L27.4882 9.29997C27.4479 9.85774 27.0045 10.2561 26.4401 10.2561Z" fill="#D9DB23"/>
<path d="M19.0632 8.62261L18.0958 9.02101L15.7578 3.48318C15.5966 3.04493 15.7981 2.56685 16.2012 2.40749L17.2896 1.96924L19.5872 7.34772C19.8291 7.86564 19.5872 8.4234 19.0632 8.62261Z" fill="#D9DB23"/>
<path d="M20.3532 11.6504L19.3858 12.0488L18.9424 11.013C18.7811 10.5747 18.9827 10.0966 19.3858 9.93727L20.4741 9.49902L20.8369 10.3755C21.0788 10.8934 20.8772 11.4512 20.3532 11.6504Z" fill="#D9DB23"/>
<path d="M33.4942 9.93723L34.381 10.4552L37.4848 5.31573C37.7267 4.91732 37.6057 4.3994 37.2026 4.16035L36.1949 3.56274L33.1717 8.58266C32.8492 9.06074 33.0104 9.65835 33.4942 9.93723Z" fill="#D9DB23"/>
<path d="M31.7609 12.7659L32.6478 13.2839L33.2121 12.3277C33.454 11.9293 33.333 11.4114 32.9299 11.1723L31.9222 10.5747L31.4385 11.4113C31.1563 11.8894 31.3175 12.4871 31.7609 12.7659Z" fill="#D9DB23"/>
</svg>
