<svg width="20" height="19" viewBox="0 0 20 19" fill="none" xmlns="http://www.w3.org/2000/svg">
<path d="M10.9353 7.90833C10.856 7.90833 10.7768 7.90756 10.6979 7.906C10.7835 7.18217 10.9365 6.47191 11.1536 5.78183C11.1723 6.43017 11.2526 7.07269 11.3947 7.69987C11.3473 7.76445 11.3046 7.83203 11.2667 7.90199C11.1578 7.90622 11.0478 7.90833 10.9353 7.90833ZM10 18.5C15.1727 18.5 19.5 14.444 19.5 9.5C19.5 4.5467 15.1629 0.5 9.99118 0.5C4.82731 0.5 0.5 4.54762 0.5 9.5C0.5 14.4444 4.83646 18.5 10 18.5ZM8.64731 7.66775C8.41762 7.61881 8.19007 7.56194 7.96551 7.49788C7.90721 7.30805 7.81818 7.12994 7.70124 6.97061C8.1885 5.88588 8.84109 4.86631 9.64196 3.94576C9.13744 5.13469 8.80092 6.38548 8.64731 7.66775ZM5.39592 6.36192C4.95336 6.08777 4.53218 5.77717 4.14066 5.43551C5.05147 4.28394 6.33599 3.39703 7.81472 2.94972C6.98212 3.96236 6.2979 5.06946 5.77417 6.24372C5.64446 6.27008 5.51735 6.31037 5.39592 6.36192ZM13.2176 5.58595C13.2111 4.87102 13.2929 4.15846 13.4658 3.47531C14.7212 4.12424 15.7596 5.11462 16.4349 6.29773C15.7311 6.75553 14.9632 7.11956 14.1498 7.38876C13.9262 7.19816 13.6547 7.06144 13.3577 6.99244C13.2736 6.53168 13.2243 6.063 13.2176 5.58595ZM2.7 9.5C2.7 8.71234 2.8435 7.95761 3.11211 7.24904C3.48365 7.54591 3.87504 7.82046 4.28632 8.06891C4.30244 8.54298 4.50707 8.96656 4.82699 9.27896C4.72224 9.83139 4.65183 10.3955 4.6178 10.9654C3.95187 10.6129 3.31065 10.2029 2.70564 9.73842C2.70222 9.65762 2.7 9.57971 2.7 9.5ZM17.3 9.5C17.3 10.0916 17.2155 10.6713 17.058 11.2226C16.7118 11.3902 16.3571 11.5422 15.994 11.6787C15.3789 11.1164 14.8499 10.4732 14.4232 9.77287C14.5226 9.64093 14.603 9.4962 14.6628 9.3427C15.5386 9.06732 16.3792 8.69675 17.1691 8.23055C17.2543 8.64562 17.3 9.07019 17.3 9.5ZM8.55217 9.70037C8.57654 10.5949 8.68783 11.4776 8.88121 12.3437C8.869 12.3569 8.85702 12.3704 8.84525 12.384C8.10458 12.2618 7.37108 12.0814 6.65684 11.8429C6.65627 11.1085 6.71772 10.3882 6.84792 9.6885C7.02645 9.62048 7.19117 9.52709 7.33835 9.41253C7.73526 9.52964 8.14142 9.62552 8.55217 9.70037ZM10.9353 9.91667C11.1332 9.91667 11.3305 9.91272 11.5263 9.90174C11.7677 10.164 12.0866 10.3539 12.4435 10.4464C12.8127 11.1106 13.2586 11.7373 13.7703 12.3115C13.1412 12.4346 12.506 12.5121 11.8667 12.5459C11.6318 12.2025 11.2825 11.9472 10.8764 11.8208C10.7434 11.195 10.6576 10.5564 10.6271 9.91327C10.7298 9.91553 10.8326 9.91667 10.9353 9.91667ZM4.64688 13.2236C4.6698 13.5658 4.70773 13.9066 4.76063 14.2457C4.28686 13.7844 3.88128 13.2642 3.55872 12.6998C3.91376 12.889 4.27666 13.064 4.64688 13.2236ZM10 16.3667C9.05549 16.3667 8.14149 16.1919 7.3109 15.8689C7.08633 15.2576 6.91935 14.6299 6.81461 13.9907C7.41332 14.1555 8.02167 14.2873 8.64184 14.3812C8.90056 14.8461 9.36331 15.175 9.9005 15.2856C10.0725 15.6471 10.2618 16.0031 10.4671 16.351C10.3125 16.3612 10.1571 16.3667 10 16.3667ZM12.5999 15.9041C12.3149 15.4694 12.0588 15.0173 11.8346 14.556C13.0719 14.499 14.3093 14.3069 15.5116 13.9619C14.7293 14.8129 13.7333 15.4875 12.5999 15.9041Z" stroke="#E0F421" stroke-linecap="round"/>
</svg>
