<svg width="44" height="37" viewBox="0 0 44 37" fill="none" xmlns="http://www.w3.org/2000/svg">
<path d="M15.8646 7.8299L16.4051 6.88617C17.1771 5.53434 17.1771 3.92745 16.4051 2.57562C15.633 1.2493 14.2433 0.458612 12.6992 0.433105C12.6735 0.433105 12.6735 0.433105 12.6478 0.433105H11.2066H9.79119L7.98974 3.54486H11.2066H12.6478C13.2654 3.54486 13.5742 3.95296 13.6772 4.1315C13.7801 4.31005 13.986 4.76916 13.6772 5.30479L12.236 7.80439L3.56332 22.7765H3.53759L0.989826 27.2146C0.346452 28.2859 0.34645 29.5867 0.96409 30.6579C1.58173 31.7292 2.68833 32.3668 3.92361 32.3668H5.77654C5.31331 33.8972 5.69933 35.4531 6.88314 36.1163C8.29856 36.9325 10.3059 36.1163 11.361 34.3053C11.7213 33.6677 11.9272 33.0045 11.9787 32.3668H19.1587C18.6955 33.8972 19.0815 35.4531 20.2653 36.1163C21.6808 36.9325 23.6881 36.1163 24.7432 34.3053C25.7983 32.4944 25.5153 30.3774 24.0998 29.5612C23.6881 29.3316 23.2249 29.2296 22.7359 29.2551H3.97509C3.87215 29.2551 3.79494 29.2041 3.74347 29.1276C3.692 29.0255 3.692 28.9235 3.76921 28.8215L5.59639 25.6842H28.9123C31.563 25.6842 34.0336 24.2559 35.346 21.9858L43.504 7.85541H15.8646V7.8299ZM32.5409 20.4044C31.7946 21.7053 30.3792 22.5215 28.8351 22.5215H7.32063L7.86107 21.6032L14.0117 10.9416H37.9967L32.5409 20.4044Z" fill="#D9DB23"/>
</svg>
