<svg width="66" height="34" viewBox="0 0 66 34" fill="none" xmlns="http://www.w3.org/2000/svg">
<path d="M0.263672 33.9999H26.0757L26.6397 30.8834H0.85458L0.263672 33.9999Z" fill="#D9DB23"/>
<path d="M60.2945 4.80346L55.8627 1.03088C54.9764 0.265428 53.8483 -0.0899634 52.6933 0.0193869C51.5383 0.128737 50.4908 0.675492 49.7656 1.57763L32.2532 22.5455L30.3462 32.8792L38.2697 29.8173C39.3978 29.3799 40.4185 28.6418 41.1706 27.7124L58.8441 6.55307L62.1479 9.45085L57.2594 15.3831L58.9784 16.832L65.2635 9.17747L60.2945 4.80346ZM39.4516 26.2361C38.9144 26.8922 38.2429 27.3843 37.464 27.685L33.2739 29.2979L34.3483 23.557L51.4846 3.02652C51.8338 2.58912 52.3441 2.31575 52.9082 2.26107C53.4722 2.2064 54.0094 2.39776 54.4392 2.75314L57.152 5.0495L39.4516 26.2361Z" fill="#D9DB23"/>
</svg>
