<svg width="61" height="51" viewBox="0 0 61 51" fill="none" xmlns="http://www.w3.org/2000/svg">
<path d="M57.7072 34.3375C56.955 29.7865 54.7584 27.6789 50.8165 27.6789C50.6661 27.6789 50.5457 27.6179 50.4856 27.4651C50.4254 27.343 50.4254 27.1902 50.4856 27.0681C51.0573 26.0907 51.4184 24.3802 50.8767 22.792C50.2448 20.9593 48.951 17.1414 44.4976 17.1414C42.9028 17.1414 41.4886 17.8134 40.4956 19.0656C39.623 20.1652 39.2017 21.6008 39.3221 22.9141L31.98 16.0418C31.8597 15.9196 31.4384 15.5226 30.4153 15.5226C29.3923 15.5226 28.971 15.9196 28.8507 16.0418L21.4785 22.9447C21.5989 21.6313 21.1776 20.1958 20.305 19.0962C19.312 17.8439 17.8978 17.1719 16.303 17.1719C11.8496 17.1719 10.5558 20.9899 9.92387 22.8225C9.38225 24.4108 9.71323 26.1212 10.315 27.0986C10.4053 27.2208 10.4053 27.3735 10.315 27.4957C10.2549 27.6179 10.1044 27.7095 9.98405 27.7095C6.04222 27.7095 3.84563 29.817 3.09337 34.368L0.445435 49.0595C0.445435 49.762 0.98706 50.3118 2.25085 50.3118H17.4765C18.3792 50.3118 19.4023 49.3038 19.7634 47.4407L21.8396 35.8341C22.2609 35.3454 26.4434 30.5195 29.1215 27.2819C29.633 26.6405 30.0843 25.9685 30.4454 25.2354C30.8065 25.9685 31.2278 26.671 31.7694 27.2819C34.4474 30.5195 38.63 35.3454 39.0513 35.8341L41.1275 47.4407C41.4886 49.3038 42.5116 50.3118 43.4143 50.3118H58.64C59.8737 50.3118 60.4454 49.762 60.4454 49.0595L57.7072 34.3375ZM12.1806 23.9832C12.4815 22.6087 13.4745 19.4627 16.2729 19.4627C17.8075 19.4627 19.0713 20.8372 19.0713 22.5171C19.0713 22.9141 19.0713 23.3723 18.951 23.7999C18.5899 25.2049 17.6571 27.5568 15.3401 27.7095C14.618 27.7706 13.8657 27.5568 13.294 27.0986C12.3612 26.3961 11.9399 25.1744 12.1806 23.9832ZM26.955 26.1212C19.4324 34.704 19.4324 34.7956 19.4324 34.8872L17.2659 46.28C17.0252 47.5323 16.5136 47.7766 15.8216 47.7766H7.48656L9.77342 36.5366C9.86369 36.1395 10.0442 35.3454 9.29197 35.2538C8.66008 35.1621 8.44944 35.9868 8.38926 36.445L6.61394 45.1804C5.92186 47.8072 4.44744 47.7766 2.94292 47.8072L5.56078 34.4291C5.95195 31.7107 7.51665 30.2141 9.98405 30.2141H14.7684C16.7845 30.2141 18.6801 29.4505 20.1245 28.0455L29.3923 19.0656C29.3923 19.2489 29.3923 19.4627 29.3923 19.7071C29.3622 22.0589 28.5197 24.3497 26.955 26.1212ZM44.4976 19.4627C47.296 19.4627 48.289 22.6392 48.5899 23.9832C48.8607 25.1744 48.4093 26.3961 47.4765 27.0986C46.8747 27.5568 46.1526 27.7706 45.4304 27.7095C43.1134 27.5568 42.1806 25.2049 41.8196 23.7999C41.6992 23.3723 41.6992 22.9141 41.6992 22.5171C41.7293 20.8372 42.963 19.4627 44.4976 19.4627ZM54.1867 45.1499L52.4113 36.4144C52.3211 35.9563 52.1405 35.1316 51.5086 35.2232C50.7564 35.3454 50.9369 36.109 51.0272 36.506L53.314 47.7461H44.979C44.2569 47.7461 43.7754 47.5018 43.5347 46.2495L41.3381 34.8872C41.3381 34.8261 41.3381 34.704 33.8155 26.1212C32.2509 24.3497 31.4083 22.0589 31.4083 19.6765C31.4083 19.4322 31.4083 19.2184 31.4083 19.0351L40.6761 28.0149C42.1205 29.4199 44.0161 30.1835 46.0322 30.1835H50.8165C53.284 30.1835 54.8486 31.6802 55.2398 34.3985L57.8577 47.7766C56.3532 47.7461 54.8787 47.7766 54.1867 45.1499Z" fill="#D9DB23"/>
<path d="M31.98 4.86277L34.5677 0.311768H33.334C32.7021 0.311768 32.1003 0.647747 31.7693 1.22808L28.5497 6.87865H31.8295L29.001 11.8573H30.4454C30.9569 11.8573 31.4083 11.5824 31.649 11.1548L35.1996 4.89331H31.98V4.86277Z" fill="#D9DB23"/>
</svg>
