<?xml version="1.0" encoding="utf-8"?>
<!-- Generator: Adobe Illustrator 19.0.0, SVG Export Plug-In . SVG Version: 6.00 Build 0)  -->
<svg version="1.1" id="Capa_1" xmlns="http://www.w3.org/2000/svg" xmlns:xlink="http://www.w3.org/1999/xlink" x="0px" y="0px"
	 viewBox="0 0 595.3 229.9" style="enable-background:new 0 0 595.3 229.9;" xml:space="preserve">
<style type="text/css">
	.st0{fill:#111111;}
	.st1{font-family:'Binaria-MediumItalic';}
	.st2{font-size:50.159px;}
	.st3{font-family:'Binaria-BlackItalic';}
	.st4{fill:none;stroke:#111111;stroke-width:4;stroke-miterlimit:10;}
</style>
<g>
	<g>
		<g>
			<g id="XMLID_52_">
				<g id="XMLID_56_">
					<g id="XMLID_57_">
						<path id="XMLID_58_" class="st0" d="M146.3,112.2l-2,3.4c-0.6,1.1-1.8,1.7-3,1.7h-7.1l1.9-3.3c0.7-1.1,1.9-1.8,3.2-1.8H146.3z
							"/>
					</g>
				</g>
				<path id="XMLID_53_" class="st0" d="M156.4,107H156l0.2-0.3l5.8-10h-23.9c-3.7,0-7.2,2-9.1,5.3l-11.9,20.7h7.1h0.4l-0.2,0.3
					l-5.8,10h23.8c3.8,0,7.2-2,9.1-5.2l11.9-20.7H156.4z M148.9,126c-1.3,2.3-3.8,3.7-6.5,3.7h-18h-0.4l0.2-0.3l3.9-6.7l0.1-0.1h0.1
					h16c1.6,0,3.2-0.9,4-2.3l4.5-7.8h-3.6l-2.9,5c-0.7,1.2-2,2-3.5,2H123h-0.4l0.2-0.3l9-15.6c1.3-2.3,3.8-3.7,6.5-3.7h18h0.4
					l-0.2,0.3l-3.9,6.7l-0.1,0.1h-0.1h-15.5c-1.9,0-3.7,1-4.7,2.7l-4.3,7.5h3.6l2.7-4.6c0.9-1.5,2.4-2.4,4.1-2.4h12h4.2h3.3h0.4
					l-0.2,0.3L148.9,126z"/>
			</g>
		</g>
		<g>
			<text id="XMLID_32_" transform="matrix(1 0 0 1 324.4609 133.3945)" class="st0 st1 st2">SPORT</text>
		</g>
		<g>
			<g>
				<text id="XMLID_29_" transform="matrix(1 0 0 1 165.2837 132.9038)" class="st0 st3 st2">Token</text>
			</g>
			<polygon class="st0" points="173.2,96.8 170,102.8 177,102.8 			"/>
		</g>
	</g>
	<path class="st4" d="M454.8,169.2H78l29.4-84.3c5-14.4,18.6-24,33.8-24h375.9l-27.4,83.1C484.7,159,470.6,169.2,454.8,169.2z"/>
</g>
</svg>
