<?xml version="1.0" encoding="utf-8"?>
<!-- Generator: Adobe Illustrator 19.0.0, SVG Export Plug-In . SVG Version: 6.00 Build 0)  -->
<svg version="1.1" id="Capa_1" xmlns="http://www.w3.org/2000/svg" xmlns:xlink="http://www.w3.org/1999/xlink" x="0px" y="0px"
	 viewBox="0 0 438.9 451" style="enable-background:new 0 0 438.9 451;" xml:space="preserve">
<style type="text/css">
	.st0{display:none;}
	.st1{display:inline;}
	.st2{fill:#111111;}
	.st3{font-family:'Binaria-MediumItalic';}
	.st4{font-size:50.159px;}
	.st5{font-family:'Binaria-BlackItalic';}
	.st6{display:inline;fill:none;stroke:#111111;stroke-width:4;stroke-miterlimit:10;}
	.st7{fill:#FFFFFF;}
	.st8{fill:none;}
	.st9{fill:#D9DB23;}
	.st10{display:inline;fill:#FFFFFF;}
	.st11{font-size:71.6306px;}
	.st12{fill:url(#XMLID_77_);}
	.st13{opacity:0.45;fill:url(#XMLID_81_);}
	.st14{opacity:0.45;fill:url(#XMLID_83_);}
	.st15{font-size:92.0051px;}
	.st16{font-family:'Binaria-BoldItalic';}
	.st17{font-size:63.6186px;}
	.st18{fill:url(#XMLID_84_);}
	.st19{opacity:0.45;fill:url(#XMLID_87_);}
	.st20{opacity:0.45;fill:url(#XMLID_88_);}
</style>
<g id="XMLID_11_" class="st0">
	<g id="XMLID_16_" class="st1">
		<g id="XMLID_38_">
			<g id="XMLID_52_">
				<g id="XMLID_56_">
					<g id="XMLID_57_">
						<path id="XMLID_58_" class="st2" d="M-95.3,37.6l-2,3.4c-0.6,1.1-1.8,1.7-3,1.7h-7.1l1.9-3.3c0.7-1.1,1.9-1.8,3.2-1.8H-95.3z"
							/>
					</g>
				</g>
				<path id="XMLID_53_" class="st2" d="M-85.1,32.4h-0.4l0.2-0.3l5.8-10h-23.9c-3.7,0-7.2,2-9.1,5.3L-124.5,48h7.1h0.4l-0.2,0.3
					l-5.8,10h23.8c3.8,0,7.2-2,9.1-5.2L-78,32.4H-85.1z M-92.7,51.5c-1.3,2.3-3.8,3.7-6.5,3.7h-18h-0.4l0.2-0.3l3.9-6.7l0.1-0.1h0.1
					h16c1.6,0,3.2-0.9,4-2.3l4.5-7.8h-3.6l-2.9,5c-0.7,1.2-2,2-3.5,2h-19.9h-0.4l0.2-0.3l9-15.6c1.3-2.3,3.8-3.7,6.5-3.7h18h0.4
					l-0.2,0.3l-3.9,6.7l-0.1,0.1h-0.1h-15.5c-1.9,0-3.7,1-4.7,2.7l-4.3,7.5h3.6l2.7-4.6c0.9-1.5,2.4-2.4,4.1-2.4h12h4.2h3.3h0.4
					l-0.2,0.3L-92.7,51.5z"/>
			</g>
		</g>
		<g id="XMLID_33_">
			<text id="XMLID_127_" transform="matrix(1 0 0 1 82.8874 58.802)" class="st2 st3 st4">SPORT</text>
		</g>
		<g id="XMLID_18_">
			<g id="XMLID_26_">
				<text id="XMLID_122_" transform="matrix(1 0 0 1 -76.2898 58.3112)" class="st2 st5 st4">Token</text>
			</g>
			<polygon id="XMLID_19_" class="st2" points="-68.4,22.2 -71.6,28.2 -64.6,28.2 			"/>
		</g>
	</g>
	<path id="XMLID_13_" class="st6" d="M213.2,94.6h-376.8l29.4-84.3c5-14.4,18.6-24,33.8-24h375.9l-27.4,83.1
		C243.1,84.4,229.1,94.6,213.2,94.6z"/>
</g>
<g id="XMLID_23_" class="st0">
	<g id="XMLID_35_" class="st1">
		<g id="XMLID_48_">
			<g id="XMLID_39_">
				<path id="XMLID_40_" class="st7" d="M17.2,224.1l-2.8,4.9c-0.9,1.5-2.5,2.5-4.3,2.5H-0.1l2.7-4.8c0.9-1.6,2.7-2.6,4.6-2.6H17.2z
					"/>
			</g>
		</g>
		<path id="XMLID_47_" class="st8" d="M28.7,221.5h-6H5.6c-2.3,0-4.5,1.2-5.6,3.2l-3.9,6.8h-6l6.4-11.1c1.4-2.5,4.1-4,7-4h22.2
			l5.6-9.6H5.6c-3.7,0-7.1,2-8.9,5.2l-12.8,22.2h28.5c1.9,0,3.7-1,4.7-2.7l4.2-7.3h6l-6.7,11.7c-1.2,2.1-3.5,3.5-6,3.5H-8.4
			l-5.6,9.6h25.6c3.7,0,7.1-2,8.9-5.2h0l12.8-22.2H28.7z"/>
		<path id="XMLID_37_" class="st9" d="M31.7,216.7h-0.6l0.3-0.5l8.2-14.3H5.6c-5.3,0-10.3,2.9-13,7.5l-17,29.5h10.1h0.6l-0.3,0.5
			l-8.2,14.3h34.1c5.4,0,10.3-2.9,13-7.5l17-29.5H31.7z M20.9,243.9c-1.9,3.3-5.4,5.3-9.2,5.3h-25.6h-0.6l0.3-0.5l5.6-9.6l0.1-0.2
			h0.2h22.8c2.4,0,4.5-1.3,5.7-3.3l6.4-11.2h-5.2l-4.1,7.1c-1,1.8-2.9,2.9-5,2.9h-28.5h-0.6l0.3-0.5l12.8-22.2
			c1.9-3.3,5.4-5.3,9.2-5.3h25.6h0.6l-0.3,0.5l-5.6,9.6l-0.1,0.2h-0.2H3.5c-2.7,0-5.3,1.5-6.7,3.9l-6.2,10.7h5.2l3.8-6.6
			c1.2-2.1,3.5-3.4,5.9-3.4h17.1h6h4.7H34l-0.3,0.5L20.9,243.9z"/>
	</g>
	<text id="XMLID_32_" transform="matrix(1 0 0 1 44.3277 253.7163)" class="st10 st5 st11">Token</text>
	<g id="XMLID_28_" class="st1">
		<text id="XMLID_129_" transform="matrix(1 0 0 1 271.6441 254.4165)" class="st9 st3 st11">SPORT</text>
	</g>
	<polygon id="XMLID_27_" class="st10" points="55.6,202.1 51,210.7 61.1,210.7 	"/>
</g>
<g id="XMLID_29_" class="st0">
	<g id="XMLID_45_" class="st1">
		<g id="XMLID_76_">
			<g id="XMLID_78_">
				<linearGradient id="XMLID_77_" gradientUnits="userSpaceOnUse" x1="74.7614" y1="213.1133" x2="45.6407" y2="296.8353">
					<stop  offset="0" style="stop-color:#FFFFFF"/>
					<stop  offset="1" style="stop-color:#777778"/>
				</linearGradient>
				<path id="XMLID_79_" class="st12" d="M93,215.9l-7.4,12.8c-2.3,4-6.5,6.4-11.1,6.4H47.9l7.2-12.4c2.4-4.2,7-6.9,11.9-6.9H93z"/>
			</g>
		</g>
		<path id="XMLID_74_" class="st8" d="M123,209.1h-15.5H62.9c-6,0-11.6,3.2-14.7,8.5l-10.2,17.6H22.6l16.8-29
			c3.7-6.5,10.7-10.5,18.1-10.5h57.8l14.5-25.1H63c-9.6,0-18.5,5.1-23.2,13.4L6.3,241.9h74.1c5,0,9.7-2.7,12.2-7l10.9-18.9h15.5
			l-17.5,30.4c-3.2,5.6-9.2,9-15.6,9H26.5L12,280.4h66.8c9.6,0,18.5-5.1,23.2-13.4h0l33.4-57.9H123z"/>
		<path id="XMLID_62_" class="st9" d="M130.8,196.5h-1.5l0.7-1.3l21.4-37.1H62.8c-13.9,0-26.9,7.5-33.9,19.6l-44.3,76.8h26.3h1.5
			l-0.7,1.3l-21.4,37.1h88.7c14,0,26.9-7.5,33.9-19.5l44.4-76.9H130.8z M102.7,267.4c-4.9,8.5-14.1,13.9-24,13.9H12h-1.5l0.7-1.3
			l14.5-25.1l0.2-0.4h0.5h59.5c6.1,0,11.8-3.3,14.9-8.6l16.7-29.1H104l-10.6,18.5c-2.6,4.6-7.6,7.5-12.9,7.5H6.3H4.8l0.7-1.3
			L39,183.6c4.9-8.5,14.1-13.9,24-13.9h66.8h1.5l-0.7,1.3L116,196.1l-0.2,0.4h-0.5H57.4c-7.1,0-13.8,3.8-17.4,10l-16,27.7h13.5
			l9.9-17.2c3.2-5.5,9.1-8.9,15.4-8.9h44.6H123h12.4h1.5l-0.7,1.3L102.7,267.4z"/>
		<linearGradient id="XMLID_81_" gradientUnits="userSpaceOnUse" x1="6.3852" y1="280.1376" x2="18.5083" y2="250.5253">
			<stop  offset="0" style="stop-color:#FFFFFF"/>
			<stop  offset="0.9955" style="stop-color:#010202"/>
		</linearGradient>
		<polygon id="XMLID_49_" class="st13" points="-3.2,281.2 12.3,254.4 26,254.4 10.5,281.2 		"/>
		<linearGradient id="XMLID_83_" gradientUnits="userSpaceOnUse" x1="98.0423" y1="242.4108" x2="110.1654" y2="212.7986">
			<stop  offset="0" style="stop-color:#FFFFFF"/>
			<stop  offset="0.9955" style="stop-color:#010202"/>
		</linearGradient>
		<polygon id="XMLID_46_" class="st14" points="88.5,243.5 104,216.7 117.7,216.7 102.2,243.5 		"/>
	</g>
	<text id="XMLID_43_" transform="matrix(1 0 0 1 158.7783 224.629)" class="st10 st5 st15">Token</text>
	<g id="XMLID_30_" class="st1">
		<text id="XMLID_130_" transform="matrix(1 0 0 1 158.7783 292.878)" class="st9 st16 st17">SPORT</text>
	</g>
</g>
<g id="XMLID_91_">
	<text id="XMLID_111_" transform="matrix(1 0 0 1 67.1639 324.6378)" class="st7 st5 st15">Token</text>
	<g id="XMLID_108_">
		<text id="XMLID_131_" transform="matrix(1 0 0 1 108.1999 392.8869)" class="st9 st16 st17">SPORT</text>
	</g>
	<g id="XMLID_98_">
		<g id="XMLID_106_">
			<linearGradient id="XMLID_84_" gradientUnits="userSpaceOnUse" x1="245.8323" y1="121.9934" x2="212.0072" y2="219.2404">
				<stop  offset="0" style="stop-color:#FFFFFF"/>
				<stop  offset="1" style="stop-color:#777778"/>
			</linearGradient>
			<path id="XMLID_107_" class="st18" d="M267,125.2l-8.5,14.9c-2.7,4.6-7.6,7.5-12.9,7.5h-30.9l8.3-14.4c2.8-4.9,8.1-8,13.8-8H267z
				"/>
		</g>
	</g>
	<path id="XMLID_97_" class="st8" d="M301.9,117.3h-18h-51.8c-7,0-13.5,3.8-17,9.8l-11.8,20.4h-18l19.5-33.7
		c4.3-7.5,12.4-12.2,21.1-12.2h67.1l16.8-29.1h-77.5c-11.1,0-21.4,6-27,15.6l-38.8,67.2h86.1c5.8,0,11.2-3.1,14.1-8.2l12.7-22h18.1
		L277,160.5c-3.7,6.5-10.7,10.5-18.2,10.5h-69.1l-16.8,29.1h77.5c11.1,0,21.4-6,27-15.6h0l38.8-67.2H301.9z"/>
	<path id="XMLID_94_" class="st9" d="M310.9,102.7h-1.7l0.9-1.5L335,58.1h-103c-16.2,0-31.2,8.7-39.3,22.7L141.1,170h30.6h1.7
		l-0.9,1.5l-24.9,43.1h103c16.2,0,31.3-8.7,39.3-22.6l51.5-89.3H310.9z M278.3,185c-5.7,9.9-16.4,16.1-27.9,16.1h-77.5h-1.7l0.9-1.5
		l16.8-29.1l0.3-0.5h0.6h69.1c7.1,0,13.7-3.8,17.3-10l19.4-33.8h-15.7l-12.4,21.5c-3.1,5.3-8.8,8.7-15,8.7h-86.1h-1.7l0.9-1.5
		l38.8-67.2c5.7-9.9,16.4-16.1,27.9-16.1h77.5h1.7l-0.9,1.5l-16.8,29.1l-0.3,0.5h-0.6h-67.1c-8.3,0-16,4.5-20.2,11.7l-18.6,32.2
		h15.7l11.5-19.9c3.7-6.4,10.5-10.3,17.9-10.3h51.8h18h14.4h1.7l-0.9,1.5L278.3,185z"/>
	<linearGradient id="XMLID_87_" gradientUnits="userSpaceOnUse" x1="166.4102" y1="199.8453" x2="180.4918" y2="165.4493">
		<stop  offset="0" style="stop-color:#FFFFFF"/>
		<stop  offset="0.9955" style="stop-color:#010202"/>
	</linearGradient>
	<polygon id="XMLID_93_" class="st19" points="155.3,201.1 173.3,170 189.2,170 171.2,201.1 	"/>
	<linearGradient id="XMLID_88_" gradientUnits="userSpaceOnUse" x1="272.8742" y1="156.0239" x2="286.9558" y2="121.6279">
		<stop  offset="0" style="stop-color:#FFFFFF"/>
		<stop  offset="0.9955" style="stop-color:#010202"/>
	</linearGradient>
	<polygon id="XMLID_92_" class="st20" points="261.8,157.3 279.8,126.2 295.7,126.2 277.6,157.3 	"/>
</g>
</svg>
