<?xml version="1.0" encoding="utf-8"?>
<!-- Generator: Adobe Illustrator 19.0.0, SVG Export Plug-In . SVG Version: 6.00 Build 0)  -->
<svg version="1.1" id="Capa_1" xmlns="http://www.w3.org/2000/svg" xmlns:xlink="http://www.w3.org/1999/xlink" x="0px" y="0px"
	 viewBox="0 0 595.3 229.9" style="enable-background:new 0 0 595.3 229.9;" xml:space="preserve">
<style type="text/css">
	.st0{display:none;}
	.st1{display:inline;}
	.st2{fill:#111111;}
	.st3{display:inline;fill:none;stroke:#111111;stroke-width:4;stroke-miterlimit:10;}
	.st4{fill:#FFFFFF;}
	.st5{fill:none;}
	.st6{fill:#D9DB23;}
	.st7{font-family:'Binaria-BlackItalic';}
	.st8{font-size:71.6306px;}
	.st9{font-family:'Binaria-MediumItalic';}
</style>
<g id="XMLID_11_" class="st0">
	<g id="XMLID_16_" class="st1">
		<g id="XMLID_38_">
			<g id="XMLID_52_">
				<g id="XMLID_56_">
					<g id="XMLID_57_">
						<path id="XMLID_58_" class="st2" d="M-17.1-72.9l-2,3.4c-0.6,1.1-1.8,1.7-3,1.7h-7.1l1.9-3.3c0.7-1.1,1.9-1.8,3.2-1.8H-17.1z"
							/>
					</g>
				</g>
				<path id="XMLID_53_" class="st2" d="M-6.9-78.1h-0.4l0.2-0.3l5.8-10h-23.9c-3.7,0-7.2,2-9.1,5.3l-11.9,20.7h7.1h0.4l-0.2,0.3
					l-5.8,10h23.8c3.8,0,7.2-2,9.1-5.2L0.2-78.1H-6.9z M-14.5-59.1c-1.3,2.3-3.8,3.7-6.5,3.7h-18h-0.4l0.2-0.3l3.9-6.7l0.1-0.1h0.1
					h16c1.6,0,3.2-0.9,4-2.3l4.5-7.8h-3.6l-2.9,5c-0.7,1.2-2,2-3.5,2h-19.9h-0.4l0.2-0.3l9-15.6c1.3-2.3,3.8-3.7,6.5-3.7h18h0.4
					L-7-85l-3.9,6.7l-0.1,0.1h-0.1h-15.5c-1.9,0-3.7,1-4.7,2.7l-4.3,7.5h3.6l2.7-4.6c0.9-1.5,2.4-2.4,4.1-2.4h12H-9h3.3h0.4
					l-0.2,0.3L-14.5-59.1z"/>
			</g>
		</g>
		<g id="XMLID_33_">
			<text id="XMLID_71_" transform="matrix(1 0 0 1 161.0879 -51.7375)" class="st2 st9" style="font-size:50.159px;">SPORT</text>
		</g>
		<g id="XMLID_18_">
			<g id="XMLID_26_">
				<text id="XMLID_67_" transform="matrix(1 0 0 1 1.9107 -52.2283)" class="st2 st7" style="font-size:50.159px;">Token</text>
			</g>
			<polygon id="XMLID_19_" class="st2" points="9.8,-88.4 6.6,-82.3 13.6,-82.3 			"/>
		</g>
	</g>
	<path id="XMLID_13_" class="st3" d="M291.4-16H-85.4l29.4-84.3c5-14.4,18.6-24,33.8-24h375.9l-27.4,83.1
		C321.3-26.1,307.3-16,291.4-16z"/>
</g>
<g id="XMLID_23_">
	<g id="XMLID_35_">
		<g id="XMLID_48_">
			<g id="XMLID_39_">
				<path id="XMLID_40_" class="st4" d="M95.4,113.6l-2.8,4.9c-0.9,1.5-2.5,2.5-4.3,2.5H78.1l2.7-4.8c0.9-1.6,2.7-2.6,4.6-2.6H95.4z
					"/>
			</g>
		</g>
		<path id="XMLID_47_" class="st5" d="M106.9,111h-6H83.8c-2.3,0-4.5,1.2-5.6,3.2l-3.9,6.8h-6l6.4-11.1c1.4-2.5,4.1-4,7-4h22.2
			l5.6-9.6H83.8c-3.7,0-7.1,2-8.9,5.2l-12.8,22.2h28.5c1.9,0,3.7-1,4.7-2.7l4.2-7.3h6l-6.7,11.7c-1.2,2.1-3.5,3.5-6,3.5H69.8
			l-5.6,9.6h25.6c3.7,0,7.1-2,8.9-5.2h0l12.8-22.2H106.9z"/>
		<path id="XMLID_37_" class="st6" d="M109.9,106.2h-0.6l0.3-0.5l8.2-14.3H83.8c-5.3,0-10.3,2.9-13,7.5l-17,29.5h10.1h0.6l-0.3,0.5
			l-8.2,14.3H90c5.4,0,10.3-2.9,13-7.5l17-29.5H109.9z M99.1,133.4c-1.9,3.3-5.4,5.3-9.2,5.3H64.3h-0.6l0.3-0.5l5.6-9.6l0.1-0.2h0.2
			h22.8c2.4,0,4.5-1.3,5.7-3.3l6.4-11.2h-5.2l-4.1,7.1c-1,1.8-2.9,2.9-5,2.9H62.1h-0.6l0.3-0.5l12.8-22.2c1.9-3.3,5.4-5.3,9.2-5.3
			h25.6h0.6l-0.3,0.5l-5.6,9.6l-0.1,0.2h-0.2H81.7c-2.7,0-5.3,1.5-6.7,3.9l-6.2,10.7h5.2l3.8-6.6c1.2-2.1,3.5-3.4,5.9-3.4H101h6h4.7
			h0.6l-0.3,0.5L99.1,133.4z"/>
	</g>
	<text id="XMLID_32_" transform="matrix(1 0 0 1 122.5282 143.1768)" class="st4 st7 st8">Token</text>
	<g id="XMLID_28_">
		<text id="XMLID_72_" transform="matrix(1 0 0 1 349.8446 143.877)" class="st6 st9 st8">SPORT</text>
	</g>
	<polygon id="XMLID_27_" class="st4" points="133.8,91.6 129.2,100.2 139.3,100.2 	"/>
</g>
</svg>
