<?xml version="1.0" encoding="utf-8"?>
<!-- Generator: Adobe Illustrator 16.0.0, SVG Export Plug-In . SVG Version: 6.00 Build 0)  -->
<!DOCTYPE svg PUBLIC "-//W3C//DTD SVG 1.1//EN" "http://www.w3.org/Graphics/SVG/1.1/DTD/svg11.dtd">
<svg version="1.1" id="Capa_1" xmlns="http://www.w3.org/2000/svg" xmlns:xlink="http://www.w3.org/1999/xlink" x="0px" y="0px"
	   viewBox="0 0 792 612" enable-background="new 0 0 792 612" xml:space="preserve">
<g>
	<defs>
		<path id="SVGID_1_" d="M342.331,323.608c-3.351,1.464-7.19,2.303-11.516,2.512v1.151c4.466-0.209,8.462-1.063,11.987-2.565
			c3.525-1.5,6.858-3.822,9.998-6.962l-0.837-0.837C348.892,319.908,345.683,322.141,342.331,323.608 M316.995,268.223
			c-2.932,1.395-5.497,3.227-7.697,5.496c-2.198,2.268-3.96,4.919-5.286,7.957c-1.327,3.035-2.129,6.299-2.409,9.788
			c-0.069,0.42-0.103,0.838-0.103,1.257v1.151v0.106c0,3.839,0.662,7.468,1.987,10.888c1.326,3.42,3.211,6.422,5.655,9.004
			c2.513,2.654,5.426,4.694,8.742,6.125c3.315,1.43,6.858,2.146,10.628,2.146c2.79,0,5.355-0.296,7.695-0.89
			c2.338-0.592,4.465-1.377,6.386-2.356c1.919-0.977,3.612-2.041,5.077-3.192c1.467-1.151,2.758-2.32,3.874-3.507l6.283,6.386
			c-4.188,4.397-8.552,7.557-13.088,9.475c-4.537,1.921-9.878,2.879-16.019,2.879c-5.024,0-9.702-0.889-14.029-2.67
			c-4.329-1.777-8.132-4.222-11.413-7.327c-3.281-3.104-5.915-6.787-7.903-11.047c-1.989-4.257-3.126-8.863-3.403-13.82h-1.151
			c0.277,5.166,1.428,9.93,3.454,14.292c2.024,4.361,4.727,8.165,8.114,11.41c3.384,3.246,7.329,5.777,11.831,7.593
			c4.501,1.813,9.334,2.721,14.5,2.721c3.21,0,6.178-0.245,8.901-0.731c2.721-0.488,5.302-1.258,7.748-2.304
			c2.44-1.048,4.779-2.41,7.013-4.084c2.233-1.674,4.466-3.699,6.701-6.073l0.314-0.417l-7.957-7.959l-0.418,0.419
			c-1.048,1.188-2.27,2.375-3.666,3.561c-1.396,1.187-3.035,2.251-4.92,3.193c-1.885,0.941-3.978,1.728-6.282,2.355
			c-2.304,0.628-4.852,0.943-7.642,0.943c-3.702,0-7.12-0.682-10.26-2.043c-3.143-1.361-5.864-3.245-8.168-5.653
			c-2.303-2.408-4.118-5.269-5.444-8.586c-1.326-3.312-1.989-6.891-1.989-10.73v-0.106v-1.099c0-0.382,0.034-0.784,0.105-1.204
			c0.208-3.349,0.959-6.473,2.251-9.37c1.291-2.896,2.999-5.444,5.13-7.643c2.128-2.198,4.589-3.961,7.381-5.288
			c2.79-1.325,5.827-2.127,9.109-2.407l-0.105-1.153C323.102,265.988,319.925,266.827,316.995,268.223 M330.815,266.755
			c6.35,0.28,11.725,2.341,16.123,6.178l0.732-0.837c-2.372-2.024-4.919-3.576-7.642-4.659c-2.722-1.083-5.795-1.692-9.213-1.833
			V266.755z M315.948,262.934c-4.05,1.712-7.558,4.066-10.523,7.068c-2.967,3.002-5.287,6.544-6.963,10.626
			c-1.674,4.083-2.511,8.5-2.511,13.244v0.209c0,4.468,0.765,8.656,2.303,12.564c1.534,3.91,3.664,7.349,6.386,10.313
			c2.722,2.968,5.949,5.359,9.685,7.172c3.732,1.816,7.8,2.863,12.197,3.142l0.105-1.151c-4.188-0.278-8.098-1.291-11.727-3.037
			c-3.63-1.743-6.753-4.047-9.371-6.909c-2.617-2.861-4.675-6.178-6.176-9.946c-1.502-3.77-2.251-7.817-2.251-12.147v-0.209
			c0-4.607,0.802-8.88,2.408-12.824c1.605-3.943,3.838-7.363,6.701-10.26c2.861-2.896,6.246-5.165,10.156-6.806
			c3.907-1.639,8.165-2.462,12.773-2.462c5.025,0,9.508,0.805,13.453,2.41c3.943,1.606,7.695,4.118,11.255,7.536l-5.967,6.911
			c-3.142-2.79-6.196-4.816-9.162-6.072c-2.968-1.257-6.125-1.884-9.474-1.884c-3.073,0-5.934,0.593-8.587,1.779
			c-2.654,1.187-4.955,2.81-6.909,4.869c-1.955,2.06-3.474,4.501-4.554,7.327c-1.084,2.829-1.623,5.917-1.623,9.268v0.208
			c0,3.352,0.539,6.458,1.623,9.318c1.08,2.863,2.599,5.341,4.554,7.434c1.954,2.095,4.255,3.734,6.909,4.921
			c2.653,1.188,5.514,1.78,8.587,1.78c2.093,0,4.012-0.191,5.758-0.576c1.743-0.383,3.384-0.942,4.92-1.675
			c1.535-0.734,3.018-1.641,4.45-2.723c1.429-1.082,2.915-2.318,4.45-3.718l-0.839-0.836c-2.863,2.652-5.705,4.711-8.532,6.177
			c-2.826,1.466-6.23,2.199-10.207,2.199c-2.932,0-5.655-0.575-8.167-1.728c-2.512-1.152-4.678-2.723-6.492-4.711
			c-1.815-1.99-3.245-4.346-4.293-7.067c-1.046-2.723-1.57-5.654-1.57-8.796v-0.208c0-3.142,0.524-6.074,1.57-8.795
			c1.048-2.723,2.478-5.06,4.293-7.015c1.814-1.953,3.98-3.491,6.492-4.607c2.512-1.116,5.235-1.676,8.167-1.676
			c3.278,0,6.368,0.629,9.265,1.885c2.895,1.256,5.879,3.317,8.951,6.178l0.523,0.314l7.016-8.166l0.418-0.419L355,271.048
			c-7.05-7.118-15.671-10.679-25.86-10.679C324.392,260.369,319.994,261.224,315.948,262.934 M314.377,258.327
			c-4.677,1.85-8.795,4.521-12.354,8.009c-3.42,3.422-6.109,7.367-8.062,11.832c-1.955,4.468-3.003,9.213-3.14,14.239h1.151
			c0.209-5.164,1.29-9.929,3.245-14.291c1.953-4.362,4.589-8.131,7.906-11.307c3.313-3.176,7.204-5.655,11.672-7.434
			c4.467-1.78,9.318-2.671,14.554-2.671c6.003,0,11.236,0.875,15.706,2.618c4.465,1.746,8.689,4.572,12.666,8.481l0.734-0.839
			c-3.979-3.977-8.288-6.872-12.931-8.689c-4.641-1.814-10.035-2.722-16.175-2.722C324.044,255.553,319.052,256.479,314.377,258.327
			"/>
	</defs>
	<clipPath id="SVGID_2_">
		<use xlink:href="#SVGID_1_"  overflow="visible"/>
	</clipPath>
	
		<linearGradient id="SVGID_3_" gradientUnits="userSpaceOnUse" x1="0" y1="611.9902" x2="1" y2="611.9902" gradientTransform="matrix(213.7699 115.2498 115.2498 -213.7699 -70231.4063 131105.7188)">
		<stop  offset="0" style="stop-color:#42FFFF"/>
		<stop  offset="0.8834" style="stop-color:#9DFAFA"/>
		<stop  offset="1" style="stop-color:#9DFAFA"/>
	</linearGradient>
	<polygon clip-path="url(#SVGID_2_)" fill="url(#SVGID_3_)" points="306.265,226.908 391.367,272.789 343.954,360.732 
		258.852,314.852 	"/>
</g>
<g>
	<defs>
		<path id="SVGID_4_" d="M393.654,266.127v1.151h15.392c5.931,0,10.484,1.293,13.661,3.874c3.176,2.584,4.764,6.32,4.764,11.204
			v0.314c0,4.606-1.64,8.289-4.92,11.045c-3.281,2.759-7.644,4.136-13.088,4.136h-20.834V266.65h-1.151v32.353h21.985
			c5.864,0,10.523-1.465,13.979-4.397c3.453-2.931,5.182-6.911,5.182-11.936v-0.314c0-5.235-1.675-9.248-5.026-12.04
			c-3.349-2.791-8.202-4.189-14.551-4.189H393.654z"/>
	</defs>
	<clipPath id="SVGID_5_">
		<use xlink:href="#SVGID_4_"  overflow="visible"/>
	</clipPath>
	
		<linearGradient id="SVGID_6_" gradientUnits="userSpaceOnUse" x1="0" y1="612.0117" x2="1" y2="612.0117" gradientTransform="matrix(213.7699 115.2498 115.2498 -213.7699 -70210.4063 131066.8438)">
		<stop  offset="0" style="stop-color:#42FFFF"/>
		<stop  offset="0.8834" style="stop-color:#9DFAFA"/>
		<stop  offset="1" style="stop-color:#9DFAFA"/>
	</linearGradient>
	<polygon clip-path="url(#SVGID_5_)" fill="url(#SVGID_6_)" points="396.744,248.94 442.355,273.531 419.357,316.189 
		373.745,291.599 	"/>
</g>
<g>
	<defs>
		<path id="SVGID_7_" d="M381.823,261.103v69.832h12.355v-23.032h11.936l15.39,23.032h13.925l-17.065-25.126l-0.419,0.106
			c-0.837,0.208-1.694,0.364-2.565,0.469c-0.873,0.106-1.798,0.195-2.773,0.262l-0.944,0.106l13.508,19.997l0.942-0.628
			l-12.46-18.427c0.767-0.069,1.482-0.14,2.146-0.209c0.663-0.069,1.344-0.175,2.041-0.314l15.495,22.615h-11.202l-15.287-22.72
			l-0.209-0.314h-13.611v23.034h-10.051v-67.531h25.966c7.816,0,13.802,1.712,17.954,5.13c4.152,3.422,6.23,8.412,6.23,14.972v0.418
			c0,3.073-0.559,5.829-1.675,8.273c-1.117,2.443-2.705,4.553-4.765,6.333c-2.06,1.781-4.554,3.14-7.485,4.082
			c-2.932,0.944-6.177,1.414-9.737,1.414h-21.985v22.929h1.151v-21.778h20.834c3.771,0,7.188-0.504,10.26-1.517
			c3.072-1.011,5.671-2.442,7.801-4.291c2.13-1.85,3.787-4.085,4.975-6.703c1.185-2.617,1.778-5.531,1.778-8.742v-0.418
			c0-6.91-2.164-12.18-6.492-15.809c-4.327-3.629-10.61-5.444-18.844-5.444H381.823z"/>
	</defs>
	<clipPath id="SVGID_8_">
		<use xlink:href="#SVGID_7_"  overflow="visible"/>
	</clipPath>
	
		<linearGradient id="SVGID_9_" gradientUnits="userSpaceOnUse" x1="0" y1="612.0166" x2="1" y2="612.0166" gradientTransform="matrix(213.7699 115.2498 115.2498 -213.7699 -70216.4063 131078.0313)">
		<stop  offset="0" style="stop-color:#42FFFF"/>
		<stop  offset="0.8834" style="stop-color:#9DFAFA"/>
		<stop  offset="1" style="stop-color:#9DFAFA"/>
	</linearGradient>
	<polygon clip-path="url(#SVGID_8_)" fill="url(#SVGID_9_)" points="393.895,238.711 464.599,276.83 423.356,353.327 
		352.653,315.209 	"/>
</g>
<g>
	<defs>
		<rect id="SVGID_10_" width="792" height="612"/>
	</defs>
	<clipPath id="SVGID_11_">
		<use xlink:href="#SVGID_10_"  overflow="visible"/>
	</clipPath>
	<path clip-path="url(#SVGID_11_)" fill="#FFFF4D" d="M419.462,290.68c2.409-1.99,3.611-4.66,3.611-8.009v-0.211
		c0-3.559-1.169-6.297-3.507-8.218c-2.34-1.918-5.705-2.879-10.104-2.879h-16.437v21.149v0.628v0.524h16.75
		C413.824,293.664,417.055,292.669,419.462,290.68"/>
	<path clip-path="url(#SVGID_11_)" fill="#FFFF4D" d="M394.178,272.514h15.285c1.396,0,2.828,0.142,4.293,0.419
		c1.465,0.28,2.809,0.786,4.03,1.518c1.222,0.733,2.216,1.746,2.984,3.037c0.768,1.292,1.152,2.95,1.152,4.972v0.211
		c0,3.071-1.084,5.48-3.246,7.223c-2.165,1.746-5.13,2.617-8.899,2.617h-15.599V272.514z"/>
</g>
<g>
	<defs>
		<path id="SVGID_12_" d="M377.007,256.915v73.498h1.151v-72.347h32.667c4.187,0,7.972,0.559,11.359,1.676
			c3.385,1.116,6.264,2.72,8.638,4.816c2.372,2.092,4.188,4.625,5.443,7.589c1.257,2.969,1.886,6.301,1.886,9.999v0.21
			c0,5.305-1.311,9.86-3.928,13.662c-2.615,3.805-6.37,6.615-11.255,8.429l-0.629,0.314l17.694,25.966l0.943-0.629l-16.856-24.813
			c4.886-2.024,8.638-4.99,11.256-8.9c2.617-3.908,3.926-8.585,3.926-14.029v-0.21c0-3.769-0.646-7.205-1.937-10.313
			c-1.293-3.104-3.193-5.774-5.707-8.009c-5.165-4.605-12.111-6.909-20.834-6.909H377.007z"/>
	</defs>
	<clipPath id="SVGID_13_">
		<use xlink:href="#SVGID_12_"  overflow="visible"/>
	</clipPath>
	
		<linearGradient id="SVGID_14_" gradientUnits="userSpaceOnUse" x1="0" y1="612.0205" x2="1" y2="612.0205" gradientTransform="matrix(213.7699 115.2498 115.2498 -213.7699 -70215.9063 131076.8438)">
		<stop  offset="0" style="stop-color:#42FFFF"/>
		<stop  offset="0.8834" style="stop-color:#9DFAFA"/>
		<stop  offset="1" style="stop-color:#9DFAFA"/>
	</linearGradient>
	<polygon clip-path="url(#SVGID_13_)" fill="url(#SVGID_14_)" points="391.414,230.193 471.811,273.538 426.571,357.449 
		346.174,314.104 	"/>
</g>
<g>
	<defs>
		<path id="SVGID_15_" d="M458.87,257.543v73.392h12.041v-68.787h-1.152v67.637h-9.736v-72.242H458.87z M463.999,256.915v68.89
			h1.153v-67.739h9.736v72.347h1.152v-73.498H463.999z"/>
	</defs>
	<clipPath id="SVGID_16_">
		<use xlink:href="#SVGID_15_"  overflow="visible"/>
	</clipPath>
	
		<linearGradient id="SVGID_17_" gradientUnits="userSpaceOnUse" x1="0" y1="612" x2="1" y2="612" gradientTransform="matrix(213.7699 115.2498 115.2498 -213.7699 -70200.4063 131048.3438)">
		<stop  offset="0" style="stop-color:#42FFFF"/>
		<stop  offset="0.8834" style="stop-color:#9DFAFA"/>
		<stop  offset="1" style="stop-color:#9DFAFA"/>
	</linearGradient>
	<polygon clip-path="url(#SVGID_16_)" fill="url(#SVGID_17_)" points="462.737,249.742 506.96,273.584 472.174,338.107 
		427.95,314.266 	"/>
</g>
<g>
	<defs>
		<rect id="SVGID_18_" width="792" height="612"/>
	</defs>
	<clipPath id="SVGID_19_">
		<use xlink:href="#SVGID_18_"  overflow="visible"/>
	</clipPath>
	<path clip-path="url(#SVGID_19_)" fill="#A0FFFF" d="M508.545,266.65v33.503h18.531c2.862,0,5.46-0.399,7.8-1.203
		c2.338-0.801,4.347-1.954,6.02-3.455c1.676-1.499,2.984-3.28,3.927-5.339c0.941-2.058,1.414-4.346,1.414-6.858v-0.314
		c0-5.375-1.694-9.528-5.077-12.46c-3.388-2.93-8.22-4.397-14.501-4.397h-11.936v1.151h11.936c5.931,0,10.485,1.362,13.662,4.085
		c3.175,2.721,4.763,6.594,4.763,11.621v0.314c0,4.747-1.639,8.55-4.919,11.411c-3.282,2.863-7.644,4.293-13.088,4.293h-17.38
		V266.65H508.545z"/>
</g>
<g>
	<defs>
		<path id="SVGID_20_" d="M498.074,256.915v73.498h1.152v-72.347h29.211c4.116,0,7.868,0.593,11.255,1.781
			c3.386,1.187,6.265,2.844,8.637,4.972c2.373,2.129,4.204,4.712,5.497,7.748c1.29,3.036,1.937,6.404,1.937,10.103v0.209
			c0,3.839-0.681,7.294-2.041,10.365c-1.359,3.072-3.298,5.69-5.81,7.854c-2.513,2.163-5.55,3.839-9.109,5.024
			c-3.56,1.188-7.539,1.78-11.936,1.78h-12.773v21.883h-10.051v-67.531h22.51c7.747,0,13.714,1.797,17.902,5.392
			s6.283,8.673,6.283,15.233v0.419c0,3.072-0.575,5.882-1.729,8.429c-1.15,2.549-2.758,4.729-4.815,6.542
			c-2.059,1.817-4.538,3.23-7.435,4.241c-2.896,1.013-6.125,1.517-9.684,1.517h-18.531v21.778h1.151V305.18h17.38
			c3.699,0,7.083-0.523,10.156-1.57c3.069-1.047,5.688-2.528,7.851-4.449c2.165-1.919,3.84-4.223,5.027-6.911
			c1.186-2.687,1.778-5.669,1.778-8.952v-0.419c0-6.978-2.197-12.355-6.595-16.124c-4.397-3.768-10.645-5.652-18.741-5.652H502.89
			v69.832h12.355v-21.881h11.622c4.536,0,8.654-0.609,12.354-1.832c3.698-1.221,6.857-2.984,9.475-5.287
			c2.618-2.304,4.642-5.06,6.071-8.271c1.432-3.21,2.147-6.806,2.147-10.785v-0.209c0-3.908-0.68-7.45-2.042-10.626
			c-1.361-3.175-3.282-5.88-5.758-8.114c-2.478-2.233-5.462-3.961-8.951-5.184c-3.49-1.219-7.399-1.831-11.727-1.831H498.074z"/>
	</defs>
	<clipPath id="SVGID_21_">
		<use xlink:href="#SVGID_20_"  overflow="visible"/>
	</clipPath>
	
		<linearGradient id="SVGID_22_" gradientUnits="userSpaceOnUse" x1="0" y1="612.0176" x2="1" y2="612.0176" gradientTransform="matrix(213.7699 115.2498 115.2498 -213.7699 -70188.9063 131027.0938)">
		<stop  offset="0" style="stop-color:#42FFFF"/>
		<stop  offset="0.8834" style="stop-color:#9DFAFA"/>
		<stop  offset="1" style="stop-color:#9DFAFA"/>
	</linearGradient>
	<polygon clip-path="url(#SVGID_21_)" fill="url(#SVGID_22_)" points="511.325,232.336 587.834,273.584 543.664,355.514 
		467.154,314.266 	"/>
</g>
<g>
	<defs>
		<rect id="SVGID_23_" width="792" height="612"/>
	</defs>
	<clipPath id="SVGID_24_">
		<use xlink:href="#SVGID_23_"  overflow="visible"/>
	</clipPath>
	<path clip-path="url(#SVGID_24_)" fill="#004FB6" d="M537.074,274.451c-2.406-2.057-5.741-3.088-9.999-3.088h-12.98v22.301v0.628
		v0.523h13.295c3.979,0,7.188-1.047,9.634-3.14c2.441-2.095,3.663-4.922,3.663-8.482v-0.208
		C540.687,279.356,539.483,276.511,537.074,274.451"/>
</g>
<g>
	<defs>
		<path id="SVGID_25_" d="M563.718,262.148v10.68h22.196v58.106h11.411v-1.149v-57.794h-1.152v57.794h-9.107v-58.108h-22.196v-8.376
			h54.65v-1.153H563.718z M564.346,256.915v1.151h59.782v9.004h-55.177v1.153h22.195v57.582h1.153v-57.582h31.828v3.454h-22.196
			v58.736h1.151v-57.585h22.197v-15.913H564.346z"/>
	</defs>
	<clipPath id="SVGID_26_">
		<use xlink:href="#SVGID_25_"  overflow="visible"/>
	</clipPath>
	
		<linearGradient id="SVGID_27_" gradientUnits="userSpaceOnUse" x1="0" y1="611.9785" x2="1" y2="611.9785" gradientTransform="matrix(218.7232 117.9204 117.9204 -218.7232 -71755.5078 134047.9844)">
		<stop  offset="0" style="stop-color:#42FFFF"/>
		<stop  offset="0.8834" style="stop-color:#9DFAFA"/>
		<stop  offset="1" style="stop-color:#9DFAFA"/>
	</linearGradient>
	<polygon clip-path="url(#SVGID_26_)" fill="url(#SVGID_27_)" points="577.582,231.2 656.199,273.584 611.416,356.65 
		532.799,314.266 	"/>
</g>
<g>
	<defs>
		<path id="SVGID_28_" d="M655.9,258.327c-4.71,1.85-8.813,4.417-12.303,7.695c-3.49,3.282-6.299,7.138-8.428,11.57
			c-2.13,4.434-3.299,9.266-3.508,14.502l1.153,0.103c0.209-5.025,1.342-9.7,3.401-14.029c2.06-4.327,4.78-8.078,8.167-11.254
			c3.384-3.177,7.363-5.671,11.937-7.486c4.568-1.816,9.474-2.724,14.709-2.724c5.443,0,10.469,0.943,15.076,2.829
			c4.606,1.884,8.618,4.467,12.041,7.745c3.418,3.283,6.089,7.191,8.009,11.727c1.919,4.538,2.879,9.423,2.879,14.659v0.208
			c0,5.236-0.979,10.105-2.933,14.606c-1.955,4.502-4.656,8.412-8.113,11.726c-3.454,3.315-7.503,5.934-12.145,7.852
			c-4.644,1.921-9.65,2.879-15.023,2.879c-5.235,0-10.104-0.853-14.606-2.564c-4.502-1.71-8.428-4.116-11.779-7.224
			c-3.35-3.104-6.056-6.771-8.111-10.993c-2.062-4.221-3.23-8.846-3.508-13.871l-1.153,0.103c0.349,4.886,1.518,9.494,3.508,13.82
			c1.989,4.33,4.763,8.167,8.323,11.518c3.559,3.35,7.697,5.914,12.407,7.695c4.711,1.779,9.685,2.669,14.92,2.669
			c5.443,0,10.591-0.961,15.442-2.88c4.852-1.918,9.124-4.692,12.826-8.323c3.628-3.559,6.386-7.659,8.271-12.302
			c1.884-4.64,2.825-9.543,2.825-14.71v-0.208c0-5.444-0.992-10.487-2.981-15.128c-1.99-4.643-4.731-8.657-8.22-12.041
			c-3.491-3.386-7.626-6.055-12.405-8.01c-4.782-1.954-9.965-2.932-15.549-2.932C665.654,255.553,660.611,256.479,655.9,258.327"/>
	</defs>
	<clipPath id="SVGID_29_">
		<use xlink:href="#SVGID_28_"  overflow="visible"/>
	</clipPath>
	
		<linearGradient id="SVGID_30_" gradientUnits="userSpaceOnUse" x1="0" y1="612" x2="1" y2="612" gradientTransform="matrix(248.9607 134.2223 134.2223 -248.9607 -81674.5547 152549.2031)">
		<stop  offset="0" style="stop-color:#42FFFF"/>
		<stop  offset="0.8834" style="stop-color:#9DFAFA"/>
		<stop  offset="1" style="stop-color:#9DFAFA"/>
	</linearGradient>
	<polygon clip-path="url(#SVGID_29_)" fill="url(#SVGID_30_)" points="649.346,222.752 742.154,272.789 692.501,364.888 
		599.692,314.852 	"/>
</g>
<g>
	<defs>
		<path id="SVGID_31_" d="M657.628,262.515c-4.188,1.712-7.888,4.172-11.099,7.382c-3.141,3.141-5.532,6.77-7.172,10.889
			c-1.641,4.119-2.459,8.479-2.459,13.086v0.209c0,4.399,0.748,8.552,2.25,12.461c1.5,3.908,3.717,7.433,6.648,10.574
			c2.932,3.14,6.335,5.618,10.208,7.433c3.875,1.815,8.045,2.863,12.511,3.142l0.104-1.151c-4.397-0.28-8.463-1.291-12.197-3.037
			c-3.733-1.745-6.961-4.064-9.685-6.962c-2.722-2.896-4.853-6.264-6.385-10.104c-1.537-3.837-2.305-7.956-2.305-12.355v-0.209
			c0-4.607,0.855-8.898,2.565-12.877s4.048-7.45,7.016-10.418c2.965-2.966,6.455-5.287,10.469-6.962
			c4.014-1.675,8.323-2.512,12.931-2.512c4.677,0,9.004,0.82,12.983,2.459c3.978,1.642,7.434,3.927,10.365,6.859
			c2.929,2.932,5.233,6.386,6.908,10.365c1.676,3.978,2.513,8.271,2.513,12.878v0.208c0,4.397-0.784,8.534-2.354,12.406
			c-1.573,3.875-3.736,7.278-6.492,10.21c-2.759,2.931-6.04,5.285-9.842,7.066c-3.807,1.779-7.904,2.773-12.304,2.984v1.151
			c4.608-0.209,8.865-1.238,12.774-3.089c3.909-1.849,7.293-4.293,10.155-7.329c2.86-3.035,5.111-6.542,6.753-10.521
			c1.639-3.98,2.462-8.271,2.462-12.879v-0.208c0-4.816-0.857-9.284-2.565-13.402c-1.712-4.118-4.085-7.677-7.12-10.68
			c-3.036-2.998-6.633-5.355-10.784-7.067c-4.153-1.708-8.638-2.565-13.453-2.565C666.282,259.95,661.817,260.807,657.628,262.515"
			/>
	</defs>
	<clipPath id="SVGID_32_">
		<use xlink:href="#SVGID_31_"  overflow="visible"/>
	</clipPath>
	
		<linearGradient id="SVGID_33_" gradientUnits="userSpaceOnUse" x1="0" y1="612" x2="1" y2="612" gradientTransform="matrix(216.5989 116.7751 116.7751 -216.5989 -70970.5938 132757.9063)">
		<stop  offset="0" style="stop-color:#42FFFF"/>
		<stop  offset="0.8834" style="stop-color:#9DFAFA"/>
		<stop  offset="1" style="stop-color:#9DFAFA"/>
	</linearGradient>
	<polygon clip-path="url(#SVGID_32_)" fill="url(#SVGID_33_)" points="652.224,231.522 733.248,275.205 689.626,356.117 
		608.602,312.435 	"/>
</g>
<g>
	<defs>
		<path id="SVGID_34_" d="M672.808,265.813c3.561,0.28,6.859,1.187,9.896,2.724c3.036,1.535,5.688,3.559,7.957,6.072
			c2.267,2.512,4.032,5.409,5.288,8.689c1.256,3.283,1.884,6.806,1.884,10.574v0.209c0,3.979-0.68,7.663-2.042,11.047
			c-1.362,3.387-3.246,6.333-5.653,8.847c-2.408,2.514-5.234,4.469-8.481,5.862c-3.245,1.397-6.788,2.095-10.626,2.095
			c-3.839,0-7.418-0.716-10.732-2.146c-3.314-1.431-6.177-3.404-8.585-5.916c-2.409-2.512-4.293-5.479-5.654-8.899
			c-1.359-3.42-2.041-7.12-2.041-11.099v-0.314c0-3.768,0.611-7.275,1.832-10.521s2.933-6.09,5.13-8.533
			c2.199-2.442,4.799-4.432,7.801-5.967c3.001-1.537,6.28-2.444,9.841-2.724l-0.104-1.15c-3.699,0.279-7.119,1.221-10.26,2.826
			c-3.141,1.607-5.846,3.682-8.114,6.229c-2.269,2.549-4.05,5.513-5.341,8.899c-1.292,3.385-1.936,7.033-1.936,10.94v0.314
			c0,3.979,0.681,7.714,2.042,11.203c1.36,3.491,3.333,6.597,5.916,9.317c2.581,2.862,5.6,5.026,9.057,6.491
			c3.454,1.467,7.17,2.199,11.149,2.199c3.979,0,7.677-0.732,11.099-2.199c3.418-1.465,6.368-3.489,8.846-6.071
			c2.477-2.581,4.432-5.653,5.864-9.212c1.43-3.56,2.146-7.399,2.146-11.519v-0.209c0-3.907-0.664-7.573-1.99-10.993
			c-1.325-3.418-3.158-6.439-5.496-9.057c-2.338-2.617-5.096-4.726-8.271-6.333c-3.177-1.605-6.646-2.547-10.418-2.826V265.813z"/>
	</defs>
	<clipPath id="SVGID_35_">
		<use xlink:href="#SVGID_34_"  overflow="visible"/>
	</clipPath>
	
		<linearGradient id="SVGID_36_" gradientUnits="userSpaceOnUse" x1="0" y1="612" x2="1" y2="612" gradientTransform="matrix(181.2915 97.7398 97.7398 -181.2915 -59292.4961 111165.2344)">
		<stop  offset="0" style="stop-color:#42FFFF"/>
		<stop  offset="0.8834" style="stop-color:#9DFAFA"/>
		<stop  offset="1" style="stop-color:#9DFAFA"/>
	</linearGradient>
	<polygon clip-path="url(#SVGID_35_)" fill="url(#SVGID_36_)" points="655.503,241.222 723.386,277.819 686.345,346.524 
		618.462,309.927 	"/>
</g>
<g>
	<defs>
		<rect id="SVGID_37_" width="792" height="612"/>
	</defs>
	<clipPath id="SVGID_38_">
		<use xlink:href="#SVGID_37_"  overflow="visible"/>
	</clipPath>
	<path clip-path="url(#SVGID_38_)" fill="#FF8B2A" d="M690.084,304.343c-1.187,2.443-2.707,4.536-4.555,6.281
		c-1.849,1.746-4.015,3.106-6.491,4.083c-2.478,0.979-5.147,1.466-8.009,1.466c-3.072,0-5.916-0.574-8.534-1.728
		c-2.616-1.151-4.885-2.721-6.804-4.711c-1.92-1.989-3.422-4.345-4.502-7.067c-1.083-2.722-1.623-5.654-1.623-8.795v-0.208
		c0-3.143,0.54-6.074,1.623-8.796c1.08-2.722,2.564-5.059,4.45-7.014c1.884-1.953,4.117-3.491,6.7-4.607
		c2.58-1.116,5.407-1.676,8.48-1.676c2.932,0,5.653,0.525,8.165,1.571c2.513,1.047,4.713,2.479,6.597,4.293
		c1.885,1.815,3.418,3.979,4.607,6.491c1.172,2.483,1.864,5.207,2.082,8.167h-0.094v4.188
		C691.969,299.211,691.27,301.9,690.084,304.343"/>
</g>
<g>
	<defs>
		<path id="SVGID_39_" d="M106.824,281.541c0-1.592,1.293-2.884,2.883-2.884c1.592,0,2.884,1.292,2.884,2.884
			c0,1.59-1.292,2.883-2.884,2.883C108.117,284.424,106.824,283.131,106.824,281.541 M141.224,208.974v17.957
			c-17.559,3.298-33.596,11.708-46.417,24.355c-13.758,13.572-22.631,30.783-25.663,49.771l-0.809,5.083h59.394l1.116-2.726
			c5.076-12.391,17.032-20.069,30.417-19.525c12.111,0.479,23.104,8.273,28.003,19.857l0.837,1.979l33.242,0.499l-1.282-5.477
			c-6.78-28.947-32.307-49.165-62.079-49.165c-16.809,0-33.225,6.822-45.124,18.733c-1.821-0.517-3.685-0.581-5.542-0.189
			c-4.807,1.007-8.489,4.927-9.159,9.757c-0.522,3.75,0.729,7.405,3.43,10.028c2.703,2.62,6.399,3.753,10.143,3.125
			c4.719-0.802,8.505-4.495,9.417-9.192c0.545-2.805,0.079-5.646-1.312-8.076c10.178-9.797,24.041-15.404,38.147-15.404
			c23.595,0,44.32,14.78,51.946,36.905l-16.083-0.241c-6.907-13.552-20.601-21.947-35.863-21.947
			c-15.429,0-29.185,8.52-36.03,22.276H78.801c7.404-32.577,34.379-57.574,67.441-62.361l3.764-0.545v-25.477
			c0-2.42-1.97-4.391-4.391-4.391C143.194,204.583,141.224,206.554,141.224,208.974"/>
	</defs>
	<clipPath id="SVGID_40_">
		<use xlink:href="#SVGID_39_"  overflow="visible"/>
	</clipPath>
	
		<linearGradient id="SVGID_41_" gradientUnits="userSpaceOnUse" x1="0" y1="612.0244" x2="1" y2="612.0244" gradientTransform="matrix(658.3226 354.9218 354.9218 -658.3226 -217309.625 403038.4375)">
		<stop  offset="0" style="stop-color:#42FFFF"/>
		<stop  offset="0.8834" style="stop-color:#9DFAFA"/>
		<stop  offset="1" style="stop-color:#9DFAFA"/>
	</linearGradient>
	<polygon clip-path="url(#SVGID_40_)" fill="url(#SVGID_41_)" points="102.793,140.668 263.801,227.473 186.886,370.139 
		25.878,283.334 	"/>
</g>
<g>
	<defs>
		<rect id="SVGID_42_" width="792" height="612"/>
	</defs>
	<clipPath id="SVGID_43_">
		<use xlink:href="#SVGID_42_"  overflow="visible"/>
	</clipPath>
	<path clip-path="url(#SVGID_43_)" fill="#004FB6" d="M242.78,285.232c-10.501-29.525-35.914-51.668-66.561-58.009l-0.002-18.249
		c0-2.421-1.97-4.391-4.391-4.391c-2.42,0-4.39,1.97-4.39,4.391l0.001,25.635l3.687,0.601c28.73,4.675,53.533,25.4,63.348,52.874
		c-2.649,2.306-4.14,5.709-4.014,9.22c0.217,6.023,5.295,11.063,11.317,11.233c0.115,0.004,0.229,0.005,0.343,0.005
		c3.051,0,5.925-1.166,8.124-3.303c2.283-2.22,3.54-5.189,3.54-8.362C253.782,290.681,248.899,285.58,242.78,285.232 M245,296.877
		c0,1.591-1.293,2.884-2.884,2.884c-1.59,0-2.883-1.293-2.883-2.884c0-1.591,1.293-2.884,2.883-2.884
		C243.707,293.993,245,295.286,245,296.877"/>
	<path clip-path="url(#SVGID_43_)" fill="#FFFF4D" d="M242.116,321.483c-6.431,0-11.665,5.233-11.665,11.665
		c0,3.488,1.524,6.716,4.203,8.945c-9.7,27.74-34.571,48.658-63.529,53.37l-3.684,0.602l-0.005,25.177c0,2.42,1.97,4.391,4.39,4.391
		c2.421,0,4.391-1.971,4.391-4.391l0.004-17.789c30.941-6.394,56.448-28.797,66.802-58.687c5.985-0.47,10.759-5.56,10.759-11.618
		C253.782,326.717,248.548,321.483,242.116,321.483 M245,333.148c0,1.591-1.293,2.884-2.884,2.884c-1.59,0-2.883-1.293-2.883-2.884
		c0-1.592,1.293-2.885,2.883-2.885C243.707,330.264,245,331.557,245,333.148"/>
	<path clip-path="url(#SVGID_43_)" fill="#FF8B2A" d="M188.775,322.911l-1.063,2.862c-4.677,12.585-16.624,21.041-29.729,21.041
		c-13.312,0-25.24-8.427-29.681-20.971l-1.035-2.927l-58.837-0.006l0.704,5.001c5.4,38.37,34.326,68.76,72.09,75.835v17.495
		c0,2.42,1.97,4.392,4.391,4.392c2.42,0,4.391-1.972,4.391-4.392l-0.002-25.019l-3.762-0.545
		c-34.277-4.964-60.689-30.025-67.555-63.986l42.503,0.007c6.463,14.536,20.842,23.896,36.793,23.896
		c15.725,0,30.098-9.362,36.774-23.903h15.727c-7.099,22.796-28.523,38.62-52.501,38.62c-13.951,0-27.188-5.194-37.353-14.641
		c0.818-1.623,1.248-3.417,1.248-5.227c0-6.431-5.234-11.665-11.666-11.665c-6.431,0-11.665,5.234-11.665,11.665
		c0,6.432,5.234,11.665,11.665,11.665c1.285,0,2.554-0.214,3.781-0.637c11.887,11.365,27.487,17.62,43.99,17.62
		c30.155,0,56.423-21.41,62.461-50.91l1.078-5.272H188.775z M113.096,350.445c0,1.591-1.293,2.884-2.884,2.884
		c-1.59,0-2.883-1.293-2.883-2.884s1.293-2.884,2.883-2.884C111.803,347.562,113.096,348.854,113.096,350.445"/>
	<path clip-path="url(#SVGID_43_)" fill="#FFFFFF" d="M434.298,378.056c-0.421,0.421-0.721,0.961-1.442,0.961
		c-0.54,0.062-1.081,0.062-1.621,0.062c-0.722,0.059-1.502,0.059-2.283,0.12c-0.181,0-0.36,0.119-0.602,0.18
		c-0.479,0.361,2.344,0.18,1.743,0.601c-0.781,0-1.622,0-2.403,0.061c-4.145,0.359-8.29,0.961-12.436,1.382
		c-0.18,0-0.3,0-0.48,0.059c-1.742,0.362-3.484,0.781-5.227,1.202c-0.961,0.782-2.042,0.54-3.123,0.721
		c-0.842,0.182-1.742,0.24-2.523,0.481c-2.163,0.661-4.386,0.901-6.608,1.321c-0.54,0.06-1.142,0-1.742,0
		c-0.721,0-1.382,0-2.103,0.24c-1.141,0.36-0.721,0.181-1.982-0.061c-0.54-0.661-2.764-1.622-1.201-3.124
		c2.042-0.66,3.544-1.381,4.685-2.583c0.481-1.982,0.36-3.063,0.661-5.166c0-0.18,0.06-4.145,0.06-4.145
		c0.12-0.36,0.12-0.661,0.181-1.081c0.24-1.622,0.419-3.306,0.6-4.986c0.061-0.481,0-1.022,0-1.682c0,0-0.061-2.765,0-2.885
		c0.181-0.66,0.36-1.141,0.421-1.682c0.24-1.381,0.48-3.364,0.66-4.806c0.181-1.022,0.24-2.104,0.421-3.185
		c0.12-0.479,0.3-1.923,0.48-2.402c0,0-0.181-2.042-0.181-2.703c0.12-0.24,0.241-0.361,0.301-0.541
		c0.541-1.563,0.48-2.403,0.841-3.965c0.181-0.9,0.301-1.862,0.421-2.764c0.18-1.021-0.961-1.981-0.841-2.884
		c0.66-1.802,3.424-0.3,3.424-0.3c0.36,0.36,0.48,0.541,0.601,0.661c0.421,0.301,0.661,0.661,0.781,1.141
		c0.48,2.583,0.06,4.385-0.12,6.969c0,0-0.061,0.061-0.061,0.12c-0.12,0.602-0.48,3.965-0.48,3.965
		c-0.18,0.78-0.42,2.644-0.48,3.425c-0.121,0.721-0.06,1.502-0.06,2.223c0.06,1.862-0.36,4.265-0.781,6.128
		c0.24,0.419,0.06,3.183,0.06,3.183c-0.48,2.583-1.441,5.047-1.201,7.629c0,0-0.18,0.603-0.24,1.022
		c0,1.501-0.961,6.127-0.721,7.689c0.42-0.061,0.841-0.061,1.262-0.12c2.402-0.481,6.607-0.66,9.011-1.081
		c3.664-0.661,7.329-1.022,10.993-1.201c1.622-0.062,3.244-0.181,4.866-0.241c1.502-0.06,3.004-0.06,4.506,0.241
		c1.021,0.179,1.922,0.54,3.004,0.42c0.36-0.06,0.721,0.18,1.021,0.24C434.598,377.336,434.598,377.695,434.298,378.056
		 M393.447,381.781v-0.12l-0.059,0.12H393.447z M394.168,382.861l-0.24-0.06v0.121L394.168,382.861z M400.597,381.601
		c-1.742,0.181-2.523,0.66-2.584,1.381c0,0.062,0,0.062-0.06,0.062c-0.901-0.182-1.321,0.059-1.862,0.421
		c1.142,0.179,1.321-0.242,1.862-0.421h0.06v-0.062C398.914,382.622,400.235,382.441,400.597,381.601 M396.992,370.307
		c0.06,0,0.12,0.061,0.24,0.061l0.36-1.081c0-0.062-0.061-0.12-0.061-0.182c-0.06,0-0.18,0.062-0.18,0.12
		C397.232,369.586,397.112,369.945,396.992,370.307 M397.833,365.86c0.721-1.802,0.721-1.802,0.48-2.223
		C397.772,365.081,397.772,365.081,397.833,365.86 M398.313,362.378c0,0.179,0.12,0.24,0.24,0.42
		c0.661-0.902,0.601-1.743,0.721-2.524c0.12-0.899,0.181-4.744,0.421-5.586c0.42-1.502,0.3-2.823,0.54-4.265
		c0-0.181-0.18-0.361-0.36-0.601c-0.78,3.123-0.841,9.011-1.562,12.015C398.253,362.016,398.253,362.197,398.313,362.378
		 M398.554,370.066c0.301-1.021,0.48-1.562,0.661-2.162C398.794,368.444,398.614,369.046,398.554,370.066 M400.356,363.579
		c-0.361,0.9-0.661,1.44-0.541,2.042C400.235,365.02,400.477,364.479,400.356,363.579 M399.995,342.432l0.12-0.12h-0.12V342.432z
		 M400.176,362.136c0.12-0.24,0.181-0.479,0.301-0.72h-0.061C400.356,361.656,400.235,361.896,400.176,362.136 M400.896,355.348
		l0.12,0.062v-0.182L400.896,355.348z M416.516,379.558c-1.502-0.359-2.764,0-3.965,0.12c-1.321,0.121-2.583,0.361-3.904,0.421
		c-2.343,0.061-4.325,0.602-6.488,0.841c-0.301,0-0.421,0.24-0.781,0.481c4.866-0.241,9.132-1.081,13.697-1.322
		c0.3-0.06,0.661-0.12,0.9-0.18C416.155,379.858,416.275,379.739,416.516,379.558 M409.007,378.597l0.24,0.061l0.06-0.061H409.007z
		 M413.933,378.177c0.36,0,0.721,0,1.081,0.06v-0.06c-0.36,0-0.721-0.06-1.081-0.06V378.177z M417.116,377.515
		c1.442,0.12,2.343,0.242,3.244-0.12C419.279,377.216,418.378,377.155,417.116,377.515 M421.201,379.258
		c-2.823-0.121-2.823-0.121-3.424,0.24C420.061,379.558,420.061,379.558,421.201,379.258 M427.209,377.216
		c-1.562,0.059-2.463,0.059-3.304,0.059C424.806,377.456,425.647,377.515,427.209,377.216 M428.05,378.417h-1.742
		c-0.06,0-0.18,0.06-0.18,0.12c0,0,0.12,0.12,0.18,0.12h1.683C428.05,378.597,428.05,378.477,428.05,378.417 M426.788,379.739
		c-0.06-0.121-0.12-0.241-0.18-0.241c-0.12,0-0.24,0.06-0.421,0.12c0.061,0.06,0.12,0.181,0.181,0.181
		C426.488,379.799,426.608,379.739,426.788,379.739"/>
	<path clip-path="url(#SVGID_43_)" fill="#FFFFFF" d="M422.763,353.546c0.36,0.061,0.721,0.061,1.081,0.12
		c1.262,0.241,1.562,0.661,1.502,1.983c0,0.42-0.061,0.899,0,1.32c0.06,0.661,0.3,1.383,0.24,2.043
		c-0.061,0.602-0.421,1.201-0.541,1.803c-0.24,1.141-0.36,2.343-0.66,3.424c-0.361,1.441,0,1.862,0.18,3.304
		c0,0.12,0,0.241,0.061,0.3c0.3,1.563,1.201,1.983,2.522,1.143c1.502-0.961,2.163-1.563,3.364-2.823
		c0.961-1.082,1.923-1.863,2.823-3.064c0.301-0.421,0.66-0.842,0.962-1.262c0.239-0.24,0.36-0.541,0.66-0.72
		c0.901-0.962,0.721-1.022,1.742-1.983c0.061-0.06,0.661-0.661,0.781-0.721c0.961-0.541,1.141,0.481,0.961,0.781
		c-0.24,0.479-1.142,1.682-1.562,2.102c-0.841,0.782-0.961,1.382-1.563,1.983c-1.081,1.261-2.583,2.463-3.544,3.905
		c-1.021,1.562-2.583,2.463-3.965,3.604c-0.541,0.42-1.201,0.661-1.862,0.961c-1.682,0.782-3.184,0.361-4.686-0.541
		c-0.36-0.24-0.661-0.54-0.781-1.02c-0.301-1.202-1.081-2.283-1.081-3.605c-0.181,0.061-0.361,0.121-0.361,0.18
		c-0.9,1.862-2.402,2.885-4.444,3.244c-0.481,0.12-1.021,0.24-1.563,0.361c-2.103,0.42-4.325-1.262-4.866-2.884
		c-0.18-0.42-0.42-0.841-0.66-1.262c-0.36-0.842-0.541-1.741-0.541-2.644c0-0.72-0.181-1.442,0-2.102
		c0.181-0.661,0.12-1.263,0.061-1.862c-0.12-0.602,0.48-0.841,0.3-1.502c-0.121-0.421,0.181-1.022,0.24-1.502
		c0.36-0.421,0.48-0.722,0.721-1.442c0.24-0.661,0.541-1.261,0.421-1.981c0.661-1.202,0.781-2.645,1.742-3.726
		c0.301-0.3,0.541-0.661,0.721-1.021c0.421-0.902,1.021-1.622,1.742-2.224c0.24-0.18,0.48-0.359,0.721-0.301
		c1.082,0.241,2.223,0,3.363,0c0.842,0.062,1.684,0.121,2.524,0.241c1.802,0.24,3.004,1.381,3.965,2.763
		c0.3,0.421,0.3,1.143,0.42,1.683c-0.54,0.421-0.841,0.9-1.081,1.441c-0.12,0.481-0.661,0.782-1.081,1.262
		C422.161,353.366,422.462,353.486,422.763,353.546 M411.168,369.286c-0.541-0.481-0.961-0.902-1.321-1.262
		c0.06-0.481-0.12-0.841-0.301-1.201c-0.601-1.203-1.081-2.463-0.961-3.845c0-0.302-0.061-0.602-0.12-0.963v-1.08
		c-0.061-0.301,0.24-0.602-0.181-0.901c-0.12,0.361-0.36,0.721-0.42,1.082c-0.36,2.102,0.18,4.085,1.142,6.006
		c0.18,0.361,0.54,0.601,0.841,0.841C410.026,368.565,410.087,369.286,411.168,369.286 M409.426,355.288
		c-0.06,0.06-0.24,0.06-0.24,0.121c0,0.12,0.06,0.24,0.12,0.36l0.181-0.182C409.486,355.468,409.486,355.409,409.426,355.288
		 M409.727,354.627c0.059-0.18,0.12-0.3,0.18-0.421v-0.419C409.606,354.027,409.306,354.268,409.727,354.627 M411.048,362.917
		v-1.141C410.928,362.136,410.627,362.497,411.048,362.917 M415.554,349.04c-0.301,0.301-0.602,0.541-0.901,0.841
		c-0.301,0.301-0.36,0.781-0.541,1.143c-1.261,2.343-1.922,4.806-1.982,7.448c0,0.302,0.061,0.602-0.06,0.781
		c-0.36,0.781-0.241,1.563-0.36,2.343c-0.36,2.104,0.54,3.846,1.321,5.647c0.24,0.661,0.781,0.841,1.441,0.781
		c0.901-0.062,1.622-0.481,2.224-1.081c0.841-0.902,1.621-1.863,2.402-2.824c0.301-0.361,0.541-0.841,0.601-1.261
		c0.181-0.902,0-1.804,0.36-2.704c-0.24-1.322,0.421-2.463,0.781-3.664c0.181-0.782,0.901-1.442,0.721-2.404
		c-0.9-0.359-1.502-1.081-1.742-2.102c-0.06-0.3-0.3-0.54-0.48-0.78c-0.12-0.301-0.301-0.602-0.36-0.902
		c-0.24-1.081-0.961-1.682-1.862-2.343C416.575,348.32,415.974,348.62,415.554,349.04 M423.003,366.462
		c0.12-0.421,0.12-0.421,0.12-1.562C422.883,365.021,422.883,365.021,423.003,366.462 M423.724,357.391
		c-0.181,1.021-0.36,1.862-0.421,3.005c0.12,0.659-0.12,1.2-0.12,1.802c-0.12,0.661-0.24,1.261-0.06,2.042
		c0.06-0.12,0.18-0.12,0.18-0.241c0.061-0.059,0.12-0.179,0.061-0.42c0.12-2.163,0.54-4.205,0.66-6.547
		C423.903,357.21,423.724,357.271,423.724,357.391"/>
	<path clip-path="url(#SVGID_43_)" fill="#FFFFFF" d="M446.191,337.626c1.261-0.541,2.522-0.421,3.784-0.541
		c1.622-0.18,3.304-0.059,4.986,0.062c1.021,0.12,1.982,0.18,2.884-0.062c0.12,0,0.3,0.062,0.601,0.062
		c-0.061,0.24-0.061,0.479-0.181,0.661c-0.12,0.18-0.3,0.3-0.54,0.479c-0.24,0.12-0.481,0.3-0.781,0.42
		c-0.601,0.12-1.142,0.361-1.742,0.603c-0.301,0.179-0.721,0.059-1.081,0.12c-1.082,0-2.223,0.059-3.305,0.119
		c-0.42,0.061-0.9,0.061-1.262,0.181c-1.201,0.479-2.583,0.6-3.904,0.841c-0.841,0.18-1.382,0.721-1.682,1.442
		c-0.061,0.359-0.12,0.659-0.241,1.02c-0.3,1.022-1.321,6.849-1.621,7.931c-0.301,1.201-0.541,2.464-0.842,3.664
		c-0.06,0.182-0.12,0.481-0.3,0.602c-0.661,0.661-1.262,4.685-1.382,6.008c-0.181,1.982-0.181,3.964-0.181,6.006
		c0.061,1.203,0.36,2.404,0.602,3.605c0.06,0.421,0.36,0.78,0.601,1.141c0.9,1.082,1.562,1.202,2.343,0.301
		c0.84-0.962,1.682-1.923,2.343-3.004c0.601-1.081,1.562-1.923,1.802-3.184c0.061-0.12,0.181-0.24,0.24-0.361
		c1.742-1.801,1.862-2.342,3.124-4.504c0.36-0.662,0.661-1.323,1.081-1.983c0.181-0.359,0.541-0.6,1.082-0.6
		c0.3,0,0.36,0.299,0.36,0.479c-0.061,0.602-0.181,0.9-0.541,1.862c-0.24,0.602-0.36,1.142-0.66,1.622
		c-0.481,0.721-0.782,1.621-1.262,2.343c-0.962,1.383-0.721,1.142-1.982,2.344c-0.781,0.841-1.502,1.741-1.982,2.822
		c-0.541,1.081-1.202,2.104-2.103,2.823c-0.781,0.602-1.502,1.203-2.523,1.443c-0.721,0.179-1.562,0.179-2.223-0.182
		c-0.601-0.359-1.502-0.541-1.803-1.382c-0.9-0.72-1.021-1.742-1.562-2.642c-0.06-0.062-0.06-0.182-0.06-0.301
		c0.18-1.081-0.181-2.163-0.481-3.244c-0.06-0.3,0-0.541,0-0.781c0.12-2.104,0.239-4.206,0.301-6.308
		c0.061-1.021,0.181-2.042,0.36-3.005c0.301-1.381,0.721-2.763,0.721-4.265c-0.059-0.961,0.541-3.183,0.661-3.483
		c0.12-0.182-0.181-0.602-0.12-0.842c0.36-1.021,0-5.167,0.9-6.008c-0.42,0.12-0.78,0.241-1.201,0.361
		c-1.141,0.421-2.463,0.3-3.604,0.781c-0.24,0.119-0.54,0.181-0.841,0.301c-0.3,0.12-0.601,0.179-1.021,0.059
		c-0.48-0.12-1.021-0.12-1.501-0.12c-0.421-0.059-0.842-0.301-1.262-0.6c-0.36-0.961,1.681-1.442,2.763-1.743
		c1.742-0.479,3.545-0.961,5.287-1.381c0.54-0.121,0.961-0.361,1.262-0.721c0.119-0.12,0.841-0.602,1.081-1.081
		c0.24-0.541,0.36-1.202,0.48-1.804c0.24-0.78,0.48-1.621,0.36-2.583c-0.06-0.421,0.181-0.9,0.24-1.382
		c0-0.12,0.061-0.42-0.06-0.479c-0.12-0.182-0.181-1.143-0.301-1.683c-0.06-0.48,0.12-2.043,2.583-2.282
		c2.463-0.24,3.244,0.66,3.665,1.081c0.18,0.119,0.42,0.301,0.66,0.421c0.541,0.3,0.842,0.841,0.781,1.32
		c-0.12,0.781,0.181,1.684-0.24,2.463c-0.12,0.182-0.721,2.403-0.781,2.704C446.672,336.785,446.312,337.146,446.191,337.626
		 M437.48,362.017c-0.301,0.721-0.601,1.262,0,2.102C438.081,363.458,437.78,362.797,437.48,362.017 M437.48,365.141h-0.12
		l-0.061,0.06C437.36,365.2,437.42,365.2,437.48,365.141 M437.9,359.193c0.061-0.3,0.061-0.42,0.061-0.601
		c0-0.182,0-0.422-0.301-0.422c-0.12,0-0.24,0.062-0.24,0.12c-0.06,0.12-0.12,0.362-0.06,0.482
		C437.42,358.894,437.601,358.952,437.9,359.193 M437.841,359.913c-0.12,0.182-0.781,0.361-0.181,0.723
		C437.721,360.396,437.78,360.154,437.841,359.913 M438.321,351.924c-0.661,0.36-0.661,0.36-0.24,0.962
		C438.201,352.525,438.262,352.225,438.321,351.924 M438.201,354.987l-0.12-0.12c0,0.12-0.06,0.181-0.12,0.241l0.12,0.06
		C438.142,355.108,438.201,355.048,438.201,354.987 M438.742,360.154c-0.181,0.961-0.601,1.682,0.24,2.883
		C438.802,361.956,439.103,361.176,438.742,360.154 M439.223,350.183c-0.541,0.18-0.541,0.18-0.602,1.32
		c0.061,0,0.241,0.062,0.241,0C439.162,351.144,439.223,350.723,439.223,350.183 M438.862,352.225
		c-0.061-0.12-0.12-0.181-0.181-0.24l-0.061,0.06c0,0.12,0.121,0.181,0.181,0.24L438.862,352.225z M438.802,365.261
		c-0.06-0.061-0.12-0.12-0.12-0.181c-0.061,0-0.061,0.061-0.061,0.061c0,0.12,0,0.181,0.061,0.239
		C438.682,365.38,438.742,365.321,438.802,365.261 M438.742,367.063c0-0.062,0-0.182-0.061-0.241h-0.061
		c0,0.06,0.061,0.18,0.061,0.241H438.742z M439.042,368.504h-0.12l0.061,0.182L439.042,368.504z M439.703,342.313
		c-0.48,2.043-1.082,6.789-0.541,6.128C439.103,347.479,440.304,341.051,439.703,342.313 M445.35,331.258
		c0-0.479-0.24-0.539-0.721-1.2c-0.42-0.361-0.842,1.141-0.78,1.981c0.06,1.081,0,2.163-0.421,3.124
		c-0.182,0.361-0.301,0.902-0.36,1.322c-0.061,0.479,0.36,0.901,0.36,1.502c0.541-0.42,0.661-0.961,0.841-1.442
		c0.181-0.421,0.661-1.382,0.601-1.803C444.93,335.104,445.41,330.417,445.35,331.258"/>
	<path clip-path="url(#SVGID_43_)" fill="#FFFFFF" d="M468.238,359.553c-0.12,1.021-0.901,1.743-1.322,2.704
		c-0.119,0.3-0.3,0.541-0.541,0.781c-1.021,1.262-1.741,2.764-3.183,3.665c-0.541,0.359-0.962,0.841-1.322,1.382
		c-1.682,2.282-3.965,3.003-6.548,2.703c-1.562-0.24-2.343-1.443-3.363-2.524c-0.121-0.12-0.842-2.883-0.842-3.003
		c0-1.322,0.061-3.304,0.301-4.687c0.24-1.621,0.3-3.243,0.601-4.806c0.24-0.961,0.601-1.923,0.841-2.883
		c0.12-0.481,0.48-0.601,0.841-0.601c1.201-0.062,2.223,0.18,3.063,1.2c-0.18,1.263,0,2.645-0.36,3.966
		c-0.24,0.9-0.18,1.861-0.48,2.822c-0.24,0.902-0.42,4.206-0.54,5.107c-0.12,0.962,0.3,2.824,0.841,3.424
		c0.42,0.481,1.081,0.54,1.802,0.241c1.141-0.481,2.043-1.262,2.824-2.163c0.961-1.081,1.862-2.163,2.763-3.185
		c0.901-1.021,1.683-2.162,2.583-3.124c0.481-0.54,0.602-1.2,1.322-1.682C468.358,358.352,468.238,359.192,468.238,359.553
		 M454.781,365.14l0.061-0.059C454.781,365.081,454.781,365.081,454.781,365.14c-0.12-0.179-0.24-0.299-0.3-0.479
		c-0.061-0.181-0.061-0.36-0.12-0.602h0.06v-0.06c0.36-0.181,0.541-0.42,0.36-0.841c-0.12-0.24-0.12-0.481-0.18-0.722
		c0.06-0.661,0.48-1.382,0-2.042c-0.12,0.602-0.301,1.081-0.36,1.621c0,0.12,0.24,0.241,0.36,0.421
		c-0.24,0.481-0.301,1.022-0.181,1.563h-0.06v0.06c-0.361,0.18-0.361,0.421-0.24,0.782
		C454.181,365.201,454.481,365.201,454.781,365.14c-0.54,0.721-0.54,0.782,0,1.563C454.842,366.162,455.082,365.621,454.781,365.14
		 M454.061,348.26c0.12-0.42,0.541-0.721,0.301-1.322c-0.12-0.359,0.18-0.841,0.18-1.261s-0.12-0.902-0.18-1.442
		c1.441-0.421,2.703-0.301,4.024,0.301c0.061,0.181,0.301,0.541,0.181,0.78c-0.24,0.722-0.12,1.502-0.24,2.224
		c-0.24,1.141-0.721,2.102-1.982,2.522c-0.36,0.12-0.721,0.361-1.142,0.602C454.481,350.844,454.421,349.041,454.061,348.26
		 M455.563,356.489c0.061,0.422,0.12,0.781,0.181,1.201c0.06-0.3,0.18-0.6,0.18-0.899c0-0.12-0.12-0.241-0.18-0.362
		C455.683,356.429,455.623,356.489,455.563,356.489"/>
	<path clip-path="url(#SVGID_43_)" fill="#FFFFFF" d="M494.67,359.553c-0.18,0.361-0.42,0.602-0.54,0.902
		c-0.481,1.261-1.382,2.163-2.403,3.063c-0.48,0.481-1.021,0.843-1.262,1.502c-0.12,0.182-0.3,0.36-0.48,0.48
		c-1.682,1.203-3.424,1.923-5.286,1.743c-1.021-0.12-1.862-0.54-2.283-1.563c-0.3-0.661-0.721-1.262-1.143-1.803
		c-0.54-0.6-0.359-1.38-0.299-2.162c0-0.24,0.12-1.021,0.18-1.201c0.36-1.201,0.24-2.464,1.082-3.604
		c0.601-0.842,0.961-1.684,1.08-2.645c0.061-0.541,0.421-1.142,0.662-1.741c0.42-0.781,1.321-2.943,1.38-3.305
		c0-0.48,0.062-0.962,0-1.441c0-0.602-0.359-0.961-1.02-1.022c-1.923-0.179-3.364,0.482-4.626,2.104
		c-0.301,0.421-1.622,2.103-2.223,3.063c-0.721,1.022-1.262,2.104-1.862,3.185c-0.24,0.359-0.48,0.78-0.721,1.141
		c-0.181,0.3-0.48,0.601-0.541,0.902c-0.421,1.261-1.262,2.343-1.862,3.483c-0.12,0.3-0.3,0.54-0.36,0.781
		c-0.181,1.082-0.901,1.982-1.562,2.883c-0.361,0.421-0.722,0.661-1.202,0.721c-0.54,0.062-1.022,0-1.622,0
		c-0.601-0.601-0.36-1.741-1.021-2.281c-0.12-0.062-0.12-0.24-0.12-0.421c0.06-1.081,0-2.104-0.302-3.124
		c-0.119-0.54,0-1.263,0.182-1.862c0.3-1.082,0.12-1.983-0.241-2.824c-0.12-0.18-0.18-0.359-0.24-0.6
		c0.842-0.841,1.862-1.081,2.824-1.143c0.78-0.059,1.441,0.24,1.982,0.781c0.54,0.42,0.9,0.901,0.9,1.682
		c0,0.602,0.181,1.081,0.24,1.563c0.181,0.059,0.181,0.059,0.241,0.059c0.06,0,0.12-0.059,0.12-0.119
		c1.381-2.163,2.763-4.387,4.085-6.549c0,0,0.78-0.961,1.441-1.321c0.84-0.842,1.802-1.621,2.703-2.463
		c1.502-1.382,3.184-1.622,4.866-1.862c0.421,0,0.781,0.06,1.142,0c1.321-0.12,2.223,0.48,3.063,1.261
		c0.48,0.421,0.661,1.022,0.541,1.743c-0.061,0.42-0.061,0.84-0.12,1.261c-0.061,0.661-0.36,1.143-0.36,1.143
		c-0.481,1.44-1.203,2.764-1.502,4.144c-0.241,0.902-0.661,1.863-1.082,2.825c-0.24,0.479-0.54,1.681-0.721,1.981
		c-0.24,0.421-0.42,0.9-0.42,1.262c0.06,0.301,0.06,0.601-0.062,0.9c-0.059,0.24-0.179,0.541-0.239,0.781
		c0.12,0.42,0.36,0.841,0.36,1.262c0.061,0.481,0.301,0.722,0.661,0.961c0.901,0.602,1.682,0.541,2.823-0.239
		c1.081-0.842,2.163-2.043,3.063-3.124c0.541-0.722,1.203-1.382,1.743-1.983C494.79,358.712,495.211,358.472,494.67,359.553
		 M482.115,358.773c-0.061-0.062-0.061-0.062-0.061-0.12l-0.06,0.059c-0.061,0.062,0,0.12,0,0.12S482.055,358.773,482.115,358.773
		 M483.016,359.914c-0.12,0.12-0.24,0.24-0.3,0.36c-0.12,0.12-0.12,0.301-0.181,0.421
		C482.896,360.515,483.196,360.395,483.016,359.914 M482.896,357.872c0.061,0,0.12-0.062,0.12-0.121c0,0-0.06,0-0.06,0.06
		C482.896,357.811,482.896,357.872,482.896,357.872 M483.736,359.013c-0.12,0-0.18,0.061-0.24,0.061
		c-0.06,0.12-0.06,0.18-0.06,0.301h0.24C483.736,359.253,483.736,359.133,483.736,359.013 M484.518,352.946c0,0-0.06,0-0.06-0.062
		c0,0.062-0.061,0.12-0.061,0.182h0.12V352.946z M485.419,352.645c-0.12,0.302-0.12,0.602-0.181,0.901
		c-0.12,0.361-0.48,0.54-0.54,0.901c-0.061,0.301-0.48,0.48-0.12,0.9c0.24-0.3,0.54-0.54,0.721-0.9
		c0.961-1.922,2.103-4.205,1.802-6.309c-0.06-0.359-0.3-0.479-0.48-0.841h0.061c-0.061-0.059-0.061-0.059-0.061-0.12
		c0-0.661-0.601-1.201-1.441-1.262c0.42,0.481,1.201,0.841,1.441,1.262v0.12c-0.181,0.421-0.181,0.602-0.12,0.961
		C486.681,349.582,485.96,351.324,485.419,352.645"/>
	<path clip-path="url(#SVGID_43_)" fill="#FFFFFF" d="M551.139,333.302c-0.12,0.421-0.24,0.6-0.36,0.661
		c-0.239,0.359-0.42,0.779-0.721,1.08c-0.421,0.481-0.841,0.901-1.562,0.781c-0.181,0-0.421,0.061-0.602,0.18
		c-0.48,0.302-0.961,0.722-1.501,1.021c-0.541,0.241-1.202,0-1.683,0.542c-0.84,0.059-1.622,0-2.403,0.24
		c-0.54,0.179-1.682,0.059-2.042-0.062c-0.961-0.239-0.661-0.359-1.742-0.239c-0.359,0.061-0.721,0-1.081-0.12
		c-0.601-0.182-1.202-0.302-1.862-0.182c-0.901,0.121-1.382,0.362-2.163-0.18c-0.721-0.541-1.502-0.18-1.682-0.3
		c-0.841,0.359-1.382,0.421-2.283,0.24c-0.601-0.12-1.262,0.119-3.004,0.181c0,0.12-2.583-0.481-4.445,0.3
		c-0.06,0.481-0.06,1.021-0.601,1.381c0.061-0.059,0.12-0.179,0.12-0.239s-0.06-0.12-0.06-0.181v0.12
		c-0.061,0.121-0.061,0.241-0.061,0.3c0,0.24-0.06,0.603,0.061,0.723c0.36,0.3,0.3,0.659,0.24,1.02
		c-0.24,1.142-0.301,2.223-0.301,3.365c0,0.9-0.301,1.682-0.901,2.403c-0.18,0.18-0.12,0.9,0.181,1.142
		c-0.181,0.179,0.06,1.081-0.181,1.561c-0.18,0.302,0,1.143,0.061,1.263c1.742-0.602,4.325-0.182,6.067-0.842
		c0.661-0.239,1.262-0.239,1.862-0.359c1.862-0.301,5.767-1.742,6.608-1.323c1.441,0.481-0.301,1.803-0.781,2.284
		c-0.421,0.42-0.961,0.84-1.502,1.081c-0.721,0.359-1.502,0.72-2.283,1.021c-0.961,0.301-2.282,0.12-3.243,0.541
		c-0.901,0.42-2.163,0.361-3.064,0.722c-0.24,0.12-0.54,0.18-0.721,0.359c-0.781,0.722-2.223,0.24-3.184,0.481
		c-0.36,0.059-0.301,0.3-0.661,0.421c-0.661,0.299-0.3,0.6-0.24,1.26c0.12,0.722-0.24,1.563-0.24,1.983
		c-0.061,1.382-0.24,2.763-0.6,4.145c-0.062,0.181-0.062,0.421,0,0.602c0.239,1.2,0.059,2.343-0.361,3.483
		c-0.24,0.541-0.301,1.081-0.301,1.683c-0.06,0.601-0.48,1.262-0.541,1.861c-0.06,0.603,0.121,1.143,0.121,1.742
		c0,0.241-0.481,1.382-0.602,1.684c-0.66,0.3-1.381,3.184-2.583,1.08c-0.42-0.78-0.66-0.961-0.841-1.44
		c-0.061-0.181-0.12-0.301-0.061-0.481c0.181-1.202,0.361-2.402,0.541-3.665c0.12-0.841,0.36-1.682,0.36-2.522
		c0-1.563,0.541-3.064,0.48-4.625c0-1.323,0.36-2.645,0.601-3.965c0.181-0.842,0.181-1.684,0.181-2.645
		c-0.901,0.182-1.742,0.301-2.463-0.24c-0.301-0.181-0.601-0.421-0.721-0.721c-0.181-0.359-0.36-0.479-0.421-0.961
		c-0.3-0.48,2.703-0.661,3.965-1.141c0.301-0.602,0.24-1.082,0.181-1.622c-0.12-0.841-0.24-1.742,0.18-2.645
		c0.061-0.179,0.12-0.359,0.12-0.479c0-1.622,0.48-3.185,0.421-4.807c-0.061-0.66,0.12-1.382,0.18-2.043
		c0.421-0.119,0.481,0.12,0.481,0.36c0.06,0.181-0.121,0.481,0.24,0.541c0.12-0.36,0.24-0.661,0.24-1.021
		c0.061-0.301,0-0.66,0-1.022c-0.061-0.78-0.602-1.201-2.523,0.362c-0.48,0.359-1.021,0.721-1.562,1.02
		c-0.301,0.182-0.661,0.12-0.661-0.059c0.06-0.12,0-0.24-0.12-0.361c0-0.06-0.181-0.06-0.239,0
		c-0.602,0.361-1.263,0.961-1.143,1.563c0.061,0.66-0.359,1.081-0.48,1.622c-0.061,0.421-0.181,0.841-0.301,1.2
		c-0.119,0.361,0.24,0.302,0.301,0.661c0.06,0.301,0.06,0.602,0.06,0.961c-0.36,0.182-0.721,0.361-1.081,0.541
		c-0.961-0.239-1.441-1.021-2.042-1.622c-0.061-0.359-0.12-0.721-0.12-1.081c0-0.541,0.06-1.141,0.24-1.682
		c0.18-0.601,0.721-1.142,0.54-1.802c0.48-0.722,0.721-1.622,1.563-2.104c0.3-0.18,0.54-0.421,0.721-0.661
		c0.721-0.961,5.166-2.702,5.467-3.243c0.06-0.12,0-0.301,0-0.54c0,0-0.421-0.723,2.402-0.661c1.563-0.062,3.185-0.182,4.807-0.301
		c0.24,0,0.481-0.12,0.721-0.181c1.081-0.24,2.162-0.3,3.184-0.06c1.442,0.301,0.781,0.421,2.283,0.301
		c1.321-0.121,2.583-0.121,3.845,0.059c0.961,0.12,1.922,0.12,2.884,0.12c1.741,0,2.162-0.059,3.965-0.12
		c0.601-0.059,1.261-0.18,1.922-0.359c0.601-0.12,1.263-0.3,1.862-0.42c1.201-0.302,2.103,0.12,2.764-1.143
		c0-0.359-0.181-0.359,0.12-0.661c0.18-0.239,0.48-0.54,0.721-0.779c0.12,0,0.24-0.062,0.36,0c1.142,0.66,2.223,0.54,2.343,1.201
		C550.839,331.919,551.08,332.341,551.139,333.302 M510.049,340.511v-0.12c-0.061,0.059-0.061,0.179-0.061,0.24
		C509.988,340.569,510.049,340.569,510.049,340.511 M511.25,342.192c-0.12,0-0.24,0.06-0.24,0.06c0,0.12,0.06,0.181,0.12,0.301
		c0-0.061,0.12-0.181,0.12-0.24C511.31,342.252,511.25,342.192,511.25,342.192 M514.014,339.128l-0.12-0.181
		c-0.12,0.12-0.24,0.181-0.36,0.301c0,0,0.06,0.12,0.24,0.36C513.833,339.43,513.953,339.31,514.014,339.128 M516.176,359.854h-0.06
		l-0.061,0.12L516.176,359.854z M516.656,354.086c-0.36,0.541-0.54,0.963-0.36,1.622
		C516.597,354.987,516.837,354.567,516.656,354.086 M516.597,356.851c-0.06,0.18-0.181,0.359-0.24,0.541l0.06,0.059
		C516.477,357.21,516.537,357.03,516.597,356.851 M517.077,352.225c0.36-0.42,0.541-0.901,0.48-1.683
		C517.317,351.323,517.197,351.805,517.077,352.225 M518.459,356.489l-0.301-0.3c-0.54,0.781-0.42,1.442-0.48,2.043
		c-0.06,0.72-0.06,1.381-0.24,2.042c-0.301,1.202-0.061,2.283-0.181,3.424c0,0.12,0.241,0.241,0.421,0.42
		c0.48-2.521,0.361-4.805,0.781-7.147C518.519,356.79,518.459,356.67,518.459,356.489 M518.58,353.786
		c-0.541,1.442-0.541,1.442-0.241,1.742C518.699,354.388,518.699,354.388,518.58,353.786 M519.119,350.241
		c-0.12-0.059-0.18-0.059-0.3-0.059c-0.061,0.3-0.181,0.6-0.239,0.9c0,0,0.059,0.061,0.059,0.12c0.061,0,0.12-0.06,0.181-0.12
		C518.879,350.782,518.999,350.542,519.119,350.241 M521.343,333.781c-0.481,0.182-0.781-0.24-1.142,0.301
		C520.562,333.843,520.802,334.442,521.343,333.781 M524.105,335.765c-0.721-0.061-0.721-0.061-1.44,0.6
		C523.385,336.186,523.865,336.306,524.105,335.765 M531.375,334.082c-0.12-0.06-1.442-0.119-1.563-0.181
		c-0.12,0.062-1.321,0.121-1.382,0.181c0.061,0.061,1.262,0.24,1.382,0.24C529.873,334.383,531.255,334.202,531.375,334.082
		 M529.933,334.862h-0.12c0,0-0.06,0.062-0.06,0.121h0.12C529.933,334.983,529.933,334.924,529.933,334.862 M541.227,333.422
		c-0.48,0-1.441,0.301-1.922,0.301c-1.021,0.059-2.043,0-2.343,0.12c-0.36,0.12-0.181,0.239,0.601,0.239
		c0.721,0.061,2.643-0.06,3.304-0.181c0.421-0.059,0.781-0.059,0.901-0.179S541.768,333.481,541.227,333.422"/>
	<path clip-path="url(#SVGID_43_)" fill="#FFFFFF" d="M562.733,361.235c-0.721,0.54-1.923,1.742-2.644,2.282
		c-2.103,1.502-3.664,2.404-5.767,3.906c-1.382,0.961-3.364,1.021-5.047,1.081c-0.54,0-1.141-0.061-1.742-0.061
		c-0.722-0.06-1.381-0.12-1.982-0.601c-0.3-0.241-0.66-0.3-1.141-0.18c-0.602,0.239-1.202-0.062-1.502-0.781
		c-0.24,0-0.48-0.061-0.661-0.3c-0.541-0.12-0.781-0.603-1.081-1.022c0.42,0.241,0.9,0.42,1.142,0.961c0.24,0,0.54,0,0.66,0.301
		h0.541v0.061c0.12,0,0.24,0.06,0.3,0.12c-0.06-0.061-0.18-0.12-0.24-0.181h-0.06c-0.901-0.9-1.742-1.861-2.403-2.943
		c-0.66-1.021-1.142-2.224-1.742-3.484c-0.24-0.3,0.061,1.563,0.36,2.224c0.12,0.42,0.24,0.899,0.301,1.32
		c0.781,0.181,0.961,0.782,1.021,1.442c-0.48-0.361-0.962-0.781-1.021-1.442c-0.781-0.6-1.142-1.382-1.201-2.402
		c-0.061-0.9-0.24-1.803-0.421-2.703c0-0.12-0.12-0.301-0.06-0.421c0.54-2.162,0.54-4.506,2.162-6.309
		c0.18-0.179,0.36-0.42,0.421-0.66c0.24-0.962,0.78-1.682,1.441-2.463c0.541-0.661,1.201-1.322,1.982-1.802
		c0.36-0.18,0.661-0.541,0.962-0.841c0.239-0.12,0.479-0.301,0.721-0.361c0.66-0.12,1.381-0.24,2.042-0.359
		c0.181-0.062,0.36-0.062,0.48-0.062c1.262,0.481,2.523,0.241,3.785,0.301c1.021,0.12,1.862,0.481,2.522,1.322
		c0.12,0.18,0.301,0.42,0.36,0.661c0.12,0.899,0.36,1.862,0,2.762c-0.06,0.182-0.06,0.421-0.121,0.662
		c-0.059,0.781-0.359,1.381-0.899,1.982c-0.48,0.479-0.842,1.142-1.322,1.622c-0.9,0.9-1.922,1.682-2.823,2.583
		c-1.262,1.201-2.884,1.741-4.325,2.582c-0.961,0.541-1.862,1.082-2.703,1.924c-0.181,0.9,0.36,1.502,0.9,2.463l0.661,0.421
		c0.301,0.299,1.382,0.72,1.862,0.84c1.201,0.3,1.742,0.542,3.004,0.902c0.3,0.12,0.661,0.18,0.901,0.12
		c1.922-0.48,4.085-1.383,5.767-2.403c2.163-1.382,3.545-2.343,5.646-3.785c0.602-0.42,1.382-1.381,2.104-1.922
		C565.377,358.473,563.515,360.636,562.733,361.235 M542.849,358.292c0.601-0.24,1.081-0.42,1.622-0.602
		c2.043-0.899,3.845-2.042,5.046-3.965c0.301-0.479,0.661-1.02,0.541-1.561c-0.18-0.722-0.301-1.442-0.901-1.983
		c-0.12-0.12-0.36-0.3-0.54-0.24c-0.722,0.061-1.502,0.24-1.862,0.781s-0.901,0.781-1.322,1.202c-0.36,0.42-0.721,0.901-1.201,1.201
		c-0.24,0.18-0.421,0.421-0.541,0.661c-0.18,0.42-0.42,0.779-0.54,1.142c-0.422,0.9-0.901,1.801-0.901,2.882
		C542.488,357.992,542.368,358.412,542.849,358.292 M545.612,359.494c-0.24-0.12-0.36-0.302-0.421-0.24
		c-0.36,0.059-0.721,0.12-0.66,0.6C544.951,359.914,545.191,359.674,545.612,359.494 M550.358,355.469
		c-1.442,0.961-2.584,2.222-4.205,2.763c-0.12,0.301-0.181,0.481-0.301,0.722c0.06,0,0.12,0.061,0.12,0.119
		c0.24-0.239,0.48-0.54,0.781-0.721c0.3-0.24,0.54-0.479,0.841-0.6c1.021-0.481,1.742-1.263,2.583-1.863
		C550.298,355.769,550.298,355.589,550.358,355.469 M551.499,354.327c0,0.061,0.12,0.061,0.181,0.061
		c0-0.061,0.061-0.121,0.061-0.181h-0.181C551.499,354.267,551.499,354.327,551.499,354.327"/>
	<path clip-path="url(#SVGID_43_)" fill="#FFFFFF" d="M585.741,359.434c-0.301,0.66-1.142,1.621-1.742,1.861
		c-1.562,1.082-1.922,1.563-2.644,1.863c-1.441,0.661-0.601,0.12-2.042,0.781c-0.36,0.18-0.541,0.479-0.961,0.721
		c-0.602,0.3-0.962,0.781-0.962,1.501c0,0.601-0.18,1.142-0.36,1.682c-0.3,0.723-0.66,1.202-1.262,1.622
		c-0.78,0.661-1.562,1.322-2.402,1.923c-0.541,0.421-1.081,0.901-1.982,0.842c-0.661-0.061-1.382,0.421-2.103,0.66
		c-0.24,0.061-0.541,0.24-0.781,0.181c-1.201-0.061-2.404-0.181-3.664-0.3c-0.181-0.602-0.301-1.143-0.421-1.622
		c1.201-2.404,3.424-3.545,5.587-4.626c0.48-0.24,0.961-0.481,1.502-0.661c0.901-0.361,1.441-0.42,1.502-1.863
		c0,0,0.36-0.72,0.18-0.9c-0.12-0.301-0.42-0.359-0.54-0.78c-0.181-0.781-0.962-1.081-1.742-1.201
		c-1.082-0.181-2.163-0.062-3.306-0.181c-0.779-0.061-1.561-0.061-2.222-0.481c-0.12-0.059-0.66-0.24-0.721-0.36
		c-0.12-0.239-0.781-0.66-0.781-0.66c-0.36-0.36-0.48-1.081-0.78-1.503c-0.061-0.119-0.061-0.54,0.06-0.721
		c0.12-0.359-0.48-1.021-0.36-1.261c0.18-0.481,0.061-1.563-0.06-2.104c-0.181-0.359,0.36-0.779,0.12-0.899
		c-0.181-0.661,0.24-0.902,0.42-1.443c0.061-0.24,0.661-0.54,0.781-0.961c0.06-0.3,0.36-0.661,0.36-0.901
		c0.24-0.359,1.142-1.861,1.802-2.161c0.722-0.302,1.803-0.12,2.283-0.603c0.12-0.12,1.622-0.479,1.742-0.479
		c1.142,0,2.223,0.12,3.424,0.479c1.202,0.421,2.043,1.082,2.584,2.225c0.06,0.059,0.18,1.682-0.181,2.223
		c-0.722,2.943-5.768,5.466-5.347,3.183c0-0.301-0.06-0.6,0-0.78c0.24-0.602,0.541-1.143,0.841-1.742
		c0.181-0.3,0.421-0.602,0.601-0.961c0.181-0.302,0.241-0.722-0.12-1.022c-0.36-0.36-0.721-0.66-1.261-0.42
		c-1.322,0.54-2.403,1.442-3.244,2.523c-0.721,1.021-1.322,2.102-1.262,3.425c0.06,0.84,0.06,1.981,0.841,2.521
		c0.181,0.12,0.36,0.36,0.479,0.541c0.602,0.481,0.902,0.481,1.623,0.481c1.081,0.12,2.223,0.3,3.305,0.3
		c1.682,0.061,2.943,0.721,3.845,2.163c0.3,0.42,0.54,0.781,0.841,1.202c0.54,0.24,1.021,0.179,1.502-0.12
		c1.862-0.722,1.081,0.12,3.184-1.502c1.562-0.662,1.502-1.502,3.124-2.043c0.12-0.061,0.3-0.121,0.48-0.121
		c0.06,0,0.179,0.121,0.24,0.181C585.802,359.193,585.802,359.313,585.741,359.434 M564.114,351.804
		c-0.06-0.06-0.18-0.119-0.24-0.119c0,0-0.12,0.06-0.12,0.119c0.061,0.061,0.12,0.12,0.181,0.181L564.114,351.804z M565.557,354.387
		l-0.12-0.06c-0.061,0-0.12,0.12-0.12,0.12c-0.301,0.721-0.24,2.763,0,2.283C565.616,355.828,565.437,355.108,565.557,354.387
		 M565.437,351.564c0,0,0.06,0.059,0.06,0.12c0-0.062,0.061-0.062,0.061-0.12c0,0,0-0.062-0.061-0.12
		C565.496,351.503,565.437,351.503,565.437,351.564 M572.225,367.363c-0.601,0.24-1.021,0.421-1.441,0.661
		c-0.842,0.421-1.622,1.021-2.523,1.382c-0.781,0.299-1.262,0.84-1.742,1.502c0.48,0.54,1.08,0.72,1.742,0.66
		c0.841-0.12,1.682-0.481,2.223-1.142c0.661-0.661,1.201-1.502,1.742-2.282C572.345,368.024,572.225,367.723,572.225,367.363
		 M571.984,371.087c0-0.12-0.061-0.24-0.12-0.3c-0.301-0.12-0.301,0.18-0.421,0.361v0.059h-0.06v0.062
		c-0.061-0.062-0.12-0.12-0.24-0.12c-0.12-0.062-0.24,0-0.36,0.059c0.06,0.062,0,0.241,0.06,0.301c0.12,0.061,0.301,0.181,0.36,0.12
		c0.12-0.06,0.12-0.24,0.181-0.359c0.06,0,0.06,0,0.06-0.062C571.684,371.327,571.924,371.508,571.984,371.087 M575.408,363.098
		c0-0.061-0.18-0.119-0.3-0.181c-0.061,0.12-0.181,0.241-0.181,0.361c-0.12,0.72-0.24,1.382-0.3,2.043
		c-0.061,0.961-0.301,1.742-0.842,2.642c-0.3,0.603-1.021,0.962-0.721,1.022c0.239,0.06,0.841-0.602,1.081-0.361
		c0.181-0.299,0.361-0.54,0.421-0.84c0.181-0.481,0.12-1.022,0.36-1.502C575.408,365.26,575.348,364.179,575.408,363.098"/>
	<path clip-path="url(#SVGID_43_)" fill="#FFFFFF" d="M594.092,337.626c1.261-0.541,2.522-0.421,3.784-0.541
		c1.622-0.18,3.304-0.059,4.986,0.062c1.021,0.12,1.982,0.18,2.884-0.062c0.12,0,0.3,0.062,0.601,0.062
		c-0.061,0.24-0.061,0.479-0.181,0.661c-0.12,0.18-0.3,0.3-0.54,0.479c-0.24,0.12-0.481,0.3-0.781,0.42
		c-0.601,0.12-1.142,0.361-1.742,0.603c-0.301,0.179-0.721,0.059-1.081,0.12c-1.082,0-2.223,0.059-3.305,0.119
		c-0.42,0.061-0.9,0.061-1.262,0.181c-1.201,0.479-2.583,0.6-3.904,0.841c-0.841,0.18-1.382,0.721-1.682,1.442
		c-0.061,0.359-0.12,0.659-0.241,1.02c-0.3,1.022-1.321,6.849-1.621,7.931c-0.301,1.201-0.541,2.464-0.842,3.664
		c-0.06,0.182-0.12,0.481-0.3,0.602c-0.661,0.661-1.262,4.685-1.382,6.008c-0.181,1.982-0.181,3.964-0.181,6.006
		c0.061,1.203,0.36,2.404,0.602,3.605c0.06,0.421,0.36,0.78,0.601,1.141c0.9,1.082,1.562,1.202,2.343,0.301
		c0.84-0.962,1.682-1.923,2.342-3.004c0.602-1.081,1.563-1.923,1.803-3.184c0.061-0.12,0.181-0.24,0.24-0.361
		c1.742-1.801,1.862-2.342,3.123-4.504c0.361-0.662,0.662-1.323,1.082-1.983c0.181-0.359,0.541-0.6,1.082-0.6
		c0.3,0,0.36,0.299,0.36,0.479c-0.061,0.602-0.181,0.9-0.541,1.862c-0.24,0.602-0.36,1.142-0.66,1.622
		c-0.481,0.721-0.782,1.621-1.262,2.343c-0.962,1.383-0.721,1.142-1.982,2.344c-0.781,0.841-1.502,1.741-1.982,2.822
		c-0.541,1.081-1.202,2.104-2.103,2.823c-0.781,0.602-1.502,1.203-2.523,1.443c-0.721,0.179-1.562,0.179-2.223-0.182
		c-0.601-0.359-1.502-0.541-1.803-1.382c-0.9-0.72-1.021-1.742-1.562-2.642c-0.06-0.062-0.06-0.182-0.06-0.301
		c0.18-1.081-0.181-2.163-0.481-3.244c-0.06-0.3,0-0.541,0-0.781c0.12-2.104,0.239-4.206,0.301-6.308
		c0.061-1.021,0.181-2.042,0.36-3.005c0.301-1.381,0.721-2.763,0.721-4.265c-0.059-0.961,0.541-3.183,0.661-3.483
		c0.12-0.182-0.181-0.602-0.12-0.842c0.359-1.021,0-5.167,0.9-6.008c-0.42,0.12-0.78,0.241-1.201,0.361
		c-1.141,0.421-2.463,0.3-3.604,0.781c-0.24,0.119-0.54,0.181-0.841,0.301c-0.3,0.12-0.601,0.179-1.021,0.059
		c-0.48-0.12-1.021-0.12-1.501-0.12c-0.421-0.059-0.842-0.301-1.262-0.6c-0.36-0.961,1.681-1.442,2.763-1.743
		c1.742-0.479,3.545-0.961,5.287-1.381c0.54-0.121,0.961-0.361,1.262-0.721c0.119-0.12,0.841-0.602,1.081-1.081
		c0.24-0.541,0.36-1.202,0.48-1.804c0.24-0.78,0.48-1.621,0.36-2.583c-0.06-0.421,0.181-0.9,0.24-1.382
		c0-0.12,0.061-0.42-0.06-0.479c-0.12-0.182-0.181-1.143-0.301-1.683c-0.06-0.48,0.12-2.043,2.583-2.282
		c2.463-0.24,3.244,0.66,3.665,1.081c0.18,0.119,0.42,0.301,0.66,0.421c0.541,0.3,0.842,0.841,0.781,1.32
		c-0.12,0.781,0.181,1.684-0.24,2.463c-0.12,0.182-0.721,2.403-0.781,2.704C594.572,336.785,594.212,337.146,594.092,337.626
		 M585.381,362.017c-0.301,0.721-0.601,1.262,0,2.102C585.98,363.458,585.681,362.797,585.381,362.017 M585.381,365.141h-0.12
		l-0.061,0.06C585.261,365.2,585.32,365.2,585.381,365.141 M585.801,359.193c0.061-0.3,0.061-0.42,0.061-0.601
		c0-0.182,0-0.422-0.301-0.422c-0.121,0-0.24,0.062-0.24,0.12c-0.06,0.12-0.12,0.362-0.06,0.482
		C585.32,358.894,585.501,358.952,585.801,359.193 M585.741,359.913c-0.12,0.182-0.781,0.361-0.181,0.723
		C585.621,360.396,585.681,360.154,585.741,359.913 M586.222,351.924c-0.661,0.36-0.661,0.36-0.241,0.962
		C586.102,352.525,586.162,352.225,586.222,351.924 M586.102,354.987l-0.121-0.12c0,0.12-0.059,0.181-0.119,0.241l0.119,0.06
		C586.042,355.108,586.102,355.048,586.102,354.987 M586.643,360.154c-0.181,0.961-0.601,1.682,0.24,2.883
		C586.702,361.956,587.003,361.176,586.643,360.154 M587.123,350.183c-0.541,0.18-0.541,0.18-0.602,1.32
		c0.061,0,0.241,0.062,0.241,0C587.063,351.144,587.123,350.723,587.123,350.183 M586.763,352.225
		c-0.061-0.12-0.12-0.181-0.181-0.24l-0.061,0.06c0,0.12,0.121,0.181,0.181,0.24L586.763,352.225z M586.702,365.261
		c-0.06-0.061-0.12-0.12-0.12-0.181c-0.061,0-0.061,0.061-0.061,0.061c0,0.12,0,0.181,0.061,0.239
		C586.582,365.38,586.643,365.321,586.702,365.261 M586.643,367.063c0-0.062,0-0.182-0.061-0.241h-0.061
		c0,0.06,0.061,0.18,0.061,0.241H586.643z M586.942,368.504h-0.12l0.061,0.182L586.942,368.504z M587.604,342.313
		c-0.48,2.043-1.082,6.789-0.541,6.128C587.003,347.479,588.204,341.051,587.604,342.313 M593.25,331.258
		c0-0.479-0.24-0.539-0.721-1.2c-0.42-0.361-0.842,1.141-0.78,1.981c0.06,1.081,0,2.163-0.421,3.124
		c-0.182,0.361-0.301,0.902-0.36,1.322c-0.061,0.479,0.36,0.901,0.36,1.502c0.541-0.42,0.661-0.961,0.841-1.442
		c0.181-0.421,0.661-1.382,0.601-1.803C592.83,335.104,593.311,330.417,593.25,331.258"/>
	<path clip-path="url(#SVGID_43_)" fill="#FFFF4D" d="M434.298,378.056c-0.421,0.421-0.721,0.961-1.442,0.961
		c-0.54,0.062-1.081,0.062-1.621,0.062c-0.722,0.059-1.502,0.059-2.283,0.12c-0.181,0-0.36,0.119-0.602,0.18
		c-0.479,0.361,2.344,0.18,1.743,0.601c-0.781,0-1.622,0-2.403,0.061c-4.145,0.359-8.29,0.961-12.436,1.382
		c-0.18,0-0.3,0-0.48,0.059c-1.742,0.362-3.484,0.781-5.227,1.202c-0.961,0.782-2.042,0.54-3.123,0.721
		c-0.842,0.182-1.742,0.24-2.523,0.481c-2.163,0.661-4.386,0.901-6.608,1.321c-0.54,0.06-1.142,0-1.742,0
		c-0.721,0-1.382,0-2.103,0.24c-1.141,0.36-0.721,0.181-1.982-0.061c-0.54-0.661-2.764-1.622-1.201-3.124
		c2.042-0.66,3.544-1.381,4.685-2.583c0.481-1.982,0.36-3.063,0.661-5.166c0-0.18,0.06-4.145,0.06-4.145
		c0.12-0.36,0.12-0.661,0.181-1.081c0.24-1.622,0.419-3.306,0.6-4.986c0.061-0.481,0-1.022,0-1.682c0,0-0.061-2.765,0-2.885
		c0.181-0.66,0.36-1.141,0.421-1.682c0.24-1.381,0.48-3.364,0.66-4.806c0.181-1.022,0.24-2.104,0.421-3.185
		c0.12-0.479,0.3-1.923,0.48-2.402c0,0-0.181-2.042-0.181-2.703c0.12-0.24,0.241-0.361,0.301-0.541
		c0.541-1.563,0.48-2.403,0.841-3.965c0.181-0.9,0.301-1.862,0.421-2.764c0.18-1.021-0.961-1.981-0.841-2.884
		c0.66-1.802,3.424-0.3,3.424-0.3c0.36,0.36,0.48,0.541,0.601,0.661c0.421,0.301,0.661,0.661,0.781,1.141
		c0.48,2.583,0.06,4.385-0.12,6.969c0,0-0.061,0.061-0.061,0.12c-0.12,0.602-0.48,3.965-0.48,3.965
		c-0.18,0.78-0.42,2.644-0.48,3.425c-0.121,0.721-0.06,1.502-0.06,2.223c0.06,1.862-0.36,4.265-0.781,6.128
		c0.24,0.419,0.06,3.183,0.06,3.183c-0.48,2.583-1.441,5.047-1.201,7.629c0,0-0.18,0.603-0.24,1.022
		c0,1.501-0.961,6.127-0.721,7.689c0.42-0.061,0.841-0.061,1.262-0.12c2.402-0.481,6.607-0.66,9.011-1.081
		c3.664-0.661,7.329-1.022,10.993-1.201c1.622-0.062,3.244-0.181,4.866-0.241c1.502-0.06,3.004-0.06,4.506,0.241
		c1.021,0.179,1.922,0.54,3.004,0.42c0.36-0.06,0.721,0.18,1.021,0.24C434.598,377.336,434.598,377.695,434.298,378.056
		 M393.447,381.781v-0.12l-0.059,0.12H393.447z M394.168,382.861l-0.24-0.06v0.121L394.168,382.861z M400.597,381.601
		c-1.742,0.181-2.523,0.66-2.584,1.381c0,0.062,0,0.062-0.06,0.062c-0.901-0.182-1.321,0.059-1.862,0.421
		c1.142,0.179,1.321-0.242,1.862-0.421h0.06v-0.062C398.914,382.622,400.235,382.441,400.597,381.601 M396.992,370.307
		c0.06,0,0.12,0.061,0.24,0.061l0.36-1.081c0-0.062-0.061-0.12-0.061-0.182c-0.06,0-0.18,0.062-0.18,0.12
		C397.232,369.586,397.112,369.945,396.992,370.307 M397.833,365.86c0.721-1.802,0.721-1.802,0.48-2.223
		C397.772,365.081,397.772,365.081,397.833,365.86 M398.313,362.378c0,0.179,0.12,0.24,0.24,0.42
		c0.661-0.902,0.601-1.743,0.721-2.524c0.12-0.899,0.181-4.744,0.421-5.586c0.42-1.502,0.3-2.823,0.54-4.265
		c0-0.181-0.18-0.361-0.36-0.601c-0.78,3.123-0.841,9.011-1.562,12.015C398.253,362.016,398.253,362.197,398.313,362.378
		 M398.554,370.066c0.301-1.021,0.48-1.562,0.661-2.162C398.794,368.444,398.614,369.046,398.554,370.066 M400.356,363.579
		c-0.361,0.9-0.661,1.44-0.541,2.042C400.235,365.02,400.477,364.479,400.356,363.579 M399.995,342.432l0.12-0.12h-0.12V342.432z
		 M400.176,362.136c0.12-0.24,0.181-0.479,0.301-0.72h-0.061C400.356,361.656,400.235,361.896,400.176,362.136 M400.896,355.348
		l0.12,0.062v-0.182L400.896,355.348z M416.516,379.558c-1.502-0.359-2.764,0-3.965,0.12c-1.321,0.121-2.583,0.361-3.904,0.421
		c-2.343,0.061-4.325,0.602-6.488,0.841c-0.301,0-0.421,0.24-0.781,0.481c4.866-0.241,9.132-1.081,13.697-1.322
		c0.3-0.06,0.661-0.12,0.9-0.18C416.155,379.858,416.275,379.739,416.516,379.558 M409.007,378.597l0.24,0.061l0.06-0.061H409.007z
		 M413.933,378.177c0.36,0,0.721,0,1.081,0.06v-0.06c-0.36,0-0.721-0.06-1.081-0.06V378.177z M417.116,377.515
		c1.442,0.12,2.343,0.242,3.244-0.12C419.279,377.216,418.378,377.155,417.116,377.515 M421.201,379.258
		c-2.823-0.121-2.823-0.121-3.424,0.24C420.061,379.558,420.061,379.558,421.201,379.258 M427.209,377.216
		c-1.562,0.059-2.463,0.059-3.304,0.059C424.806,377.456,425.647,377.515,427.209,377.216 M428.05,378.417h-1.742
		c-0.06,0-0.18,0.06-0.18,0.12c0,0,0.12,0.12,0.18,0.12h1.683C428.05,378.597,428.05,378.477,428.05,378.417 M426.788,379.739
		c-0.06-0.121-0.12-0.241-0.18-0.241c-0.12,0-0.24,0.06-0.421,0.12c0.061,0.06,0.12,0.181,0.181,0.181
		C426.488,379.799,426.608,379.739,426.788,379.739"/>
	<path clip-path="url(#SVGID_43_)" fill="#FFFF4D" d="M422.763,353.546c0.36,0.061,0.721,0.061,1.081,0.12
		c1.262,0.241,1.562,0.661,1.502,1.983c0,0.42-0.061,0.899,0,1.32c0.06,0.661,0.3,1.383,0.24,2.043
		c-0.061,0.602-0.421,1.201-0.541,1.803c-0.24,1.141-0.36,2.343-0.66,3.424c-0.361,1.441,0,1.862,0.18,3.304
		c0,0.12,0,0.241,0.061,0.3c0.3,1.563,1.201,1.983,2.522,1.143c1.502-0.961,2.163-1.563,3.364-2.823
		c0.961-1.082,1.923-1.863,2.823-3.064c0.301-0.421,0.66-0.842,0.962-1.262c0.239-0.24,0.36-0.541,0.66-0.72
		c0.901-0.962,0.721-1.022,1.742-1.983c0.061-0.06,0.661-0.661,0.781-0.721c0.961-0.541,1.141,0.481,0.961,0.781
		c-0.24,0.479-1.142,1.682-1.562,2.102c-0.841,0.782-0.961,1.382-1.563,1.983c-1.081,1.261-2.583,2.463-3.544,3.905
		c-1.021,1.562-2.583,2.463-3.965,3.604c-0.541,0.42-1.201,0.661-1.862,0.961c-1.682,0.782-3.184,0.361-4.686-0.541
		c-0.36-0.24-0.661-0.54-0.781-1.02c-0.301-1.202-1.081-2.283-1.081-3.605c-0.181,0.061-0.361,0.121-0.361,0.18
		c-0.9,1.862-2.402,2.885-4.444,3.244c-0.481,0.12-1.021,0.24-1.563,0.361c-2.103,0.42-4.325-1.262-4.866-2.884
		c-0.18-0.42-0.42-0.841-0.66-1.262c-0.36-0.842-0.541-1.741-0.541-2.644c0-0.72-0.181-1.442,0-2.102
		c0.181-0.661,0.12-1.263,0.061-1.862c-0.12-0.602,0.48-0.841,0.3-1.502c-0.121-0.421,0.181-1.022,0.24-1.502
		c0.36-0.421,0.48-0.722,0.721-1.442c0.24-0.661,0.541-1.261,0.421-1.981c0.661-1.202,0.781-2.645,1.742-3.726
		c0.301-0.3,0.541-0.661,0.721-1.021c0.421-0.902,1.021-1.622,1.742-2.224c0.24-0.18,0.48-0.359,0.721-0.301
		c1.082,0.241,2.223,0,3.363,0c0.842,0.062,1.684,0.121,2.524,0.241c1.802,0.24,3.004,1.381,3.965,2.763
		c0.3,0.421,0.3,1.143,0.42,1.683c-0.54,0.421-0.841,0.9-1.081,1.441c-0.12,0.481-0.661,0.782-1.081,1.262
		C422.161,353.366,422.462,353.486,422.763,353.546 M411.168,369.286c-0.541-0.481-0.961-0.902-1.321-1.262
		c0.06-0.481-0.12-0.841-0.301-1.201c-0.601-1.203-1.081-2.463-0.961-3.845c0-0.302-0.061-0.602-0.12-0.963v-1.08
		c-0.061-0.301,0.24-0.602-0.181-0.901c-0.12,0.361-0.36,0.721-0.42,1.082c-0.36,2.102,0.18,4.085,1.142,6.006
		c0.18,0.361,0.54,0.601,0.841,0.841C410.026,368.565,410.087,369.286,411.168,369.286 M409.426,355.288
		c-0.06,0.06-0.24,0.06-0.24,0.121c0,0.12,0.06,0.24,0.12,0.36l0.181-0.182C409.486,355.468,409.486,355.409,409.426,355.288
		 M409.727,354.627c0.059-0.18,0.12-0.3,0.18-0.421v-0.419C409.606,354.027,409.306,354.268,409.727,354.627 M411.048,362.917
		v-1.141C410.928,362.136,410.627,362.497,411.048,362.917 M415.554,349.04c-0.301,0.301-0.602,0.541-0.901,0.841
		c-0.301,0.301-0.36,0.781-0.541,1.143c-1.261,2.343-1.922,4.806-1.982,7.448c0,0.302,0.061,0.602-0.06,0.781
		c-0.36,0.781-0.241,1.563-0.36,2.343c-0.36,2.104,0.54,3.846,1.321,5.647c0.24,0.661,0.781,0.841,1.441,0.781
		c0.901-0.062,1.622-0.481,2.224-1.081c0.841-0.902,1.621-1.863,2.402-2.824c0.301-0.361,0.541-0.841,0.601-1.261
		c0.181-0.902,0-1.804,0.36-2.704c-0.24-1.322,0.421-2.463,0.781-3.664c0.181-0.782,0.901-1.442,0.721-2.404
		c-0.9-0.359-1.502-1.081-1.742-2.102c-0.06-0.3-0.3-0.54-0.48-0.78c-0.12-0.301-0.301-0.602-0.36-0.902
		c-0.24-1.081-0.961-1.682-1.862-2.343C416.575,348.32,415.974,348.62,415.554,349.04 M423.003,366.462
		c0.12-0.421,0.12-0.421,0.12-1.562C422.883,365.021,422.883,365.021,423.003,366.462 M423.724,357.391
		c-0.181,1.021-0.36,1.862-0.421,3.005c0.12,0.659-0.12,1.2-0.12,1.802c-0.12,0.661-0.24,1.261-0.06,2.042
		c0.06-0.12,0.18-0.12,0.18-0.241c0.061-0.059,0.12-0.179,0.061-0.42c0.12-2.163,0.54-4.205,0.66-6.547
		C423.903,357.21,423.724,357.271,423.724,357.391"/>
	<path clip-path="url(#SVGID_43_)" fill="#FFFF4D" d="M446.191,337.626c1.261-0.541,2.522-0.421,3.784-0.541
		c1.622-0.18,3.304-0.059,4.986,0.062c1.021,0.12,1.982,0.18,2.884-0.062c0.12,0,0.3,0.062,0.601,0.062
		c-0.061,0.24-0.061,0.479-0.181,0.661c-0.12,0.18-0.3,0.3-0.54,0.479c-0.24,0.12-0.481,0.3-0.781,0.42
		c-0.601,0.12-1.142,0.361-1.742,0.603c-0.301,0.179-0.721,0.059-1.081,0.12c-1.082,0-2.223,0.059-3.305,0.119
		c-0.42,0.061-0.9,0.061-1.262,0.181c-1.201,0.479-2.583,0.6-3.904,0.841c-0.841,0.18-1.382,0.721-1.682,1.442
		c-0.061,0.359-0.12,0.659-0.241,1.02c-0.3,1.022-1.321,6.849-1.621,7.931c-0.301,1.201-0.541,2.464-0.842,3.664
		c-0.06,0.182-0.12,0.481-0.3,0.602c-0.661,0.661-1.262,4.685-1.382,6.008c-0.181,1.982-0.181,3.964-0.181,6.006
		c0.061,1.203,0.36,2.404,0.602,3.605c0.06,0.421,0.36,0.78,0.601,1.141c0.9,1.082,1.562,1.202,2.343,0.301
		c0.84-0.962,1.682-1.923,2.343-3.004c0.601-1.081,1.562-1.923,1.802-3.184c0.061-0.12,0.181-0.24,0.24-0.361
		c1.742-1.801,1.862-2.342,3.124-4.504c0.36-0.662,0.661-1.323,1.081-1.983c0.181-0.359,0.541-0.6,1.082-0.6
		c0.3,0,0.36,0.299,0.36,0.479c-0.061,0.602-0.181,0.9-0.541,1.862c-0.24,0.602-0.36,1.142-0.66,1.622
		c-0.481,0.721-0.782,1.621-1.262,2.343c-0.962,1.383-0.721,1.142-1.982,2.344c-0.781,0.841-1.502,1.741-1.982,2.822
		c-0.541,1.081-1.202,2.104-2.103,2.823c-0.781,0.602-1.502,1.203-2.523,1.443c-0.721,0.179-1.562,0.179-2.223-0.182
		c-0.601-0.359-1.502-0.541-1.803-1.382c-0.9-0.72-1.021-1.742-1.562-2.642c-0.06-0.062-0.06-0.182-0.06-0.301
		c0.18-1.081-0.181-2.163-0.481-3.244c-0.06-0.3,0-0.541,0-0.781c0.12-2.104,0.239-4.206,0.301-6.308
		c0.061-1.021,0.181-2.042,0.36-3.005c0.301-1.381,0.721-2.763,0.721-4.265c-0.059-0.961,0.541-3.183,0.661-3.483
		c0.12-0.182-0.181-0.602-0.12-0.842c0.36-1.021,0-5.167,0.9-6.008c-0.42,0.12-0.78,0.241-1.201,0.361
		c-1.141,0.421-2.463,0.3-3.604,0.781c-0.24,0.119-0.54,0.181-0.841,0.301c-0.3,0.12-0.601,0.179-1.021,0.059
		c-0.48-0.12-1.021-0.12-1.501-0.12c-0.421-0.059-0.842-0.301-1.262-0.6c-0.36-0.961,1.681-1.442,2.763-1.743
		c1.742-0.479,3.545-0.961,5.287-1.381c0.54-0.121,0.961-0.361,1.262-0.721c0.119-0.12,0.841-0.602,1.081-1.081
		c0.24-0.541,0.36-1.202,0.48-1.804c0.24-0.78,0.48-1.621,0.36-2.583c-0.06-0.421,0.181-0.9,0.24-1.382
		c0-0.12,0.061-0.42-0.06-0.479c-0.12-0.182-0.181-1.143-0.301-1.683c-0.06-0.48,0.12-2.043,2.583-2.282
		c2.463-0.24,3.244,0.66,3.665,1.081c0.18,0.119,0.42,0.301,0.66,0.421c0.541,0.3,0.842,0.841,0.781,1.32
		c-0.12,0.781,0.181,1.684-0.24,2.463c-0.12,0.182-0.721,2.403-0.781,2.704C446.672,336.785,446.312,337.146,446.191,337.626
		 M437.48,362.017c-0.301,0.721-0.601,1.262,0,2.102C438.081,363.458,437.78,362.797,437.48,362.017 M437.48,365.141h-0.12
		l-0.061,0.06C437.36,365.2,437.42,365.2,437.48,365.141 M437.9,359.193c0.061-0.3,0.061-0.42,0.061-0.601
		c0-0.182,0-0.422-0.301-0.422c-0.12,0-0.24,0.062-0.24,0.12c-0.06,0.12-0.12,0.362-0.06,0.482
		C437.42,358.894,437.601,358.952,437.9,359.193 M437.841,359.913c-0.12,0.182-0.781,0.361-0.181,0.723
		C437.721,360.396,437.78,360.154,437.841,359.913 M438.321,351.924c-0.661,0.36-0.661,0.36-0.24,0.962
		C438.201,352.525,438.262,352.225,438.321,351.924 M438.201,354.987l-0.12-0.12c0,0.12-0.06,0.181-0.12,0.241l0.12,0.06
		C438.142,355.108,438.201,355.048,438.201,354.987 M438.742,360.154c-0.181,0.961-0.601,1.682,0.24,2.883
		C438.802,361.956,439.103,361.176,438.742,360.154 M439.223,350.183c-0.541,0.18-0.541,0.18-0.602,1.32
		c0.061,0,0.241,0.062,0.241,0C439.162,351.144,439.223,350.723,439.223,350.183 M438.862,352.225
		c-0.061-0.12-0.12-0.181-0.181-0.24l-0.061,0.06c0,0.12,0.121,0.181,0.181,0.24L438.862,352.225z M438.802,365.261
		c-0.06-0.061-0.12-0.12-0.12-0.181c-0.061,0-0.061,0.061-0.061,0.061c0,0.12,0,0.181,0.061,0.239
		C438.682,365.38,438.742,365.321,438.802,365.261 M438.742,367.063c0-0.062,0-0.182-0.061-0.241h-0.061
		c0,0.06,0.061,0.18,0.061,0.241H438.742z M439.042,368.504h-0.12l0.061,0.182L439.042,368.504z M439.703,342.313
		c-0.48,2.043-1.082,6.789-0.541,6.128C439.103,347.479,440.304,341.051,439.703,342.313 M445.35,331.258
		c0-0.479-0.24-0.539-0.721-1.2c-0.42-0.361-0.842,1.141-0.78,1.981c0.06,1.081,0,2.163-0.421,3.124
		c-0.182,0.361-0.301,0.902-0.36,1.322c-0.061,0.479,0.36,0.901,0.36,1.502c0.541-0.42,0.661-0.961,0.841-1.442
		c0.181-0.421,0.661-1.382,0.601-1.803C444.93,335.104,445.41,330.417,445.35,331.258"/>
	<path clip-path="url(#SVGID_43_)" fill="#FFFF4D" d="M468.238,359.553c-0.12,1.021-0.901,1.743-1.322,2.704
		c-0.119,0.3-0.3,0.541-0.541,0.781c-1.021,1.262-1.741,2.764-3.183,3.665c-0.541,0.359-0.962,0.841-1.322,1.382
		c-1.682,2.282-3.965,3.003-6.548,2.703c-1.562-0.24-2.343-1.443-3.363-2.524c-0.121-0.12-0.842-2.883-0.842-3.003
		c0-1.322,0.061-3.304,0.301-4.687c0.24-1.621,0.3-3.243,0.601-4.806c0.24-0.961,0.601-1.923,0.841-2.883
		c0.12-0.481,0.48-0.601,0.841-0.601c1.201-0.062,2.223,0.18,3.063,1.2c-0.18,1.263,0,2.645-0.36,3.966
		c-0.24,0.9-0.18,1.861-0.48,2.822c-0.24,0.902-0.42,4.206-0.54,5.107c-0.12,0.962,0.3,2.824,0.841,3.424
		c0.42,0.481,1.081,0.54,1.802,0.241c1.141-0.481,2.043-1.262,2.824-2.163c0.961-1.081,1.862-2.163,2.763-3.185
		c0.901-1.021,1.683-2.162,2.583-3.124c0.481-0.54,0.602-1.2,1.322-1.682C468.358,358.352,468.238,359.192,468.238,359.553
		 M454.781,365.14l0.061-0.059C454.781,365.081,454.781,365.081,454.781,365.14c-0.12-0.179-0.24-0.299-0.3-0.479
		c-0.061-0.181-0.061-0.36-0.12-0.602h0.06v-0.06c0.36-0.181,0.541-0.42,0.36-0.841c-0.12-0.24-0.12-0.481-0.18-0.722
		c0.06-0.661,0.48-1.382,0-2.042c-0.12,0.602-0.301,1.081-0.36,1.621c0,0.12,0.24,0.241,0.36,0.421
		c-0.24,0.481-0.301,1.022-0.181,1.563h-0.06v0.06c-0.361,0.18-0.361,0.421-0.24,0.782
		C454.181,365.201,454.481,365.201,454.781,365.14c-0.54,0.721-0.54,0.782,0,1.563C454.842,366.162,455.082,365.621,454.781,365.14
		 M454.061,348.26c0.12-0.42,0.541-0.721,0.301-1.322c-0.12-0.359,0.18-0.841,0.18-1.261s-0.12-0.902-0.18-1.442
		c1.441-0.421,2.703-0.301,4.024,0.301c0.061,0.181,0.301,0.541,0.181,0.78c-0.24,0.722-0.12,1.502-0.24,2.224
		c-0.24,1.141-0.721,2.102-1.982,2.522c-0.36,0.12-0.721,0.361-1.142,0.602C454.481,350.844,454.421,349.041,454.061,348.26
		 M455.563,356.489c0.061,0.422,0.12,0.781,0.181,1.201c0.06-0.3,0.18-0.6,0.18-0.899c0-0.12-0.12-0.241-0.18-0.362
		C455.683,356.429,455.623,356.489,455.563,356.489"/>
	<path clip-path="url(#SVGID_43_)" fill="#FFFF4D" d="M494.67,359.553c-0.18,0.361-0.42,0.602-0.54,0.902
		c-0.481,1.261-1.382,2.163-2.403,3.063c-0.48,0.481-1.021,0.843-1.262,1.502c-0.12,0.182-0.3,0.36-0.48,0.48
		c-1.682,1.203-3.424,1.923-5.286,1.743c-1.021-0.12-1.862-0.54-2.283-1.563c-0.3-0.661-0.721-1.262-1.143-1.803
		c-0.54-0.6-0.359-1.38-0.299-2.162c0-0.24,0.12-1.021,0.18-1.201c0.36-1.201,0.24-2.464,1.082-3.604
		c0.601-0.842,0.961-1.684,1.08-2.645c0.061-0.541,0.421-1.142,0.662-1.741c0.42-0.781,1.321-2.943,1.38-3.305
		c0-0.48,0.062-0.962,0-1.441c0-0.602-0.359-0.961-1.02-1.022c-1.923-0.179-3.364,0.482-4.626,2.104
		c-0.301,0.421-1.622,2.103-2.223,3.063c-0.721,1.022-1.262,2.104-1.862,3.185c-0.24,0.359-0.48,0.78-0.721,1.141
		c-0.181,0.3-0.48,0.601-0.541,0.902c-0.421,1.261-1.262,2.343-1.862,3.483c-0.12,0.3-0.3,0.54-0.36,0.781
		c-0.181,1.082-0.901,1.982-1.562,2.883c-0.361,0.421-0.722,0.661-1.202,0.721c-0.54,0.062-1.022,0-1.622,0
		c-0.601-0.601-0.36-1.741-1.021-2.281c-0.12-0.062-0.12-0.24-0.12-0.421c0.06-1.081,0-2.104-0.302-3.124
		c-0.119-0.54,0-1.263,0.182-1.862c0.3-1.082,0.12-1.983-0.241-2.824c-0.12-0.18-0.18-0.359-0.24-0.6
		c0.842-0.841,1.862-1.081,2.824-1.143c0.78-0.059,1.441,0.24,1.982,0.781c0.54,0.42,0.9,0.901,0.9,1.682
		c0,0.602,0.181,1.081,0.24,1.563c0.181,0.059,0.181,0.059,0.241,0.059c0.06,0,0.12-0.059,0.12-0.119
		c1.381-2.163,2.763-4.387,4.085-6.549c0,0,0.78-0.961,1.441-1.321c0.84-0.842,1.802-1.621,2.703-2.463
		c1.502-1.382,3.184-1.622,4.866-1.862c0.421,0,0.781,0.06,1.142,0c1.321-0.12,2.223,0.48,3.063,1.261
		c0.48,0.421,0.661,1.022,0.541,1.743c-0.061,0.42-0.061,0.84-0.12,1.261c-0.061,0.661-0.36,1.143-0.36,1.143
		c-0.481,1.44-1.203,2.764-1.502,4.144c-0.241,0.902-0.661,1.863-1.082,2.825c-0.24,0.479-0.54,1.681-0.721,1.981
		c-0.24,0.421-0.42,0.9-0.42,1.262c0.06,0.301,0.06,0.601-0.062,0.9c-0.059,0.24-0.179,0.541-0.239,0.781
		c0.12,0.42,0.36,0.841,0.36,1.262c0.061,0.481,0.301,0.722,0.661,0.961c0.901,0.602,1.682,0.541,2.823-0.239
		c1.081-0.842,2.163-2.043,3.063-3.124c0.541-0.722,1.203-1.382,1.743-1.983C494.79,358.712,495.211,358.472,494.67,359.553
		 M482.115,358.773c-0.061-0.062-0.061-0.062-0.061-0.12l-0.06,0.059c-0.061,0.062,0,0.12,0,0.12S482.055,358.773,482.115,358.773
		 M483.016,359.914c-0.12,0.12-0.24,0.24-0.3,0.36c-0.12,0.12-0.12,0.301-0.181,0.421
		C482.896,360.515,483.196,360.395,483.016,359.914 M482.896,357.872c0.061,0,0.12-0.062,0.12-0.121c0,0-0.06,0-0.06,0.06
		C482.896,357.811,482.896,357.872,482.896,357.872 M483.736,359.013c-0.12,0-0.18,0.061-0.24,0.061
		c-0.06,0.12-0.06,0.18-0.06,0.301h0.24C483.736,359.253,483.736,359.133,483.736,359.013 M484.518,352.946c0,0-0.06,0-0.06-0.062
		c0,0.062-0.061,0.12-0.061,0.182h0.12V352.946z M485.419,352.645c-0.12,0.302-0.12,0.602-0.181,0.901
		c-0.12,0.361-0.48,0.54-0.54,0.901c-0.061,0.301-0.48,0.48-0.12,0.9c0.24-0.3,0.54-0.54,0.721-0.9
		c0.961-1.922,2.103-4.205,1.802-6.309c-0.06-0.359-0.3-0.479-0.48-0.841h0.061c-0.061-0.059-0.061-0.059-0.061-0.12
		c0-0.661-0.601-1.201-1.441-1.262c0.42,0.481,1.201,0.841,1.441,1.262v0.12c-0.181,0.421-0.181,0.602-0.12,0.961
		C486.681,349.582,485.96,351.324,485.419,352.645"/>
	<path clip-path="url(#SVGID_43_)" fill="#FF8B2A" d="M551.139,333.302c-0.12,0.421-0.24,0.6-0.36,0.661
		c-0.239,0.359-0.42,0.779-0.721,1.08c-0.421,0.481-0.841,0.901-1.562,0.781c-0.181,0-0.421,0.061-0.602,0.18
		c-0.48,0.302-0.961,0.722-1.501,1.021c-0.541,0.241-1.202,0-1.683,0.542c-0.84,0.059-1.622,0-2.403,0.24
		c-0.54,0.179-1.682,0.059-2.042-0.062c-0.961-0.239-0.661-0.359-1.742-0.239c-0.359,0.061-0.721,0-1.081-0.12
		c-0.601-0.182-1.202-0.302-1.862-0.182c-0.901,0.121-1.382,0.362-2.163-0.18c-0.721-0.541-1.502-0.18-1.682-0.3
		c-0.841,0.359-1.382,0.421-2.283,0.24c-0.601-0.12-1.262,0.119-3.004,0.181c0,0.12-2.583-0.481-4.445,0.3
		c-0.06,0.481-0.06,1.021-0.601,1.381c0.061-0.059,0.12-0.179,0.12-0.239s-0.06-0.12-0.06-0.181v0.12
		c-0.061,0.121-0.061,0.241-0.061,0.3c0,0.24-0.06,0.603,0.061,0.723c0.36,0.3,0.3,0.659,0.24,1.02
		c-0.24,1.142-0.301,2.223-0.301,3.365c0,0.9-0.301,1.682-0.901,2.403c-0.18,0.18-0.12,0.9,0.181,1.142
		c-0.181,0.179,0.06,1.081-0.181,1.561c-0.18,0.302,0,1.143,0.061,1.263c1.742-0.602,4.325-0.182,6.067-0.842
		c0.661-0.239,1.262-0.239,1.862-0.359c1.862-0.301,5.767-1.742,6.608-1.323c1.441,0.481-0.301,1.803-0.781,2.284
		c-0.421,0.42-0.961,0.84-1.502,1.081c-0.721,0.359-1.502,0.72-2.283,1.021c-0.961,0.301-2.282,0.12-3.243,0.541
		c-0.901,0.42-2.163,0.361-3.064,0.722c-0.24,0.12-0.54,0.18-0.721,0.359c-0.781,0.722-2.223,0.24-3.184,0.481
		c-0.36,0.059-0.301,0.3-0.661,0.421c-0.661,0.299-0.3,0.6-0.24,1.26c0.12,0.722-0.24,1.563-0.24,1.983
		c-0.061,1.382-0.24,2.763-0.6,4.145c-0.062,0.181-0.062,0.421,0,0.602c0.239,1.2,0.059,2.343-0.361,3.483
		c-0.24,0.541-0.301,1.081-0.301,1.683c-0.06,0.601-0.48,1.262-0.541,1.861c-0.06,0.603,0.121,1.143,0.121,1.742
		c0,0.241-0.481,1.382-0.602,1.684c-0.66,0.3-1.381,3.184-2.583,1.08c-0.42-0.78-0.66-0.961-0.841-1.44
		c-0.061-0.181-0.12-0.301-0.061-0.481c0.181-1.202,0.361-2.402,0.541-3.665c0.12-0.841,0.36-1.682,0.36-2.522
		c0-1.563,0.541-3.064,0.48-4.625c0-1.323,0.36-2.645,0.601-3.965c0.181-0.842,0.181-1.684,0.181-2.645
		c-0.901,0.182-1.742,0.301-2.463-0.24c-0.301-0.181-0.601-0.421-0.721-0.721c-0.181-0.359-0.36-0.479-0.421-0.961
		c-0.3-0.48,2.703-0.661,3.965-1.141c0.301-0.602,0.24-1.082,0.181-1.622c-0.12-0.841-0.24-1.742,0.18-2.645
		c0.061-0.179,0.12-0.359,0.12-0.479c0-1.622,0.48-3.185,0.421-4.807c-0.061-0.66,0.12-1.382,0.18-2.043
		c0.421-0.119,0.481,0.12,0.481,0.36c0.06,0.181-0.121,0.481,0.24,0.541c0.12-0.36,0.24-0.661,0.24-1.021
		c0.061-0.301,0-0.66,0-1.022c-0.061-0.78-0.602-1.201-2.523,0.362c-0.48,0.359-1.021,0.721-1.562,1.02
		c-0.301,0.182-0.661,0.12-0.661-0.059c0.06-0.12,0-0.24-0.12-0.361c0-0.06-0.181-0.06-0.239,0
		c-0.602,0.361-1.263,0.961-1.143,1.563c0.061,0.66-0.359,1.081-0.48,1.622c-0.061,0.421-0.181,0.841-0.301,1.2
		c-0.119,0.361,0.24,0.302,0.301,0.661c0.06,0.301,0.06,0.602,0.06,0.961c-0.36,0.182-0.721,0.361-1.081,0.541
		c-0.961-0.239-1.441-1.021-2.042-1.622c-0.061-0.359-0.12-0.721-0.12-1.081c0-0.541,0.06-1.141,0.24-1.682
		c0.18-0.601,0.721-1.142,0.54-1.802c0.48-0.722,0.721-1.622,1.563-2.104c0.3-0.18,0.54-0.421,0.721-0.661
		c0.721-0.961,5.166-2.702,5.467-3.243c0.06-0.12,0-0.301,0-0.54c0,0-0.421-0.723,2.402-0.661c1.563-0.062,3.185-0.182,4.807-0.301
		c0.24,0,0.481-0.12,0.721-0.181c1.081-0.24,2.162-0.3,3.184-0.06c1.442,0.301,0.781,0.421,2.283,0.301
		c1.321-0.121,2.583-0.121,3.845,0.059c0.961,0.12,1.922,0.12,2.884,0.12c1.741,0,2.162-0.059,3.965-0.12
		c0.601-0.059,1.261-0.18,1.922-0.359c0.601-0.12,1.263-0.3,1.862-0.42c1.201-0.302,2.103,0.12,2.764-1.143
		c0-0.359-0.181-0.359,0.12-0.661c0.18-0.239,0.48-0.54,0.721-0.779c0.12,0,0.24-0.062,0.36,0c1.142,0.66,2.223,0.54,2.343,1.201
		C550.839,331.919,551.08,332.341,551.139,333.302 M510.049,340.511v-0.12c-0.061,0.059-0.061,0.179-0.061,0.24
		C509.988,340.569,510.049,340.569,510.049,340.511 M511.25,342.192c-0.12,0-0.24,0.06-0.24,0.06c0,0.12,0.06,0.181,0.12,0.301
		c0-0.061,0.12-0.181,0.12-0.24C511.31,342.252,511.25,342.192,511.25,342.192 M514.014,339.128l-0.12-0.181
		c-0.12,0.12-0.24,0.181-0.36,0.301c0,0,0.06,0.12,0.24,0.36C513.833,339.43,513.953,339.31,514.014,339.128 M516.176,359.854h-0.06
		l-0.061,0.12L516.176,359.854z M516.656,354.086c-0.36,0.541-0.54,0.963-0.36,1.622
		C516.597,354.987,516.837,354.567,516.656,354.086 M516.597,356.851c-0.06,0.18-0.181,0.359-0.24,0.541l0.06,0.059
		C516.477,357.21,516.537,357.03,516.597,356.851 M517.077,352.225c0.36-0.42,0.541-0.901,0.48-1.683
		C517.317,351.323,517.197,351.805,517.077,352.225 M518.459,356.489l-0.301-0.3c-0.54,0.781-0.42,1.442-0.48,2.043
		c-0.06,0.72-0.06,1.381-0.24,2.042c-0.301,1.202-0.061,2.283-0.181,3.424c0,0.12,0.241,0.241,0.421,0.42
		c0.48-2.521,0.361-4.805,0.781-7.147C518.519,356.79,518.459,356.67,518.459,356.489 M518.58,353.786
		c-0.541,1.442-0.541,1.442-0.241,1.742C518.699,354.388,518.699,354.388,518.58,353.786 M519.119,350.241
		c-0.12-0.059-0.18-0.059-0.3-0.059c-0.061,0.3-0.181,0.6-0.239,0.9c0,0,0.059,0.061,0.059,0.12c0.061,0,0.12-0.06,0.181-0.12
		C518.879,350.782,518.999,350.542,519.119,350.241 M521.343,333.781c-0.481,0.182-0.781-0.24-1.142,0.301
		C520.562,333.843,520.802,334.442,521.343,333.781 M524.105,335.765c-0.721-0.061-0.721-0.061-1.44,0.6
		C523.385,336.186,523.865,336.306,524.105,335.765 M531.375,334.082c-0.12-0.06-1.442-0.119-1.563-0.181
		c-0.12,0.062-1.321,0.121-1.382,0.181c0.061,0.061,1.262,0.24,1.382,0.24C529.873,334.383,531.255,334.202,531.375,334.082
		 M529.933,334.862h-0.12c0,0-0.06,0.062-0.06,0.121h0.12C529.933,334.983,529.933,334.924,529.933,334.862 M541.227,333.422
		c-0.48,0-1.441,0.301-1.922,0.301c-1.021,0.059-2.043,0-2.343,0.12c-0.36,0.12-0.181,0.239,0.601,0.239
		c0.721,0.061,2.643-0.06,3.304-0.181c0.421-0.059,0.781-0.059,0.901-0.179S541.768,333.481,541.227,333.422"/>
	<path clip-path="url(#SVGID_43_)" fill="#FF8B2A" d="M562.733,361.235c-0.721,0.54-1.923,1.742-2.644,2.282
		c-2.103,1.502-3.664,2.404-5.767,3.906c-1.382,0.961-3.364,1.021-5.047,1.081c-0.54,0-1.141-0.061-1.742-0.061
		c-0.722-0.06-1.381-0.12-1.982-0.601c-0.3-0.241-0.66-0.3-1.141-0.18c-0.602,0.239-1.202-0.062-1.502-0.781
		c-0.24,0-0.48-0.061-0.661-0.3c-0.541-0.12-0.781-0.603-1.081-1.022c0.42,0.241,0.9,0.42,1.142,0.961c0.24,0,0.54,0,0.66,0.301
		h0.541v0.061c0.12,0,0.24,0.06,0.3,0.12c-0.06-0.061-0.18-0.12-0.24-0.181h-0.06c-0.901-0.9-1.742-1.861-2.403-2.943
		c-0.66-1.021-1.142-2.224-1.742-3.484c-0.24-0.3,0.061,1.563,0.36,2.224c0.12,0.42,0.24,0.899,0.301,1.32
		c0.781,0.181,0.961,0.782,1.021,1.442c-0.48-0.361-0.962-0.781-1.021-1.442c-0.781-0.6-1.142-1.382-1.201-2.402
		c-0.061-0.9-0.24-1.803-0.421-2.703c0-0.12-0.12-0.301-0.06-0.421c0.54-2.162,0.54-4.506,2.162-6.309
		c0.18-0.179,0.36-0.42,0.421-0.66c0.24-0.962,0.78-1.682,1.441-2.463c0.541-0.661,1.201-1.322,1.982-1.802
		c0.36-0.18,0.661-0.541,0.962-0.841c0.239-0.12,0.479-0.301,0.721-0.361c0.66-0.12,1.381-0.24,2.042-0.359
		c0.181-0.062,0.36-0.062,0.48-0.062c1.262,0.481,2.523,0.241,3.785,0.301c1.021,0.12,1.862,0.481,2.522,1.322
		c0.12,0.18,0.301,0.42,0.36,0.661c0.12,0.899,0.36,1.862,0,2.762c-0.06,0.182-0.06,0.421-0.121,0.662
		c-0.059,0.781-0.359,1.381-0.899,1.982c-0.48,0.479-0.842,1.142-1.322,1.622c-0.9,0.9-1.922,1.682-2.823,2.583
		c-1.262,1.201-2.884,1.741-4.325,2.582c-0.961,0.541-1.862,1.082-2.703,1.924c-0.181,0.9,0.36,1.502,0.9,2.463l0.661,0.421
		c0.301,0.299,1.382,0.72,1.862,0.84c1.201,0.3,1.742,0.542,3.004,0.902c0.3,0.12,0.661,0.18,0.901,0.12
		c1.922-0.48,4.085-1.383,5.767-2.403c2.163-1.382,3.545-2.343,5.646-3.785c0.602-0.42,1.382-1.381,2.104-1.922
		C565.377,358.473,563.515,360.636,562.733,361.235 M542.849,358.292c0.601-0.24,1.081-0.42,1.622-0.602
		c2.043-0.899,3.845-2.042,5.046-3.965c0.301-0.479,0.661-1.02,0.541-1.561c-0.18-0.722-0.301-1.442-0.901-1.983
		c-0.12-0.12-0.36-0.3-0.54-0.24c-0.722,0.061-1.502,0.24-1.862,0.781s-0.901,0.781-1.322,1.202c-0.36,0.42-0.721,0.901-1.201,1.201
		c-0.24,0.18-0.421,0.421-0.541,0.661c-0.18,0.42-0.42,0.779-0.54,1.142c-0.422,0.9-0.901,1.801-0.901,2.882
		C542.488,357.992,542.368,358.412,542.849,358.292 M545.612,359.494c-0.24-0.12-0.36-0.302-0.421-0.24
		c-0.36,0.059-0.721,0.12-0.66,0.6C544.951,359.914,545.191,359.674,545.612,359.494 M550.358,355.469
		c-1.442,0.961-2.584,2.222-4.205,2.763c-0.12,0.301-0.181,0.481-0.301,0.722c0.06,0,0.12,0.061,0.12,0.119
		c0.24-0.239,0.48-0.54,0.781-0.721c0.3-0.24,0.54-0.479,0.841-0.6c1.021-0.481,1.742-1.263,2.583-1.863
		C550.298,355.769,550.298,355.589,550.358,355.469 M551.499,354.327c0,0.061,0.12,0.061,0.181,0.061
		c0-0.061,0.061-0.121,0.061-0.181h-0.181C551.499,354.267,551.499,354.327,551.499,354.327"/>
	<path clip-path="url(#SVGID_43_)" fill="#FF8B2A" d="M585.741,359.434c-0.301,0.66-1.142,1.621-1.742,1.861
		c-1.562,1.082-1.922,1.563-2.644,1.863c-1.441,0.661-0.601,0.12-2.042,0.781c-0.36,0.18-0.541,0.479-0.961,0.721
		c-0.602,0.3-0.962,0.781-0.962,1.501c0,0.601-0.18,1.142-0.36,1.682c-0.3,0.723-0.66,1.202-1.262,1.622
		c-0.78,0.661-1.562,1.322-2.402,1.923c-0.541,0.421-1.081,0.901-1.982,0.842c-0.661-0.061-1.382,0.421-2.103,0.66
		c-0.24,0.061-0.541,0.24-0.781,0.181c-1.201-0.061-2.404-0.181-3.664-0.3c-0.181-0.602-0.301-1.143-0.421-1.622
		c1.201-2.404,3.424-3.545,5.587-4.626c0.48-0.24,0.961-0.481,1.502-0.661c0.901-0.361,1.441-0.42,1.502-1.863
		c0,0,0.36-0.72,0.18-0.9c-0.12-0.301-0.42-0.359-0.54-0.78c-0.181-0.781-0.962-1.081-1.742-1.201
		c-1.082-0.181-2.163-0.062-3.306-0.181c-0.779-0.061-1.561-0.061-2.222-0.481c-0.12-0.059-0.66-0.24-0.721-0.36
		c-0.12-0.239-0.781-0.66-0.781-0.66c-0.36-0.36-0.48-1.081-0.78-1.503c-0.061-0.119-0.061-0.54,0.06-0.721
		c0.12-0.359-0.48-1.021-0.36-1.261c0.18-0.481,0.061-1.563-0.06-2.104c-0.181-0.359,0.36-0.779,0.12-0.899
		c-0.181-0.661,0.24-0.902,0.42-1.443c0.061-0.24,0.661-0.54,0.781-0.961c0.06-0.3,0.36-0.661,0.36-0.901
		c0.24-0.359,1.142-1.861,1.802-2.161c0.722-0.302,1.803-0.12,2.283-0.603c0.12-0.12,1.622-0.479,1.742-0.479
		c1.142,0,2.223,0.12,3.424,0.479c1.202,0.421,2.043,1.082,2.584,2.225c0.06,0.059,0.18,1.682-0.181,2.223
		c-0.722,2.943-5.768,5.466-5.347,3.183c0-0.301-0.06-0.6,0-0.78c0.24-0.602,0.541-1.143,0.841-1.742
		c0.181-0.3,0.421-0.602,0.601-0.961c0.181-0.302,0.241-0.722-0.12-1.022c-0.36-0.36-0.721-0.66-1.261-0.42
		c-1.322,0.54-2.403,1.442-3.244,2.523c-0.721,1.021-1.322,2.102-1.262,3.425c0.06,0.84,0.06,1.981,0.841,2.521
		c0.181,0.12,0.36,0.36,0.479,0.541c0.602,0.481,0.902,0.481,1.623,0.481c1.081,0.12,2.223,0.3,3.305,0.3
		c1.682,0.061,2.943,0.721,3.845,2.163c0.3,0.42,0.54,0.781,0.841,1.202c0.54,0.24,1.021,0.179,1.502-0.12
		c1.862-0.722,1.081,0.12,3.184-1.502c1.562-0.662,1.502-1.502,3.124-2.043c0.12-0.061,0.3-0.121,0.48-0.121
		c0.06,0,0.179,0.121,0.24,0.181C585.802,359.193,585.802,359.313,585.741,359.434 M564.114,351.804
		c-0.06-0.06-0.18-0.119-0.24-0.119c0,0-0.12,0.06-0.12,0.119c0.061,0.061,0.12,0.12,0.181,0.181L564.114,351.804z M565.557,354.387
		l-0.12-0.06c-0.061,0-0.12,0.12-0.12,0.12c-0.301,0.721-0.24,2.763,0,2.283C565.616,355.828,565.437,355.108,565.557,354.387
		 M565.437,351.564c0,0,0.06,0.059,0.06,0.12c0-0.062,0.061-0.062,0.061-0.12c0,0,0-0.062-0.061-0.12
		C565.496,351.503,565.437,351.503,565.437,351.564 M572.225,367.363c-0.601,0.24-1.021,0.421-1.441,0.661
		c-0.842,0.421-1.622,1.021-2.523,1.382c-0.781,0.299-1.262,0.84-1.742,1.502c0.48,0.54,1.08,0.72,1.742,0.66
		c0.841-0.12,1.682-0.481,2.223-1.142c0.661-0.661,1.201-1.502,1.742-2.282C572.345,368.024,572.225,367.723,572.225,367.363
		 M571.984,371.087c0-0.12-0.061-0.24-0.12-0.3c-0.301-0.12-0.301,0.18-0.421,0.361v0.059h-0.06v0.062
		c-0.061-0.062-0.12-0.12-0.24-0.12c-0.12-0.062-0.24,0-0.36,0.059c0.06,0.062,0,0.241,0.06,0.301c0.12,0.061,0.301,0.181,0.36,0.12
		c0.12-0.06,0.12-0.24,0.181-0.359c0.06,0,0.06,0,0.06-0.062C571.684,371.327,571.924,371.508,571.984,371.087 M575.408,363.098
		c0-0.061-0.18-0.119-0.3-0.181c-0.061,0.12-0.181,0.241-0.181,0.361c-0.12,0.72-0.24,1.382-0.3,2.043
		c-0.061,0.961-0.301,1.742-0.842,2.642c-0.3,0.603-1.021,0.962-0.721,1.022c0.239,0.06,0.841-0.602,1.081-0.361
		c0.181-0.299,0.361-0.54,0.421-0.84c0.181-0.481,0.12-1.022,0.36-1.502C575.408,365.26,575.348,364.179,575.408,363.098"/>
	<path clip-path="url(#SVGID_43_)" fill="#FF8B2A" d="M594.092,337.626c1.261-0.541,2.522-0.421,3.784-0.541
		c1.622-0.18,3.304-0.059,4.986,0.062c1.021,0.12,1.982,0.18,2.884-0.062c0.12,0,0.3,0.062,0.601,0.062
		c-0.061,0.24-0.061,0.479-0.181,0.661c-0.12,0.18-0.3,0.3-0.54,0.479c-0.24,0.12-0.481,0.3-0.781,0.42
		c-0.601,0.12-1.142,0.361-1.742,0.603c-0.301,0.179-0.721,0.059-1.081,0.12c-1.082,0-2.223,0.059-3.305,0.119
		c-0.42,0.061-0.9,0.061-1.262,0.181c-1.201,0.479-2.583,0.6-3.904,0.841c-0.841,0.18-1.382,0.721-1.682,1.442
		c-0.061,0.359-0.12,0.659-0.241,1.02c-0.3,1.022-1.321,6.849-1.621,7.931c-0.301,1.201-0.541,2.464-0.842,3.664
		c-0.06,0.182-0.12,0.481-0.3,0.602c-0.661,0.661-1.262,4.685-1.382,6.008c-0.181,1.982-0.181,3.964-0.181,6.006
		c0.061,1.203,0.36,2.404,0.602,3.605c0.06,0.421,0.36,0.78,0.601,1.141c0.9,1.082,1.562,1.202,2.343,0.301
		c0.84-0.962,1.682-1.923,2.342-3.004c0.602-1.081,1.563-1.923,1.803-3.184c0.061-0.12,0.181-0.24,0.24-0.361
		c1.742-1.801,1.862-2.342,3.123-4.504c0.361-0.662,0.662-1.323,1.082-1.983c0.181-0.359,0.541-0.6,1.082-0.6
		c0.3,0,0.36,0.299,0.36,0.479c-0.061,0.602-0.181,0.9-0.541,1.862c-0.24,0.602-0.36,1.142-0.66,1.622
		c-0.481,0.721-0.782,1.621-1.262,2.343c-0.962,1.383-0.721,1.142-1.982,2.344c-0.781,0.841-1.502,1.741-1.982,2.822
		c-0.541,1.081-1.202,2.104-2.103,2.823c-0.781,0.602-1.502,1.203-2.523,1.443c-0.721,0.179-1.562,0.179-2.223-0.182
		c-0.601-0.359-1.502-0.541-1.803-1.382c-0.9-0.72-1.021-1.742-1.562-2.642c-0.06-0.062-0.06-0.182-0.06-0.301
		c0.18-1.081-0.181-2.163-0.481-3.244c-0.06-0.3,0-0.541,0-0.781c0.12-2.104,0.239-4.206,0.301-6.308
		c0.061-1.021,0.181-2.042,0.36-3.005c0.301-1.381,0.721-2.763,0.721-4.265c-0.059-0.961,0.541-3.183,0.661-3.483
		c0.12-0.182-0.181-0.602-0.12-0.842c0.359-1.021,0-5.167,0.9-6.008c-0.42,0.12-0.78,0.241-1.201,0.361
		c-1.141,0.421-2.463,0.3-3.604,0.781c-0.24,0.119-0.54,0.181-0.841,0.301c-0.3,0.12-0.601,0.179-1.021,0.059
		c-0.48-0.12-1.021-0.12-1.501-0.12c-0.421-0.059-0.842-0.301-1.262-0.6c-0.36-0.961,1.681-1.442,2.763-1.743
		c1.742-0.479,3.545-0.961,5.287-1.381c0.54-0.121,0.961-0.361,1.262-0.721c0.119-0.12,0.841-0.602,1.081-1.081
		c0.24-0.541,0.36-1.202,0.48-1.804c0.24-0.78,0.48-1.621,0.36-2.583c-0.06-0.421,0.181-0.9,0.24-1.382
		c0-0.12,0.061-0.42-0.06-0.479c-0.12-0.182-0.181-1.143-0.301-1.683c-0.06-0.48,0.12-2.043,2.583-2.282
		c2.463-0.24,3.244,0.66,3.665,1.081c0.18,0.119,0.42,0.301,0.66,0.421c0.541,0.3,0.842,0.841,0.781,1.32
		c-0.12,0.781,0.181,1.684-0.24,2.463c-0.12,0.182-0.721,2.403-0.781,2.704C594.572,336.785,594.212,337.146,594.092,337.626
		 M585.381,362.017c-0.301,0.721-0.601,1.262,0,2.102C585.98,363.458,585.681,362.797,585.381,362.017 M585.381,365.141h-0.12
		l-0.061,0.06C585.261,365.2,585.32,365.2,585.381,365.141 M585.801,359.193c0.061-0.3,0.061-0.42,0.061-0.601
		c0-0.182,0-0.422-0.301-0.422c-0.121,0-0.24,0.062-0.24,0.12c-0.06,0.12-0.12,0.362-0.06,0.482
		C585.32,358.894,585.501,358.952,585.801,359.193 M585.741,359.913c-0.12,0.182-0.781,0.361-0.181,0.723
		C585.621,360.396,585.681,360.154,585.741,359.913 M586.222,351.924c-0.661,0.36-0.661,0.36-0.241,0.962
		C586.102,352.525,586.162,352.225,586.222,351.924 M586.102,354.987l-0.121-0.12c0,0.12-0.059,0.181-0.119,0.241l0.119,0.06
		C586.042,355.108,586.102,355.048,586.102,354.987 M586.643,360.154c-0.181,0.961-0.601,1.682,0.24,2.883
		C586.702,361.956,587.003,361.176,586.643,360.154 M587.123,350.183c-0.541,0.18-0.541,0.18-0.602,1.32
		c0.061,0,0.241,0.062,0.241,0C587.063,351.144,587.123,350.723,587.123,350.183 M586.763,352.225
		c-0.061-0.12-0.12-0.181-0.181-0.24l-0.061,0.06c0,0.12,0.121,0.181,0.181,0.24L586.763,352.225z M586.702,365.261
		c-0.06-0.061-0.12-0.12-0.12-0.181c-0.061,0-0.061,0.061-0.061,0.061c0,0.12,0,0.181,0.061,0.239
		C586.582,365.38,586.643,365.321,586.702,365.261 M586.643,367.063c0-0.062,0-0.182-0.061-0.241h-0.061
		c0,0.06,0.061,0.18,0.061,0.241H586.643z M586.942,368.504h-0.12l0.061,0.182L586.942,368.504z M587.604,342.313
		c-0.48,2.043-1.082,6.789-0.541,6.128C587.003,347.479,588.204,341.051,587.604,342.313 M593.25,331.258
		c0-0.479-0.24-0.539-0.721-1.2c-0.42-0.361-0.842,1.141-0.78,1.981c0.06,1.081,0,2.163-0.421,3.124
		c-0.182,0.361-0.301,0.902-0.36,1.322c-0.061,0.479,0.36,0.901,0.36,1.502c0.541-0.42,0.661-0.961,0.841-1.442
		c0.181-0.421,0.661-1.382,0.601-1.803C592.83,335.104,593.311,330.417,593.25,331.258"/>
</g>
</svg>
